<svg width="20" height="20" viewBox="0 0 20 20" fill="none" xmlns="http://www.w3.org/2000/svg">
<path fill-rule="evenodd" clip-rule="evenodd" d="M5.19849 16.3994C3.25623 14.9398 2 12.6166 2 10C2 5.58172 5.58172 2 10 2C14.4183 2 18 5.58172 18 10C18 12.6166 16.7438 14.9398 14.8015 16.3994C14.0791 16.9423 13.2618 17.3657 12.379 17.6403C12.3372 17.6533 12.2953 17.666 12.2533 17.6783C11.5386 17.8877 10.7824 18 10 18C9.21758 18 8.46141 17.8877 7.7467 17.6783C6.82182 17.4073 5.96639 16.9738 5.21347 16.4107C5.20847 16.4069 5.20348 16.4032 5.19849 16.3994ZM14.9402 14.2244C15.9127 13.0883 16.5 11.6127 16.5 10C16.5 6.41015 13.5899 3.5 10 3.5C6.41015 3.5 3.5 6.41015 3.5 10C3.5 11.6127 4.08734 13.0883 5.05979 14.2244C5.33454 12.4601 6.53182 11.0011 8.14289 10.3562C7.4468 9.80686 7 8.95561 7 8C7 6.34315 8.34315 5 10 5C11.6569 5 13 6.34315 13 8C13 8.95561 12.5532 9.80686 11.8571 10.3562C13.4682 11.0011 14.6655 12.4601 14.9402 14.2244ZM13.4644 15.5008C13.4879 15.3372 13.5 15.17 13.5 15C13.5 13.067 11.933 11.5 10 11.5C8.067 11.5 6.5 13.067 6.5 15C6.5 15.17 6.51213 15.3372 6.53556 15.5008C7.53843 16.1337 8.72644 16.5 10 16.5C11.2736 16.5 12.4616 16.1337 13.4644 15.5008ZM10 9.5C10.8284 9.5 11.5 8.82843 11.5 8C11.5 7.17157 10.8284 6.5 10 6.5C9.17157 6.5 8.5 7.17157 8.5 8C8.5 8.82843 9.17157 9.5 10 9.5Z" fill="#9F9F9F"/>
</svg>
