<svg width="20" height="20" viewBox="0 0 20 20" fill="none" xmlns="http://www.w3.org/2000/svg">
<path fill-rule="evenodd" clip-rule="evenodd" d="M8.06976 6.32505L8.51919 6.85714H9.21569H16.5V15H3.5V6.28571V5.35714V5H6.95056L8.06976 6.32505ZM2.3 3.5C2.13431 3.5 2 3.63431 2 3.8V5.35714V6.28571V16.2C2 16.3657 2.13431 16.5 2.3 16.5H17.7C17.8657 16.5 18 16.3657 18 16.2V5.65714C18 5.49146 17.8657 5.35714 17.7 5.35714H9.21569L7.73695 3.60642C7.67994 3.53893 7.5961 3.5 7.50776 3.5H2.3ZM10.75 8.25V9V10.25H12H12.75V11.75H12H10.75V13V13.75H9.25V13V11.75H8H7.25V10.25H8H9.25V9V8.25H10.75Z" fill="#9F9F9F"/>
</svg>
