<svg width="20" height="20" viewBox="0 0 20 20" fill="none" xmlns="http://www.w3.org/2000/svg">
<rect opacity="0.01" width="20" height="20" fill="#D8D8D8"/>
<mask id="path-2-inside-1" fill="white">
<path fill-rule="evenodd" clip-rule="evenodd" d="M3 2.5C2.72386 2.5 2.5 2.72386 2.5 3V9C2.5 9.27614 2.72386 9.5 3 9.5H9C9.27614 9.5 9.5 9.27614 9.5 9V3C9.5 2.72386 9.27614 2.5 9 2.5H3ZM11.5 2.5C11.2239 2.5 11 2.72386 11 3V9C11 9.27614 11.2239 9.5 11.5 9.5H17.5C17.7761 9.5 18 9.27614 18 9V3C18 2.72386 17.7761 2.5 17.5 2.5H11.5ZM2.5 11.5C2.5 11.2239 2.72386 11 3 11H9C9.27614 11 9.5 11.2239 9.5 11.5V17.5C9.5 17.7761 9.27614 18 9 18H3C2.72386 18 2.5 17.7761 2.5 17.5V11.5ZM11.5 11C11.2239 11 11 11.2239 11 11.5V17.5C11 17.7761 11.2239 18 11.5 18H17.5C17.7761 18 18 17.7761 18 17.5V11.5C18 11.2239 17.7761 11 17.5 11H11.5Z"/>
</mask>
<path d="M4 3C4 3.55228 3.55229 4 3 4V1C1.89543 1 1 1.89543 1 3H4ZM4 9V3H1V9H4ZM3 8C3.55228 8 4 8.44771 4 9H1C1 10.1046 1.89543 11 3 11V8ZM9 8H3V11H9V8ZM8 9C8 8.44771 8.44771 8 9 8V11C10.1046 11 11 10.1046 11 9H8ZM8 3V9H11V3H8ZM9 4C8.44772 4 8 3.55229 8 3H11C11 1.89543 10.1046 1 9 1V4ZM3 4H9V1H3V4ZM12.5 3C12.5 3.55228 12.0523 4 11.5 4V1C10.3954 1 9.5 1.89543 9.5 3H12.5ZM12.5 9V3H9.5V9H12.5ZM11.5 8C12.0523 8 12.5 8.44771 12.5 9H9.5C9.5 10.1046 10.3954 11 11.5 11V8ZM17.5 8H11.5V11H17.5V8ZM16.5 9C16.5 8.44771 16.9477 8 17.5 8V11C18.6046 11 19.5 10.1046 19.5 9H16.5ZM16.5 3V9H19.5V3H16.5ZM17.5 4C16.9477 4 16.5 3.55229 16.5 3H19.5C19.5 1.89543 18.6046 1 17.5 1V4ZM11.5 4H17.5V1H11.5V4ZM3 9.5C1.89543 9.5 1 10.3954 1 11.5H4C4 12.0523 3.55229 12.5 3 12.5V9.5ZM9 9.5H3V12.5H9V9.5ZM11 11.5C11 10.3954 10.1046 9.5 9 9.5V12.5C8.44771 12.5 8 12.0523 8 11.5H11ZM11 17.5V11.5H8V17.5H11ZM9 19.5C10.1046 19.5 11 18.6046 11 17.5H8C8 16.9477 8.44771 16.5 9 16.5V19.5ZM3 19.5H9V16.5H3V19.5ZM1 17.5C1 18.6046 1.89543 19.5 3 19.5V16.5C3.55228 16.5 4 16.9477 4 17.5H1ZM1 11.5V17.5H4V11.5H1ZM12.5 11.5C12.5 12.0523 12.0523 12.5 11.5 12.5V9.5C10.3954 9.5 9.5 10.3954 9.5 11.5H12.5ZM12.5 17.5V11.5H9.5V17.5H12.5ZM11.5 16.5C12.0523 16.5 12.5 16.9477 12.5 17.5H9.5C9.5 18.6046 10.3954 19.5 11.5 19.5V16.5ZM17.5 16.5H11.5V19.5H17.5V16.5ZM16.5 17.5C16.5 16.9477 16.9477 16.5 17.5 16.5V19.5C18.6046 19.5 19.5 18.6046 19.5 17.5H16.5ZM16.5 11.5V17.5H19.5V11.5H16.5ZM17.5 12.5C16.9477 12.5 16.5 12.0523 16.5 11.5H19.5C19.5 10.3954 18.6046 9.5 17.5 9.5V12.5ZM11.5 12.5H17.5V9.5H11.5V12.5Z" fill="#333333" mask="url(#path-2-inside-1)"/>
</svg>
