<svg width="20" height="20" viewBox="0 0 20 20" fill="none" xmlns="http://www.w3.org/2000/svg">
<path fill-rule="evenodd" clip-rule="evenodd" d="M3 2.5C2.72386 2.5 2.5 2.72386 2.5 3V9C2.5 9.27614 2.72386 9.5 3 9.5H9C9.27614 9.5 9.5 9.27614 9.5 9V3C9.5 2.72386 9.27614 2.5 9 2.5H3ZM11.5 2.5C11.2239 2.5 11 2.72386 11 3V9C11 9.27614 11.2239 9.5 11.5 9.5H17.5C17.7761 9.5 18 9.27614 18 9V3C18 2.72386 17.7761 2.5 17.5 2.5H11.5ZM2.5 11.5C2.5 11.2239 2.72386 11 3 11H9C9.27614 11 9.5 11.2239 9.5 11.5V17.5C9.5 17.7761 9.27614 18 9 18H3C2.72386 18 2.5 17.7761 2.5 17.5V11.5ZM11.5 11C11.2239 11 11 11.2239 11 11.5V17.5C11 17.7761 11.2239 18 11.5 18H17.5C17.7761 18 18 17.7761 18 17.5V11.5C18 11.2239 17.7761 11 17.5 11H11.5Z" fill="#0099D3"/>
</svg>
