<svg width="20" height="20" viewBox="0 0 20 20" fill="none" xmlns="http://www.w3.org/2000/svg">
<path fill-rule="evenodd" clip-rule="evenodd" d="M3.3 3C3.13431 3 3 3.13431 3 3.3V16.7C3 16.8657 3.13431 17 3.3 17H16.7C16.8657 17 17 16.8657 17 16.7V3.3C17 3.13431 16.8657 3 16.7 3H3.3ZM15.0084 8.52802L14.2401 9.1682L9.47542 13.1388L8.80005 13.8142L8.73866 13.7528L8.67192 13.8084L8.06016 13.0743L5.69295 10.7071L4.98584 9.99996L6.40005 8.58574L7.10716 9.29285L8.86139 11.0471L12.9598 7.63176L13.728 6.99158L15.0084 8.52802Z" fill="#C0C0C0"/>
</svg>
