<svg width="20" height="20" viewBox="0 0 20 20" fill="none" xmlns="http://www.w3.org/2000/svg">
<path fill-rule="evenodd" clip-rule="evenodd" d="M3.76172 12.9688V7.96875H5.51309C6.11978 7.96875 6.57994 8.08551 6.89359 8.31902C7.20723 8.55025 7.36405 8.89022 7.36405 9.33894C7.36405 9.58391 7.3011 9.80025 7.17518 9.98798C7.04926 10.1734 6.87413 10.3096 6.64977 10.3966C6.90618 10.4607 7.10764 10.5901 7.25416 10.7847C7.40297 10.9793 7.47738 11.2174 7.47738 11.499C7.47738 11.9797 7.32399 12.3438 7.01721 12.591C6.71044 12.8383 6.27317 12.9642 5.7054 12.9688H3.76172ZM4.79194 10.7916V12.1411H5.67449C5.91717 12.1411 6.10604 12.0839 6.24111 11.9694C6.37848 11.8527 6.44716 11.6924 6.44716 11.4887C6.44716 11.0308 6.21021 10.7984 5.73631 10.7916H4.79194ZM4.79194 10.0635H5.5543C6.07399 10.0544 6.33383 9.84718 6.33383 9.44196C6.33383 9.21532 6.26744 9.05277 6.13466 8.95433C6.00416 8.85359 5.79698 8.80323 5.51309 8.80323H4.79194V10.0635Z" fill="#333333"/>
<path d="M11.9211 8.80323H10.3895V12.9688H9.35925V8.80323H7.84826V7.96875H11.9211V8.80323Z" fill="#333333"/>
<path d="M15.5474 12.9688H16.5777V7.96875H15.5509V11.2655L13.5419 7.96875H12.5117V12.9688H13.5419V9.67892L15.5474 12.9688Z" fill="#333333"/>
<path fill-rule="evenodd" clip-rule="evenodd" d="M0.5 5.5C0.5 4.94771 0.947715 4.5 1.5 4.5H18.5C19.0523 4.5 19.5 4.94772 19.5 5.5V14.5C19.5 15.0523 19.0523 15.5 18.5 15.5H1.5C0.947715 15.5 0.5 15.0523 0.5 14.5V5.5ZM2 14V6H18V14H2Z" fill="#333333"/>
</svg>
