<svg width="20" height="20" viewBox="0 0 20 20" fill="none" xmlns="http://www.w3.org/2000/svg">
<rect opacity="0.01" width="20" height="20" fill="#D8D8D8"/>
<path fill-rule="evenodd" clip-rule="evenodd" d="M10 11.4882C11.3807 11.4882 12.5001 12.554 12.5001 13.869V16.25H2.5V13.869C2.5 12.554 3.61936 11.4882 5.00007 11.4882H10ZM15.0001 11.4882C16.3808 11.4882 17.5 12.554 17.5 13.869V16.25H14.3053C13.9987 16.2502 13.75 16.0133 13.75 15.7211C13.75 15.0196 13.75 13.869 13.75 13.869C13.75 13.1958 13.4567 12.588 12.9851 12.155C12.8731 12.0552 12.8362 11.9004 12.8922 11.7644C12.9482 11.6286 13.0859 11.539 13.2393 11.5388C14.123 11.4897 15.0001 11.4882 15.0001 11.4882ZM7.49993 3.75C9.5712 3.75 11.2501 5.34897 11.2501 7.3214C11.2501 9.29383 9.5712 10.8928 7.49993 10.8928C5.42886 10.8928 3.74993 9.29383 3.74993 7.3214C3.74993 5.34897 5.42886 3.75 7.49993 3.75ZM12.5001 3.75C14.5711 3.75 16.2501 5.34897 16.2501 7.3214C16.2501 9.29383 14.5711 10.8928 12.5001 10.8928C12.2819 10.8928 12.0682 10.8751 11.8604 10.8412C11.6074 10.8012 11.399 10.6305 11.32 10.3983C11.241 10.1661 11.3045 9.91115 11.4848 9.73771C12.1202 9.11341 12.5001 8.25979 12.5001 7.3214C12.5001 6.3832 12.1202 5.5294 11.4989 4.8921C11.3233 4.7237 11.2611 4.47615 11.3379 4.25033C11.4147 4.02451 11.6176 3.85864 11.8635 3.82042C12.0682 3.76785 12.2819 3.75 12.5001 3.75Z" fill="#333333"/>
</svg>
