<svg width="20" height="20" viewBox="0 0 20 20" fill="none" xmlns="http://www.w3.org/2000/svg">
<path fill-rule="evenodd" clip-rule="evenodd" d="M7.75 3.375V5.625H13.25C13.5261 5.625 13.75 5.84886 13.75 6.125V12.875H16V3.375H7.75ZM13.75 14.375H17C17.2761 14.375 17.5 14.1511 17.5 13.875V2.375C17.5 2.09886 17.2761 1.875 17 1.875H6.75C6.47386 1.875 6.25 2.09886 6.25 2.375V5.625H3C2.72386 5.625 2.5 5.84886 2.5 6.125V17.625C2.5 17.9011 2.72386 18.125 3 18.125H13.25C13.5261 18.125 13.75 17.9011 13.75 17.625V14.375ZM4 16.625V7.125H12.25V16.625H4Z" fill="#333333"/>
</svg>
