<svg width="20" height="20" viewBox="0 0 20 20" fill="none" xmlns="http://www.w3.org/2000/svg">
<path fill-rule="evenodd" clip-rule="evenodd" d="M2 3C2 2.44772 2.44772 2 3 2H9C9.55228 2 10 2.44772 10 3V16.5C10 17.0523 9.55228 17.5 9 17.5H3C2.44772 17.5 2 17.0523 2 16.5V3ZM11.5 3C11.5 2.44772 11.9477 2 12.5 2H17.5C18.0523 2 18.5 2.44772 18.5 3V8C18.5 8.55228 18.0523 9 17.5 9H12.5C11.9477 9 11.5 8.55228 11.5 8V3ZM12.5 10.5C11.9477 10.5 11.5 10.9477 11.5 11.5V16.5C11.5 17.0523 11.9477 17.5 12.5 17.5H17.5C18.0523 17.5 18.5 17.0523 18.5 16.5V11.5C18.5 10.9477 18.0523 10.5 17.5 10.5H12.5Z" fill="white"/>
</svg>
