<svg width="20" height="20" viewBox="0 0 20 20" fill="none" xmlns="http://www.w3.org/2000/svg">
<path fill-rule="evenodd" clip-rule="evenodd" d="M4 16V4H16V16H4ZM2.5 3.5C2.5 2.94772 2.94772 2.5 3.5 2.5H16.5C17.0523 2.5 17.5 2.94772 17.5 3.5V16.5C17.5 17.0523 17.0523 17.5 16.5 17.5H3.5C2.94772 17.5 2.5 17.0523 2.5 16.5V3.5ZM8.125 7.5H5.625V6H8.125V7.5ZM8.125 10.625H5.625V9.125H8.125V10.625ZM5.625 13.75H8.125V12.25H5.625V13.75ZM14.375 7.5H9.375V6H14.375V7.5ZM9.375 10.625H14.375V9.125H9.375V10.625ZM14.375 13.75H9.375V12.25H14.375V13.75Z" fill="#333333"/>
</svg>
