<svg width="20" height="20" viewBox="0 0 20 20" fill="none" xmlns="http://www.w3.org/2000/svg">
<path fill-rule="evenodd" clip-rule="evenodd" d="M7.31813 2.43164H8.06813H12.159H12.909V3.93164H12.159H8.06813H7.31813V2.43164ZM1.18176 5.15893H1.93176H18.2954H19.0454V6.65893H18.2954H16.25V6.72687V16.4996C16.25 17.0519 15.8023 17.4996 15.25 17.4996H4.97724C4.42496 17.4996 3.97725 17.0519 3.97725 16.4996V6.72687V6.65893H1.93176H1.18176V5.15893ZM5.47725 6.72687H14.75V15.9996H5.47725V6.72687ZM8.81818 8.56812V9.31812V13.409V14.159H7.31818V13.409V9.31812V8.56812H8.81818ZM12.9091 9.31812V8.56812H11.4091V9.31812V13.409V14.159H12.9091V13.409V9.31812Z" fill="#333333"/>
</svg>
