<svg width="20" height="20" viewBox="0 0 20 20" fill="none" xmlns="http://www.w3.org/2000/svg">
<mask id="path-1-inside-1" fill="white">
<path fill-rule="evenodd" clip-rule="evenodd" d="M2.3 3.5C2.13431 3.5 2 3.63431 2 3.8V5.35714V6.28571V16.2C2 16.3657 2.13431 16.5 2.3 16.5H17.7C17.8657 16.5 18 16.3657 18 16.2V5.65714C18 5.49146 17.8657 5.35714 17.7 5.35714H9.21569L7.73695 3.60642C7.67994 3.53893 7.5961 3.5 7.50776 3.5H2.3Z"/>
</mask>
<path d="M9.21569 5.35714L8.06976 6.32505L8.51919 6.85714H9.21569V5.35714ZM7.73695 3.60642L8.88288 2.63851L8.88288 2.63851L7.73695 3.60642ZM3.5 3.8C3.5 4.46274 2.96274 5 2.3 5V2C1.30589 2 0.5 2.80589 0.5 3.8H3.5ZM3.5 5.35714V3.8H0.5V5.35714H3.5ZM3.5 6.28571V5.35714H0.5V6.28571H3.5ZM3.5 16.2V6.28571H0.5V16.2H3.5ZM2.3 15C2.96274 15 3.5 15.5373 3.5 16.2H0.5C0.5 17.1941 1.30589 18 2.3 18V15ZM17.7 15H2.3V18H17.7V15ZM16.5 16.2C16.5 15.5373 17.0373 15 17.7 15V18C18.6941 18 19.5 17.1941 19.5 16.2H16.5ZM16.5 5.65714V16.2H19.5V5.65714H16.5ZM17.7 6.85714C17.0373 6.85714 16.5 6.31988 16.5 5.65714H19.5C19.5 4.66303 18.6941 3.85714 17.7 3.85714V6.85714ZM9.21569 6.85714H17.7V3.85714H9.21569V6.85714ZM6.59101 4.57432L8.06976 6.32505L10.3616 4.38924L8.88288 2.63851L6.59101 4.57432ZM7.50776 5C7.15441 5 6.81902 4.84427 6.59101 4.57433L8.88288 2.63851C8.54087 2.2336 8.03779 2 7.50776 2V5ZM2.3 5H7.50776V2H2.3V5Z" fill="#333333" mask="url(#path-1-inside-1)"/>
</svg>
