<svg width="20" height="20" viewBox="0 0 20 20" fill="none" xmlns="http://www.w3.org/2000/svg">
<path fill-rule="evenodd" clip-rule="evenodd" d="M3.3 3C3.13431 3 3 3.13431 3 3.3V16.7C3 16.8657 3.13431 17 3.3 17H16.7C16.8657 17 17 16.8657 17 16.7V3.3C17 3.13431 16.8657 3 16.7 3H3.3ZM12.3373 8.95028C12.2218 9.16503 12.0838 9.34976 11.9248 9.50594C11.7658 9.66213 11.4808 9.92344 11.0683 10.2914C10.9543 10.395 10.8628 10.4866 10.7953 10.5647C10.7263 10.6428 10.6753 10.7149 10.6423 10.781C10.6093 10.8456 10.5823 10.9116 10.5643 10.9762C10.5463 11.0408 10.5178 11.1564 10.4818 11.3201C10.4188 11.6685 10.2193 11.8427 9.88476 11.8427C9.71076 11.8427 9.56376 11.7857 9.44526 11.6715C9.32676 11.5574 9.26676 11.3892 9.26676 11.1639C9.26676 10.8831 9.31026 10.6398 9.39726 10.4326C9.48426 10.2268 9.59976 10.0466 9.74376 9.8904C9.88776 9.73422 10.0813 9.5495 10.3258 9.33624C10.5403 9.14851 10.6948 9.00734 10.7908 8.91123C10.8868 8.81511 10.9663 8.70999 11.0323 8.59285C11.0968 8.47571 11.1298 8.34956 11.1298 8.21139C11.1298 7.94407 11.0308 7.7173 10.8313 7.53408C10.6318 7.35086 10.3753 7.25775 10.0603 7.25775C9.69126 7.25775 9.42126 7.35086 9.24726 7.53708C9.07326 7.7233 8.92626 7.99663 8.80476 8.35857C8.69076 8.73702 8.47476 8.92625 8.15676 8.92625C7.96926 8.92625 7.81176 8.86017 7.68276 8.72801C7.55376 8.59585 7.48926 8.45318 7.48926 8.29849C7.48926 7.98011 7.59126 7.65873 7.79526 7.33133C7.99926 7.00544 8.29776 6.73512 8.68926 6.52036C9.08076 6.3056 9.53826 6.19897 10.0603 6.19897C10.5463 6.19897 10.9738 6.28908 11.3458 6.4678C11.7178 6.64651 12.0043 6.8898 12.2068 7.19917C12.4093 7.50704 12.5113 7.84195 12.5113 8.20388C12.5113 8.48622 12.4543 8.73552 12.3373 8.95028ZM10.4623 14.1014C10.3108 14.235 10.1368 14.3026 9.94026 14.3026C9.73626 14.3026 9.55776 14.2365 9.40476 14.1044C9.25176 13.9722 9.17676 13.7875 9.17676 13.5502C9.17676 13.3399 9.25026 13.1612 9.39726 13.0171C9.54426 12.8729 9.72576 12.8008 9.94026 12.8008C10.1518 12.8008 10.3288 12.8729 10.4728 13.0171C10.6168 13.1612 10.6888 13.3384 10.6888 13.5502C10.6888 13.783 10.6123 13.9677 10.4623 14.1014Z" fill="#C0C0C0"/>
</svg>
