<svg width="20" height="20" viewBox="0 0 20 20" fill="none" xmlns="http://www.w3.org/2000/svg">
<path fill-rule="evenodd" clip-rule="evenodd" d="M16.5 10C16.5 13.5899 13.5899 16.5 10 16.5C6.41015 16.5 3.5 13.5899 3.5 10C3.5 6.41015 6.41015 3.5 10 3.5C13.5899 3.5 16.5 6.41015 16.5 10ZM18 10C18 14.4183 14.4183 18 10 18C5.58172 18 2 14.4183 2 10C2 5.58172 5.58172 2 10 2C14.4183 2 18 5.58172 18 10ZM10.0833 5.375C8.58756 5.375 7.375 6.58756 7.375 8.08333H8.625C8.625 7.27792 9.27792 6.625 10.0833 6.625C10.8887 6.625 11.5417 7.27792 11.5417 8.08333C11.5417 8.88875 10.8887 9.54167 10.0833 9.54167V9.54169H9.45831V12.1806H10.7083V10.7192C11.9028 10.4371 12.7917 9.364 12.7917 8.08333C12.7917 6.58756 11.5791 5.375 10.0833 5.375ZM10.0833 14.3334C10.5436 14.3334 10.9167 13.9603 10.9167 13.5C10.9167 13.0398 10.5436 12.6667 10.0833 12.6667C9.6231 12.6667 9.25 13.0398 9.25 13.5C9.25 13.9603 9.6231 14.3334 10.0833 14.3334Z" fill="#333333"/>
</svg>
