<svg width="20" height="20" viewBox="0 0 20 20" fill="none" xmlns="http://www.w3.org/2000/svg">
<path fill-rule="evenodd" clip-rule="evenodd" d="M10.75 11.2818C11.3579 11.2327 11.9492 11.1243 12.518 10.9625L12.9423 12.1285L13.1988 12.8333L14.6084 12.3203L14.3519 11.6155L13.9222 10.4349C14.2919 10.2601 14.6481 10.0613 14.9887 9.84068L15.5239 10.5257L15.9856 11.1167L17.1677 10.1932L16.7059 9.60216L16.1771 8.92538C16.6074 8.53437 17.0004 8.10316 17.35 7.63773L16.1507 6.73682C15.8121 7.18759 15.4252 7.59983 14.9978 7.96589L14.4497 8.39415C13.1936 9.28737 11.6581 9.812 9.99992 9.812C8.34207 9.812 6.80683 9.28757 5.55084 8.39464L5.00138 7.96535C4.58151 7.60565 4.20079 7.20138 3.86648 6.75978L2.67053 7.66515C3.01496 8.12012 3.4009 8.54209 3.82273 8.92542L3.294 9.60216L2.83225 10.1932L4.01427 11.1167L4.47602 10.5257L5.01116 9.84071C5.35179 10.0614 5.70798 10.2601 6.07772 10.4349L5.64803 11.6155L5.39152 12.3203L6.80106 12.8333L7.05757 12.1285L7.48195 10.9626C8.05071 11.1243 8.64197 11.2327 9.24995 11.2818V12.4745V13.2245H10.75V12.4745V11.2818Z" fill="#333333"/>
</svg>
