<svg width="20" height="20" viewBox="0 0 20 20" fill="none" xmlns="http://www.w3.org/2000/svg">
<path d="M0.916297 5.24238C0.349064 5.57142 0 6.17705 0 6.83218V16.2967C0 16.5433 0.131845 16.7711 0.34578 16.8941L4.98645 19.5594C5.0876 19.6139 5.18739 19.6304 5.18739 19.6304L5.18743 10.1411C5.18743 9.49111 5.53099 8.8895 6.09111 8.55863L11.0695 5.65032L14.6377 3.59282C14.6314 3.58198 14.6269 3.57519 14.6254 3.57294L14.6302 3.57011C14.6302 3.57011 14.5496 3.43182 14.4204 3.35623C14.3718 3.32786 13.5564 2.85834 12.5963 2.30558L12.5929 2.30361C11.4648 1.65406 10.1381 0.890241 9.6218 0.592251C9.40763 0.46864 9.14451 0.469441 8.93062 0.593519L0.916297 5.24238Z" fill="currentColor"/>
<path d="M14.7826 5.1377L10.8615 7.39574V10.6148C10.8615 11.2656 10.5169 11.8681 9.95521 12.1992L6.59424 14.157V19.0507C8.34594 18.0384 12.1226 15.8557 13.8661 14.8479C14.4357 14.5188 14.7826 13.9184 14.7826 13.2618V5.1377Z" fill="currentColor"/>
<path d="M17.1377 19.1231C18.7185 19.1231 20 17.8416 20 16.2608C20 14.6799 18.7185 13.3984 17.1377 13.3984C15.5569 13.3984 14.2754 14.6799 14.2754 16.2608C14.2754 17.8416 15.5569 19.1231 17.1377 19.1231Z" fill="currentColor"/>
</svg>
