<svg width="20" height="20" viewBox="0 0 20 20" fill="none" xmlns="http://www.w3.org/2000/svg">
<path fill-rule="evenodd" clip-rule="evenodd" d="M9.97307 2C9.45265 2 9.03076 2.42189 9.03076 2.94231V3.31923C9.03076 3.40422 9.04201 3.48658 9.06311 3.56491C6.90798 3.91035 5.26145 5.77827 5.26145 8.03077L5.26145 10.2923L3.5454 13.7244C3.29479 14.2256 3.65927 14.8154 4.21966 14.8154L7.52295 14.8154C7.52295 16.0644 8.53547 17.0769 9.78449 17.0769C11.0335 17.0769 12.046 16.0644 12.046 14.8154L15.3494 14.8154C15.9098 14.8154 16.2743 14.2256 16.0237 13.7244L14.3076 10.2923V8.03077C14.3076 5.90356 12.8391 4.11933 10.8606 3.63648C10.8961 3.53735 10.9154 3.43054 10.9154 3.31923V2.94231C10.9154 2.42189 10.4935 2 9.97307 2ZM6.76145 10.6464L6.60309 10.9631L5.42696 13.3154H14.1421L12.966 10.9631L12.8076 10.6464V10.2923V8.03077C12.8076 6.36117 11.4541 5.00769 9.78453 5.00769C8.11493 5.00769 6.76145 6.36117 6.76145 8.03077V10.2923L6.76145 10.6464ZM9.78449 15.8519C9.21202 15.8519 8.74795 15.3878 8.74795 14.8154H10.821C10.821 15.3878 10.357 15.8519 9.78449 15.8519Z" fill="white"/>
</svg>
