<svg width="20" height="20" viewBox="0 0 20 20" fill="none" xmlns="http://www.w3.org/2000/svg">
<path fill-rule="evenodd" clip-rule="evenodd" d="M9.03076 2.94231C9.03076 2.42189 9.45265 2 9.97307 2C10.4935 2 10.9154 2.42189 10.9154 2.94231V3.31923C10.9154 3.43054 10.8961 3.53735 10.8606 3.63648C12.8391 4.11933 14.3076 5.90356 14.3076 8.03077V10.2923L16.0237 13.7244C16.2743 14.2256 15.9098 14.8154 15.3494 14.8154H4.21966C3.65927 14.8154 3.29479 14.2256 3.5454 13.7244L5.26145 10.2923L5.26145 8.03077C5.26145 5.77827 6.90798 3.91035 9.06311 3.56491C9.04201 3.48658 9.03076 3.40422 9.03076 3.31923V2.94231ZM9.78439 17.5769C8.59753 17.5769 7.62421 16.6627 7.53027 15.5H12.0385C11.9446 16.6627 10.9712 17.5769 9.78439 17.5769Z" fill="white"/>
</svg>
