<svg width="20" height="20" viewBox="0 0 20 20" fill="none" xmlns="http://www.w3.org/2000/svg">
<path d="M12.2461 13.5898H5.55371V12.4482L8.86914 8.83203C9.34766 8.29883 9.68717 7.85449 9.8877 7.49902C10.0928 7.139 10.1953 6.77897 10.1953 6.41895C10.1953 5.94499 10.0609 5.56217 9.79199 5.27051C9.52767 4.97884 9.16992 4.83301 8.71875 4.83301C8.18099 4.83301 7.764 4.99707 7.46777 5.3252C7.17155 5.65332 7.02344 6.10221 7.02344 6.67188H5.3623C5.3623 6.06576 5.49902 5.52116 5.77246 5.03809C6.05046 4.55046 6.44466 4.1722 6.95508 3.90332C7.47005 3.63444 8.0625 3.5 8.73242 3.5C9.69857 3.5 10.4596 3.74382 11.0156 4.23145C11.5762 4.71452 11.8564 5.38444 11.8564 6.24121C11.8564 6.73796 11.7152 7.25977 11.4326 7.80664C11.1546 8.34896 10.6966 8.96647 10.0586 9.65918L7.625 12.2637H12.2461V13.5898Z" fill="#333333"/>
<path d="M4.59473 13.5898H2.94043V5.59863L0.5 6.43262V5.03125L4.38281 3.60254H4.59473V13.5898Z" fill="#333333"/>
<path d="M15.4434 7.85449H14.4316V9.16699H15.4092C16.0199 9.16699 16.4801 9.30827 16.79 9.59082C17.0999 9.87337 17.2549 10.2767 17.2549 10.8008C17.2549 11.3203 17.1068 11.7168 16.8105 11.9902C16.5143 12.2637 16.1087 12.4004 15.5938 12.4004C15.097 12.4004 14.7005 12.2637 14.4043 11.9902C14.1126 11.7168 13.9668 11.3613 13.9668 10.9238H12.3057C12.3057 11.7715 12.611 12.4505 13.2217 12.9609C13.8324 13.4714 14.6162 13.7266 15.5732 13.7266C16.5713 13.7266 17.3757 13.4622 17.9863 12.9336C18.6016 12.4049 18.9092 11.694 18.9092 10.8008C18.9092 10.2448 18.7656 9.76628 18.4785 9.36523C18.196 8.96419 17.7812 8.67025 17.2344 8.4834C17.6855 8.28288 18.0524 7.98665 18.335 7.59473C18.6221 7.19824 18.7656 6.77669 18.7656 6.33008C18.7656 5.44141 18.4808 4.7487 17.9111 4.25195C17.346 3.75065 16.5667 3.5 15.5732 3.5C14.9717 3.5 14.4271 3.61849 13.9395 3.85547C13.4564 4.08789 13.0781 4.41374 12.8047 4.83301C12.5358 5.25228 12.4014 5.71712 12.4014 6.22754H14.0625C14.0625 5.81283 14.2061 5.47786 14.4932 5.22266C14.7803 4.96289 15.1471 4.83301 15.5938 4.83301C16.1042 4.83301 16.4824 4.96517 16.7285 5.22949C16.9792 5.48926 17.1045 5.85612 17.1045 6.33008C17.1045 6.82227 16.9541 7.19824 16.6533 7.45801C16.3571 7.71777 15.9538 7.84994 15.4434 7.85449Z" fill="#333333"/>
<path d="M0.851562 16.5898H18.8516V15.0898H0.851562V16.5898Z" fill="#333333"/>
</svg>
