<svg width="20" height="20" viewBox="0 0 20 20" fill="none" xmlns="http://www.w3.org/2000/svg">
<path d="M5 6.5H7V8H5V6.5Z" fill="#333333"/>
<path d="M7 9.5H5V11H7V9.5Z" fill="#333333"/>
<path d="M8 6.5H15V8H8V6.5Z" fill="#333333"/>
<path d="M15 9.5H8V11H15V9.5Z" fill="#333333"/>
<path d="M5 12.5H7V14H5V12.5Z" fill="#333333"/>
<path d="M15 12.5H8V14H15V12.5Z" fill="#333333"/>
<path fill-rule="evenodd" clip-rule="evenodd" d="M3.5 3C2.94772 3 2.5 3.44772 2.5 4V16C2.5 16.5523 2.94772 17 3.5 17H16.5C17.0523 17 17.5 16.5523 17.5 16V4C17.5 3.44772 17.0523 3 16.5 3H3.5ZM4 4.5V15.5H16V4.5H4Z" fill="#333333"/>
</svg>
