<svg width="20" height="20" viewBox="0 0 20 20" fill="none" xmlns="http://www.w3.org/2000/svg">
<path d="M14 6.5H6V4.5H14V6.5Z" fill="#333333"/>
<path d="M6 10H11V8H6V10Z" fill="#333333"/>
<path fill-rule="evenodd" clip-rule="evenodd" d="M3.5 1C2.94772 1 2.5 1.44772 2.5 2V17.2939C2.5 18.0579 3.32202 18.5397 3.9886 18.1664L9.5114 15.0736C9.81495 14.9036 10.185 14.9036 10.4886 15.0736L16.0114 18.1664C16.678 18.5397 17.5 18.0579 17.5 17.2939V2C17.5 1.44772 17.0523 1 16.5 1H3.5ZM4 2.5V16.4408L8.77849 13.7649C9.53739 13.3399 10.4626 13.3399 11.2215 13.7649L16 16.4408V2.5H4Z" fill="#333333"/>
</svg>
