<svg width="20" height="20" viewBox="0 0 20 20" fill="none" xmlns="http://www.w3.org/2000/svg">
<path fill-rule="evenodd" clip-rule="evenodd" d="M6.07679 4.09213C6.03681 4.04416 5.96313 4.04416 5.92315 4.09213L3.63665 6.83593C3.58237 6.90106 3.62869 6.99995 3.71347 6.99995H5.24997V7.49995V12.4999V12.9999H3.71347C3.62869 12.9999 3.58237 13.0988 3.63665 13.164L5.92315 15.9078C5.96313 15.9557 6.03681 15.9557 6.07679 15.9078L8.36329 13.164C8.41756 13.0988 8.37125 12.9999 8.28646 12.9999H6.74997V12.4999V7.49995V6.99995H8.28646C8.37125 6.99995 8.41756 6.90106 8.36329 6.83593L6.07679 4.09213ZM9.99997 5.74995H9.24997V7.24995H9.99997H16H16.75V5.74995H16H9.99997ZM9.24997 9.24995H9.99997H16H16.75V10.7499H16H9.99997H9.24997V9.24995ZM9.99997 12.7499H9.24997V14.2499H9.99997H13H13.75V12.7499H13H9.99997Z" fill="#333333"/>
</svg>
