<svg width="20" height="20" viewBox="0 0 20 20" fill="none" xmlns="http://www.w3.org/2000/svg">
<path fill-rule="evenodd" clip-rule="evenodd" d="M6.5 6H4.5V8H6.5V6ZM4.5 4.5C3.67157 4.5 3 5.17157 3 6V8C3 8.82843 3.67157 9.5 4.5 9.5H6.5C7.32843 9.5 8 8.82843 8 8V6C8 5.17157 7.32843 4.5 6.5 4.5H4.5ZM6.5 12H4.5V14H6.5V12ZM4.5 10.5C3.67157 10.5 3 11.1716 3 12V14C3 14.8284 3.67157 15.5 4.5 15.5H6.5C7.32843 15.5 8 14.8284 8 14V12C8 11.1716 7.32843 10.5 6.5 10.5H4.5ZM10.5 5.25H9.75V6.75H10.5H17H17.75V5.25H17H10.5ZM9.75 9.25H10.5H17H17.75V10.75H17H10.5H9.75V9.25ZM10.5 13.25H9.75V14.75H10.5H17H17.75V13.25H17H10.5Z" fill="#333333"/>
</svg>
