<svg width="20" height="20" viewBox="0 0 20 20" fill="none" xmlns="http://www.w3.org/2000/svg">
<path fill-rule="evenodd" clip-rule="evenodd" d="M6.5 3.5C7.43768 3.5 8.3 3.82265 8.982 4.36298C9.39537 4.69047 9.74249 5.09794 10 5.562C10.2575 5.09794 10.6046 4.69047 11.018 4.36298C11.7 3.82265 12.5623 3.5 13.5 3.5H16H17.5V5V15V16.5H16H11.6643C12.1131 16.1368 12.4194 15.6045 12.4863 15H16V5H13.5C12.5607 5 11.7402 5.51736 11.3116 6.2898L10.75 7.30188V10.5V11.25H9.25V10.5V7.30188L8.6884 6.2898C8.25977 5.51736 7.43927 5 6.5 5H4V15H8.01367H8.01373H9.02494C9.14076 15.5706 9.6452 16 10.2499 16C10.8547 16 11.3591 15.5706 11.4749 15H12.4862C12.3618 16.125 11.4081 17 10.2499 17C9.71412 17 9.22204 16.8127 8.83561 16.5H4H2.5V15V5V3.5H4H6.5Z" fill="#333333"/>
</svg>
