<svg width="20" height="20" viewBox="0 0 20 20" fill="none" xmlns="http://www.w3.org/2000/svg">
<rect opacity="0.01" width="20" height="20" fill="#D8D8D8"/>
<path fill-rule="evenodd" clip-rule="evenodd" d="M4.16663 2.9165C11.0702 2.9165 16.6666 8.51294 16.6666 15.4165H15C15 9.43342 10.1497 4.58317 4.16663 4.58317V2.9165ZM4.16663 7.5C8.72348 7.5 12.5 11.0002 12.5 15.4167H10.8333C10.8333 12.0091 7.89404 9.16667 4.16663 9.16667V7.5ZM5.83329 15.8332C6.75377 15.8332 7.49996 15.087 7.49996 14.1665C7.49996 13.246 6.75377 12.4998 5.83329 12.4998C4.91282 12.4998 4.16663 13.246 4.16663 14.1665C4.16663 15.087 4.91282 15.8332 5.83329 15.8332Z" fill="#999999"/>
</svg>
