<svg width="20" height="20" viewBox="0 0 20 20" fill="none" xmlns="http://www.w3.org/2000/svg">
<path d="M12.8 15V15.75H13.55V15H12.8ZM4 15H3.25V15.75H4V15ZM14.0834 10.8096V10.0596L14.0821 10.0596L14.0834 10.8096ZM16.2833 15V15.75H17.0333V15H16.2833ZM13.472 15V14.25L13.4715 14.25L13.472 15ZM12.3102 11.3964L12.8175 10.8439L12.8088 10.8362L12.3102 11.3964ZM12.2284 11.0527L11.5351 10.7667L11.535 10.7671L12.2284 11.0527ZM12.5339 10.8542L12.5348 11.6042L12.5552 11.6042L12.5755 11.603L12.5339 10.8542ZM11.3205 10.2402L11.4414 9.50005L11.4375 9.49943L11.3205 10.2402ZM10.9899 9.26917L11.5099 9.80969L11.5156 9.80414L10.9899 9.26917ZM11.0023 5.00504L11.5393 4.4815L11.5305 4.47246L11.5214 4.46373L11.0023 5.00504ZM11.3232 4.06197L11.4384 4.80307L11.4744 4.79747L11.5097 4.7884L11.3232 4.06197ZM10.6 11.5596C11.4358 11.5596 12.05 12.1959 12.05 12.9047H13.55C13.55 11.2992 12.1942 10.0596 10.6 10.0596V11.5596ZM12.05 12.9047V15H13.55V12.9047H12.05ZM12.8 14.25H4V15.75H12.8V14.25ZM4.75 15V12.9047H3.25V15H4.75ZM4.75 12.9047C4.75 12.1959 5.36426 11.5596 6.20006 11.5596V10.0596C4.60581 10.0596 3.25 11.2992 3.25 12.9047H4.75ZM6.20006 11.5596H10.6V10.0596H6.20006V11.5596ZM14.0834 11.5596C14.9191 11.5596 15.5333 12.1959 15.5333 12.9047H17.0333C17.0333 11.2993 15.6777 10.0596 14.0834 10.0596V11.5596ZM15.5333 12.9047V15H17.0333V12.9047H15.5333ZM16.2833 14.25H13.472V15.75H16.2833V14.25ZM13.4715 14.25C13.5816 14.2499 13.7333 14.3437 13.7333 14.5346H12.2333C12.2333 15.2398 12.8227 15.7504 13.4724 15.75L13.4715 14.25ZM13.7333 14.5346C13.7333 14.5334 13.7333 14.5322 13.7333 14.531C13.7333 14.5298 13.7333 14.5286 13.7333 14.5274C13.7333 14.5261 13.7333 14.5249 13.7333 14.5237C13.7333 14.5225 13.7333 14.5213 13.7333 14.5201C13.7333 14.5189 13.7333 14.5176 13.7333 14.5164C13.7333 14.5152 13.7333 14.514 13.7333 14.5127C13.7333 14.5115 13.7333 14.5103 13.7333 14.5091C13.7333 14.5078 13.7333 14.5066 13.7333 14.5054C13.7333 14.5042 13.7333 14.5029 13.7333 14.5017C13.7333 14.5005 13.7333 14.4992 13.7333 14.498C13.7333 14.4968 13.7333 14.4955 13.7333 14.4943C13.7333 14.4931 13.7333 14.4918 13.7333 14.4906C13.7333 14.4893 13.7333 14.4881 13.7333 14.4868C13.7333 14.4856 13.7333 14.4844 13.7333 14.4831C13.7333 14.4819 13.7333 14.4806 13.7333 14.4794C13.7333 14.4781 13.7333 14.4769 13.7333 14.4756C13.7333 14.4744 13.7333 14.4731 13.7333 14.4719C13.7333 14.4706 13.7333 14.4694 13.7333 14.4681C13.7333 14.4668 13.7333 14.4656 13.7333 14.4643C13.7333 14.4631 13.7333 14.4618 13.7333 14.4605C13.7333 14.4593 13.7333 14.458 13.7333 14.4568C13.7333 14.4555 13.7333 14.4542 13.7333 14.453C13.7333 14.4517 13.7333 14.4504 13.7333 14.4492C13.7333 14.4479 13.7333 14.4466 13.7333 14.4453C13.7333 14.4441 13.7333 14.4428 13.7333 14.4415C13.7333 14.4402 13.7333 14.439 13.7333 14.4377C13.7333 14.4364 13.7333 14.4351 13.7333 14.4339C13.7333 14.4326 13.7333 14.4313 13.7333 14.43C13.7333 14.4287 13.7333 14.4274 13.7333 14.4262C13.7333 14.4249 13.7333 14.4236 13.7333 14.4223C13.7333 14.421 13.7333 14.4197 13.7333 14.4184C13.7333 14.4172 13.7333 14.4159 13.7333 14.4146C13.7333 14.4133 13.7333 14.412 13.7333 14.4107C13.7333 14.4094 13.7333 14.4081 13.7333 14.4068C13.7333 14.4055 13.7333 14.4042 13.7333 14.4029C13.7333 14.4016 13.7333 14.4003 13.7333 14.399C13.7333 14.3977 13.7333 14.3964 13.7333 14.3951C13.7333 14.3938 13.7333 14.3925 13.7333 14.3912C13.7333 14.3899 13.7333 14.3886 13.7333 14.3873C13.7333 14.386 13.7333 14.3847 13.7333 14.3834C13.7333 14.382 13.7333 14.3807 13.7333 14.3794C13.7333 14.3781 13.7333 14.3768 13.7333 14.3755C13.7333 14.3742 13.7333 14.3729 13.7333 14.3715C13.7333 14.3702 13.7333 14.3689 13.7333 14.3676C13.7333 14.3663 13.7333 14.365 13.7333 14.3636C13.7333 14.3623 13.7333 14.361 13.7333 14.3597C13.7333 14.3583 13.7333 14.357 13.7333 14.3557C13.7333 14.3544 13.7333 14.3531 13.7333 14.3517C13.7333 14.3504 13.7333 14.3491 13.7333 14.3477C13.7333 14.3464 13.7333 14.3451 13.7333 14.3438C13.7333 14.3424 13.7333 14.3411 13.7333 14.3398C13.7333 14.3384 13.7333 14.3371 13.7333 14.3358C13.7333 14.3344 13.7333 14.3331 13.7333 14.3318C13.7333 14.3304 13.7333 14.3291 13.7333 14.3277C13.7333 14.3264 13.7333 14.3251 13.7333 14.3237C13.7333 14.3224 13.7333 14.321 13.7333 14.3197C13.7333 14.3184 13.7333 14.317 13.7333 14.3157C13.7333 14.3143 13.7333 14.313 13.7333 14.3116C13.7333 14.3103 13.7333 14.309 13.7333 14.3076C13.7333 14.3063 13.7333 14.3049 13.7333 14.3036C13.7333 14.3022 13.7333 14.3009 13.7333 14.2995C13.7333 14.2982 13.7333 14.2968 13.7333 14.2955C13.7333 14.2941 13.7333 14.2928 13.7333 14.2914C13.7333 14.29 13.7333 14.2887 13.7333 14.2873C13.7333 14.286 13.7333 14.2846 13.7333 14.2833C13.7333 14.2819 13.7333 14.2805 13.7333 14.2792C13.7333 14.2778 13.7333 14.2765 13.7333 14.2751C13.7333 14.2737 13.7333 14.2724 13.7333 14.271C13.7333 14.2697 13.7333 14.2683 13.7333 14.2669C13.7333 14.2656 13.7333 14.2642 13.7333 14.2628C13.7333 14.2615 13.7333 14.2601 13.7333 14.2587C13.7333 14.2574 13.7333 14.256 13.7333 14.2546C13.7333 14.2533 13.7333 14.2519 13.7333 14.2505C13.7333 14.2492 13.7333 14.2478 13.7333 14.2464C13.7333 14.2451 13.7333 14.2437 13.7333 14.2423C13.7333 14.2409 13.7333 14.2396 13.7333 14.2382C13.7333 14.2368 13.7333 14.2354 13.7333 14.2341C13.7333 14.2327 13.7333 14.2313 13.7333 14.2299C13.7333 14.2286 13.7333 14.2272 13.7333 14.2258C13.7333 14.2244 13.7333 14.223 13.7333 14.2217C13.7333 14.2203 13.7333 14.2189 13.7333 14.2175C13.7333 14.2161 13.7333 14.2148 13.7333 14.2134C13.7333 14.212 13.7333 14.2106 13.7333 14.2092C13.7333 14.2078 13.7333 14.2065 13.7333 14.2051C13.7333 14.2037 13.7333 14.2023 13.7333 14.2009C13.7333 14.1995 13.7333 14.1981 13.7333 14.1968C13.7333 14.1954 13.7333 14.194 13.7333 14.1926C13.7333 14.1912 13.7333 14.1898 13.7333 14.1884C13.7333 14.187 13.7333 14.1856 13.7333 14.1842C13.7333 14.1829 13.7333 14.1815 13.7333 14.1801C13.7333 14.1787 13.7333 14.1773 13.7333 14.1759C13.7333 14.1745 13.7333 14.1731 13.7333 14.1717C13.7333 14.1703 13.7333 14.1689 13.7333 14.1675C13.7333 14.1661 13.7333 14.1647 13.7333 14.1633C13.7333 14.1619 13.7333 14.1605 13.7333 14.1592C13.7333 14.1578 13.7333 14.1564 13.7333 14.155C13.7333 14.1536 13.7333 14.1522 13.7333 14.1508C13.7333 14.1494 13.7333 14.148 13.7333 14.1466C13.7333 14.1452 13.7333 14.1438 13.7333 14.1424C13.7333 14.141 13.7333 14.1396 13.7333 14.1382C13.7333 14.1367 13.7333 14.1353 13.7333 14.1339C13.7333 14.1325 13.7333 14.1311 13.7333 14.1297C13.7333 14.1283 13.7333 14.1269 13.7333 14.1255C13.7333 14.1241 13.7333 14.1227 13.7333 14.1213C13.7333 14.1199 13.7333 14.1185 13.7333 14.1171C13.7333 14.1157 13.7333 14.1143 13.7333 14.1129C13.7333 14.1115 13.7333 14.11 13.7333 14.1086C13.7333 14.1072 13.7333 14.1058 13.7333 14.1044C13.7333 14.103 13.7333 14.1016 13.7333 14.1002C13.7333 14.0988 13.7333 14.0974 13.7333 14.096C13.7333 14.0945 13.7333 14.0931 13.7333 14.0917C13.7333 14.0903 13.7333 14.0889 13.7333 14.0875C13.7333 14.0861 13.7333 14.0847 13.7333 14.0833C13.7333 14.0818 13.7333 14.0804 13.7333 14.079C13.7333 14.0776 13.7333 14.0762 13.7333 14.0748C13.7333 14.0734 13.7333 14.0719 13.7333 14.0705C13.7333 14.0691 13.7333 14.0677 13.7333 14.0663C13.7333 14.0649 13.7333 14.0635 13.7333 14.062C13.7333 14.0606 13.7333 14.0592 13.7333 14.0578C13.7333 14.0564 13.7333 14.055 13.7333 14.0535C13.7333 14.0521 13.7333 14.0507 13.7333 14.0493C13.7333 14.0479 13.7333 14.0465 13.7333 14.045C13.7333 14.0436 13.7333 14.0422 13.7333 14.0408C13.7333 14.0394 13.7333 14.038 13.7333 14.0365C13.7333 14.0351 13.7333 14.0337 13.7333 14.0323C13.7333 14.0309 13.7333 14.0294 13.7333 14.028C13.7333 14.0266 13.7333 14.0252 13.7333 14.0238C13.7333 14.0223 13.7333 14.0209 13.7333 14.0195C13.7333 14.0181 13.7333 14.0167 13.7333 14.0152C13.7333 14.0138 13.7333 14.0124 13.7333 14.011C13.7333 14.0096 13.7333 14.0081 13.7333 14.0067C13.7333 14.0053 13.7333 14.0039 13.7333 14.0025C13.7333 14.001 13.7333 13.9996 13.7333 13.9982C13.7333 13.9968 13.7333 13.9954 13.7333 13.9939C13.7333 13.9925 13.7333 13.9911 13.7333 13.9897C13.7333 13.9882 13.7333 13.9868 13.7333 13.9854C13.7333 13.984 13.7333 13.9826 13.7333 13.9811C13.7333 13.9797 13.7333 13.9783 13.7333 13.9769C13.7333 13.9754 13.7333 13.974 13.7333 13.9726C13.7333 13.9712 13.7333 13.9698 13.7333 13.9683C13.7333 13.9669 13.7333 13.9655 13.7333 13.9641C13.7333 13.9626 13.7333 13.9612 13.7333 13.9598C13.7333 13.9584 13.7333 13.957 13.7333 13.9555C13.7333 13.9541 13.7333 13.9527 13.7333 13.9513C13.7333 13.9498 13.7333 13.9484 13.7333 13.947C13.7333 13.9456 13.7333 13.9442 13.7333 13.9427C13.7333 13.9413 13.7333 13.9399 13.7333 13.9385C13.7333 13.937 13.7333 13.9356 13.7333 13.9342C13.7333 13.9328 13.7333 13.9314 13.7333 13.9299C13.7333 13.9285 13.7333 13.9271 13.7333 13.9257C13.7333 13.9242 13.7333 13.9228 13.7333 13.9214C13.7333 13.92 13.7333 13.9186 13.7333 13.9171C13.7333 13.9157 13.7333 13.9143 13.7333 13.9129C13.7333 13.9114 13.7333 13.91 13.7333 13.9086C13.7333 13.9072 13.7333 13.9058 13.7333 13.9043C13.7333 13.9029 13.7333 13.9015 13.7333 13.9001C13.7333 13.8987 13.7333 13.8972 13.7333 13.8958C13.7333 13.8944 13.7333 13.893 13.7333 13.8916C13.7333 13.8901 13.7333 13.8887 13.7333 13.8873C13.7333 13.8859 13.7333 13.8845 13.7333 13.883C13.7333 13.8816 13.7333 13.8802 13.7333 13.8788C13.7333 13.8774 13.7333 13.8759 13.7333 13.8745C13.7333 13.8731 13.7333 13.8717 13.7333 13.8703C13.7333 13.8688 13.7333 13.8674 13.7333 13.866C13.7333 13.8646 13.7333 13.8632 13.7333 13.8618C13.7333 13.8603 13.7333 13.8589 13.7333 13.8575C13.7333 13.8561 13.7333 13.8547 13.7333 13.8533C13.7333 13.8518 13.7333 13.8504 13.7333 13.849C13.7333 13.8476 13.7333 13.8462 13.7333 13.8448C13.7333 13.8433 13.7333 13.8419 13.7333 13.8405C13.7333 13.8391 13.7333 13.8377 13.7333 13.8363C13.7333 13.8348 13.7333 13.8334 13.7333 13.832C13.7333 13.8306 13.7333 13.8292 13.7333 13.8278C13.7333 13.8264 13.7333 13.825 13.7333 13.8235C13.7333 13.8221 13.7333 13.8207 13.7333 13.8193C13.7333 13.8179 13.7333 13.8165 13.7333 13.8151C13.7333 13.8137 13.7333 13.8122 13.7333 13.8108C13.7333 13.8094 13.7333 13.808 13.7333 13.8066C13.7333 13.8052 13.7333 13.8038 13.7333 13.8024C13.7333 13.801 13.7333 13.7996 13.7333 13.7981C13.7333 13.7967 13.7333 13.7953 13.7333 13.7939C13.7333 13.7925 13.7333 13.7911 13.7333 13.7897C13.7333 13.7883 13.7333 13.7869 13.7333 13.7855C13.7333 13.7841 13.7333 13.7827 13.7333 13.7813C13.7333 13.7799 13.7333 13.7785 13.7333 13.777C13.7333 13.7756 13.7333 13.7742 13.7333 13.7728C13.7333 13.7714 13.7333 13.77 13.7333 13.7686C13.7333 13.7672 13.7333 13.7658 13.7333 13.7644C13.7333 13.763 13.7333 13.7616 13.7333 13.7602C13.7333 13.7588 13.7333 13.7574 13.7333 13.756C13.7333 13.7546 13.7333 13.7532 13.7333 13.7518C13.7333 13.7504 13.7333 13.749 13.7333 13.7476C13.7333 13.7462 13.7333 13.7448 13.7333 13.7434C13.7333 13.742 13.7333 13.7406 13.7333 13.7392C13.7333 13.7378 13.7333 13.7364 13.7333 13.735C13.7333 13.7337 13.7333 13.7323 13.7333 13.7309C13.7333 13.7295 13.7333 13.7281 13.7333 13.7267C13.7333 13.7253 13.7333 13.7239 13.7333 13.7225C13.7333 13.7211 13.7333 13.7197 13.7333 13.7183C13.7333 13.7169 13.7333 13.7156 13.7333 13.7142C13.7333 13.7128 13.7333 13.7114 13.7333 13.71C13.7333 13.7086 13.7333 13.7072 13.7333 13.7058C13.7333 13.7045 13.7333 13.7031 13.7333 13.7017C13.7333 13.7003 13.7333 13.6989 13.7333 13.6975C13.7333 13.6961 13.7333 13.6948 13.7333 13.6934C13.7333 13.692 13.7333 13.6906 13.7333 13.6892C13.7333 13.6878 13.7333 13.6865 13.7333 13.6851C13.7333 13.6837 13.7333 13.6823 13.7333 13.6809C13.7333 13.6796 13.7333 13.6782 13.7333 13.6768C13.7333 13.6754 13.7333 13.6741 13.7333 13.6727C13.7333 13.6713 13.7333 13.6699 13.7333 13.6685C13.7333 13.6672 13.7333 13.6658 13.7333 13.6644C13.7333 13.6631 13.7333 13.6617 13.7333 13.6603C13.7333 13.6589 13.7333 13.6576 13.7333 13.6562C13.7333 13.6548 13.7333 13.6535 13.7333 13.6521C13.7333 13.6507 13.7333 13.6493 13.7333 13.648C13.7333 13.6466 13.7333 13.6452 13.7333 13.6439C13.7333 13.6425 13.7333 13.6411 13.7333 13.6398C13.7333 13.6384 13.7333 13.6371 13.7333 13.6357C13.7333 13.6343 13.7333 13.633 13.7333 13.6316C13.7333 13.6302 13.7333 13.6289 13.7333 13.6275C13.7333 13.6262 13.7333 13.6248 13.7333 13.6234C13.7333 13.6221 13.7333 13.6207 13.7333 13.6194C13.7333 13.618 13.7333 13.6167 13.7333 13.6153C13.7333 13.614 13.7333 13.6126 13.7333 13.6112C13.7333 13.6099 13.7333 13.6085 13.7333 13.6072C13.7333 13.6058 13.7333 13.6045 13.7333 13.6031C13.7333 13.6018 13.7333 13.6004 13.7333 13.5991C13.7333 13.5977 13.7333 13.5964 13.7333 13.595C13.7333 13.5937 13.7333 13.5924 13.7333 13.591C13.7333 13.5897 13.7333 13.5883 13.7333 13.587C13.7333 13.5856 13.7333 13.5843 13.7333 13.583C13.7333 13.5816 13.7333 13.5803 13.7333 13.5789C13.7333 13.5776 13.7333 13.5763 13.7333 13.5749C13.7333 13.5736 13.7333 13.5722 13.7333 13.5709C13.7333 13.5696 13.7333 13.5682 13.7333 13.5669C13.7333 13.5656 13.7333 13.5642 13.7333 13.5629C13.7333 13.5616 13.7333 13.5603 13.7333 13.5589C13.7333 13.5576 13.7333 13.5563 13.7333 13.5549C13.7333 13.5536 13.7333 13.5523 13.7333 13.551C13.7333 13.5496 13.7333 13.5483 13.7333 13.547C13.7333 13.5457 13.7333 13.5443 13.7333 13.543C13.7333 13.5417 13.7333 13.5404 13.7333 13.5391C13.7333 13.5377 13.7333 13.5364 13.7333 13.5351C13.7333 13.5338 13.7333 13.5325 13.7333 13.5312C13.7333 13.5298 13.7333 13.5285 13.7333 13.5272C13.7333 13.5259 13.7333 13.5246 13.7333 13.5233C13.7333 13.522 13.7333 13.5207 13.7333 13.5194C13.7333 13.518 13.7333 13.5167 13.7333 13.5154C13.7333 13.5141 13.7333 13.5128 13.7333 13.5115C13.7333 13.5102 13.7333 13.5089 13.7333 13.5076C13.7333 13.5063 13.7333 13.505 13.7333 13.5037C13.7333 13.5024 13.7333 13.5011 13.7333 13.4998C13.7333 13.4985 13.7333 13.4972 13.7333 13.4959C13.7333 13.4946 13.7333 13.4933 13.7333 13.492C13.7333 13.4908 13.7333 13.4895 13.7333 13.4882C13.7333 13.4869 13.7333 13.4856 13.7333 13.4843C13.7333 13.483 13.7333 13.4817 13.7333 13.4804C13.7333 13.4792 13.7333 13.4779 13.7333 13.4766C13.7333 13.4753 13.7333 13.474 13.7333 13.4727C13.7333 13.4715 13.7333 13.4702 13.7333 13.4689C13.7333 13.4676 13.7333 13.4663 13.7333 13.4651C13.7333 13.4638 13.7333 13.4625 13.7333 13.4612C13.7333 13.46 13.7333 13.4587 13.7333 13.4574C13.7333 13.4562 13.7333 13.4549 13.7333 13.4536C13.7333 13.4524 13.7333 13.4511 13.7333 13.4498C13.7333 13.4486 13.7333 13.4473 13.7333 13.446C13.7333 13.4448 13.7333 13.4435 13.7333 13.4422C13.7333 13.441 13.7333 13.4397 13.7333 13.4385C13.7333 13.4372 13.7333 13.436 13.7333 13.4347C13.7333 13.4334 13.7333 13.4322 13.7333 13.4309C13.7333 13.4297 13.7333 13.4284 13.7333 13.4272C13.7333 13.4259 13.7333 13.4247 13.7333 13.4234C13.7333 13.4222 13.7333 13.4209 13.7333 13.4197C13.7333 13.4185 13.7333 13.4172 13.7333 13.416C13.7333 13.4147 13.7333 13.4135 13.7333 13.4122C13.7333 13.411 13.7333 13.4098 13.7333 13.4085C13.7333 13.4073 13.7333 13.4061 13.7333 13.4048C13.7333 13.4036 13.7333 13.4024 13.7333 13.4011C13.7333 13.3999 13.7333 13.3987 13.7333 13.3974C13.7333 13.3962 13.7333 13.395 13.7333 13.3938C13.7333 13.3925 13.7333 13.3913 13.7333 13.3901C13.7333 13.3889 13.7333 13.3877 13.7333 13.3864C13.7333 13.3852 13.7333 13.384 13.7333 13.3828C13.7333 13.3816 13.7333 13.3804 13.7333 13.3791C13.7333 13.3779 13.7333 13.3767 13.7333 13.3755C13.7333 13.3743 13.7333 13.3731 13.7333 13.3719C13.7333 13.3707 13.7333 13.3695 13.7333 13.3683C13.7333 13.3671 13.7333 13.3659 13.7333 13.3647C13.7333 13.3635 13.7333 13.3623 13.7333 13.3611C13.7333 13.3599 13.7333 13.3587 13.7333 13.3575C13.7333 13.3563 13.7333 13.3551 13.7333 13.3539C13.7333 13.3527 13.7333 13.3515 13.7333 13.3503C13.7333 13.3491 13.7333 13.3479 13.7333 13.3468C13.7333 13.3456 13.7333 13.3444 13.7333 13.3432C13.7333 13.342 13.7333 13.3408 13.7333 13.3397C13.7333 13.3385 13.7333 13.3373 13.7333 13.3361C13.7333 13.335 13.7333 13.3338 13.7333 13.3326C13.7333 13.3314 13.7333 13.3303 13.7333 13.3291C13.7333 13.3279 13.7333 13.3268 13.7333 13.3256C13.7333 13.3244 13.7333 13.3233 13.7333 13.3221C13.7333 13.3209 13.7333 13.3198 13.7333 13.3186C13.7333 13.3174 13.7333 13.3163 13.7333 13.3151C13.7333 13.314 13.7333 13.3128 13.7333 13.3117C13.7333 13.3105 13.7333 13.3094 13.7333 13.3082C13.7333 13.3071 13.7333 13.3059 13.7333 13.3048C13.7333 13.3036 13.7333 13.3025 13.7333 13.3013C13.7333 13.3002 13.7333 13.2991 13.7333 13.2979C13.7333 13.2968 13.7333 13.2956 13.7333 13.2945C13.7333 13.2934 13.7333 13.2922 13.7333 13.2911C13.7333 13.29 13.7333 13.2888 13.7333 13.2877C13.7333 13.2866 13.7333 13.2855 13.7333 13.2843C13.7333 13.2832 13.7333 13.2821 13.7333 13.281C13.7333 13.2798 13.7333 13.2787 13.7333 13.2776C13.7333 13.2765 13.7333 13.2754 13.7333 13.2742C13.7333 13.2731 13.7333 13.272 13.7333 13.2709C13.7333 13.2698 13.7333 13.2687 13.7333 13.2676C13.7333 13.2665 13.7333 13.2654 13.7333 13.2643C13.7333 13.2632 13.7333 13.2621 13.7333 13.261C13.7333 13.2599 13.7333 13.2588 13.7333 13.2577C13.7333 13.2566 13.7333 13.2555 13.7333 13.2544C13.7333 13.2533 13.7333 13.2522 13.7333 13.2511C13.7333 13.25 13.7333 13.2489 13.7333 13.2478C13.7333 13.2468 13.7333 13.2457 13.7333 13.2446C13.7333 13.2435 13.7333 13.2424 13.7333 13.2413C13.7333 13.2403 13.7333 13.2392 13.7333 13.2381C13.7333 13.237 13.7333 13.236 13.7333 13.2349C13.7333 13.2338 13.7333 13.2328 13.7333 13.2317C13.7333 13.2306 13.7333 13.2296 13.7333 13.2285C13.7333 13.2274 13.7333 13.2264 13.7333 13.2253C13.7333 13.2243 13.7333 13.2232 13.7333 13.2222C13.7333 13.2211 13.7333 13.22 13.7333 13.219C13.7333 13.2179 13.7333 13.2169 13.7333 13.2159C13.7333 13.2148 13.7333 13.2138 13.7333 13.2127C13.7333 13.2117 13.7333 13.2106 13.7333 13.2096C13.7333 13.2086 13.7333 13.2075 13.7333 13.2065C13.7333 13.2055 13.7333 13.2044 13.7333 13.2034C13.7333 13.2024 13.7333 13.2013 13.7333 13.2003C13.7333 13.1993 13.7333 13.1982 13.7333 13.1972C13.7333 13.1962 13.7333 13.1952 13.7333 13.1942C13.7333 13.1931 13.7333 13.1921 13.7333 13.1911C13.7333 13.1901 13.7333 13.1891 13.7333 13.1881C13.7333 13.1871 13.7333 13.1861 13.7333 13.1851C13.7333 13.184 13.7333 13.183 13.7333 13.182C13.7333 13.181 13.7333 13.18 13.7333 13.179C13.7333 13.178 13.7333 13.1771 13.7333 13.1761C13.7333 13.1751 13.7333 13.1741 13.7333 13.1731C13.7333 13.1721 13.7333 13.1711 13.7333 13.1701C13.7333 13.1691 13.7333 13.1682 13.7333 13.1672C13.7333 13.1662 13.7333 13.1652 13.7333 13.1642C13.7333 13.1633 13.7333 13.1623 13.7333 13.1613C13.7333 13.1603 13.7333 13.1594 13.7333 13.1584C13.7333 13.1574 13.7333 13.1565 13.7333 13.1555C13.7333 13.1546 13.7333 13.1536 13.7333 13.1526C13.7333 13.1517 13.7333 13.1507 13.7333 13.1498C13.7333 13.1488 13.7333 13.1479 13.7333 13.1469C13.7333 13.146 13.7333 13.145 13.7333 13.1441C13.7333 13.1431 13.7333 13.1422 13.7333 13.1412C13.7333 13.1403 13.7333 13.1394 13.7333 13.1384C13.7333 13.1375 13.7333 13.1365 13.7333 13.1356C13.7333 13.1347 13.7333 13.1338 13.7333 13.1328C13.7333 13.1319 13.7333 13.131 13.7333 13.13C13.7333 13.1291 13.7333 13.1282 13.7333 13.1273C13.7333 13.1264 13.7333 13.1255 13.7333 13.1245C13.7333 13.1236 13.7333 13.1227 13.7333 13.1218C13.7333 13.1209 13.7333 13.12 13.7333 13.1191C13.7333 13.1182 13.7333 13.1173 13.7333 13.1164C13.7333 13.1155 13.7333 13.1146 13.7333 13.1137C13.7333 13.1128 13.7333 13.1119 13.7333 13.111C13.7333 13.1101 13.7333 13.1092 13.7333 13.1083C13.7333 13.1075 13.7333 13.1066 13.7333 13.1057C13.7333 13.1048 13.7333 13.1039 13.7333 13.1031C13.7333 13.1022 13.7333 13.1013 13.7333 13.1004C13.7333 13.0996 13.7333 13.0987 13.7333 13.0978C13.7333 13.097 13.7333 13.0961 13.7333 13.0952C13.7333 13.0944 13.7333 13.0935 13.7333 13.0927C13.7333 13.0918 13.7333 13.091 13.7333 13.0901C13.7333 13.0893 13.7333 13.0884 13.7333 13.0876C13.7333 13.0867 13.7333 13.0859 13.7333 13.085C13.7333 13.0842 13.7333 13.0833 13.7333 13.0825C13.7333 13.0817 13.7333 13.0808 13.7333 13.08C13.7333 13.0792 13.7333 13.0783 13.7333 13.0775C13.7333 13.0767 13.7333 13.0759 13.7333 13.075C13.7333 13.0742 13.7333 13.0734 13.7333 13.0726C13.7333 13.0718 13.7333 13.071 13.7333 13.0701C13.7333 13.0693 13.7333 13.0685 13.7333 13.0677C13.7333 13.0669 13.7333 13.0661 13.7333 13.0653C13.7333 13.0645 13.7333 13.0637 13.7333 13.0629C13.7333 13.0621 13.7333 13.0613 13.7333 13.0605C13.7333 13.0597 13.7333 13.0589 13.7333 13.0582C13.7333 13.0574 13.7333 13.0566 13.7333 13.0558C13.7333 13.055 13.7333 13.0542 13.7333 13.0535C13.7333 13.0527 13.7333 13.0519 13.7333 13.0511C13.7333 13.0504 13.7333 13.0496 13.7333 13.0488C13.7333 13.0481 13.7333 13.0473 13.7333 13.0466C13.7333 13.0458 13.7333 13.045 13.7333 13.0443C13.7333 13.0435 13.7333 13.0428 13.7333 13.042C13.7333 13.0413 13.7333 13.0405 13.7333 13.0398C13.7333 13.039 13.7333 13.0383 13.7333 13.0376C13.7333 13.0368 13.7333 13.0361 13.7333 13.0353C13.7333 13.0346 13.7333 13.0339 13.7333 13.0332C13.7333 13.0324 13.7333 13.0317 13.7333 13.031C13.7333 13.0303 13.7333 13.0295 13.7333 13.0288C13.7333 13.0281 13.7333 13.0274 13.7333 13.0267C13.7333 13.026 13.7333 13.0253 13.7333 13.0245C13.7333 13.0238 13.7333 13.0231 13.7333 13.0224C13.7333 13.0217 13.7333 13.021 13.7333 13.0203C13.7333 13.0196 13.7333 13.0189 13.7333 13.0183C13.7333 13.0176 13.7333 13.0169 13.7333 13.0162C13.7333 13.0155 13.7333 13.0148 13.7333 13.0142C13.7333 13.0135 13.7333 13.0128 13.7333 13.0121C13.7333 13.0115 13.7333 13.0108 13.7333 13.0101C13.7333 13.0094 13.7333 13.0088 13.7333 13.0081C13.7333 13.0075 13.7333 13.0068 13.7333 13.0061C13.7333 13.0055 13.7333 13.0048 13.7333 13.0042C13.7333 13.0035 13.7333 13.0029 13.7333 13.0022C13.7333 13.0016 13.7333 13.001 13.7333 13.0003C13.7333 12.9997 13.7333 12.999 13.7333 12.9984C13.7333 12.9978 13.7333 12.9971 13.7333 12.9965C13.7333 12.9959 13.7333 12.9953 13.7333 12.9946C13.7333 12.994 13.7333 12.9934 13.7333 12.9928C13.7333 12.9922 13.7333 12.9915 13.7333 12.9909C13.7333 12.9903 13.7333 12.9897 13.7333 12.9891C13.7333 12.9885 13.7333 12.9879 13.7333 12.9873C13.7333 12.9867 13.7333 12.9861 13.7333 12.9855C13.7333 12.9849 13.7333 12.9843 13.7333 12.9838C13.7333 12.9832 13.7333 12.9826 13.7333 12.982C13.7333 12.9814 13.7333 12.9808 13.7333 12.9803C13.7333 12.9797 13.7333 12.9791 13.7333 12.9786C13.7333 12.978 13.7333 12.9774 13.7333 12.9769C13.7333 12.9763 13.7333 12.9757 13.7333 12.9752C13.7333 12.9746 13.7333 12.9741 13.7333 12.9735C13.7333 12.973 13.7333 12.9724 13.7333 12.9719C13.7333 12.9713 13.7333 12.9708 13.7333 12.9702C13.7333 12.9697 13.7333 12.9692 13.7333 12.9686C13.7333 12.9681 13.7333 12.9676 13.7333 12.9671C13.7333 12.9665 13.7333 12.966 13.7333 12.9655C13.7333 12.965 13.7333 12.9644 13.7333 12.9639C13.7333 12.9634 13.7333 12.9629 13.7333 12.9624C13.7333 12.9619 13.7333 12.9614 13.7333 12.9609C13.7333 12.9604 13.7333 12.9599 13.7333 12.9594C13.7333 12.9589 13.7333 12.9584 13.7333 12.9579C13.7333 12.9574 13.7333 12.9569 13.7333 12.9564C13.7333 12.956 13.7333 12.9555 13.7333 12.955C13.7333 12.9545 13.7333 12.9541 13.7333 12.9536C13.7333 12.9531 13.7333 12.9527 13.7333 12.9522C13.7333 12.9517 13.7333 12.9513 13.7333 12.9508C13.7333 12.9503 13.7333 12.9499 13.7333 12.9494C13.7333 12.949 13.7333 12.9485 13.7333 12.9481C13.7333 12.9476 13.7333 12.9472 13.7333 12.9468C13.7333 12.9463 13.7333 12.9459 13.7333 12.9455C13.7333 12.945 13.7333 12.9446 13.7333 12.9442C13.7333 12.9437 13.7333 12.9433 13.7333 12.9429C13.7333 12.9425 13.7333 12.9421 13.7333 12.9417C13.7333 12.9412 13.7333 12.9408 13.7333 12.9404C13.7333 12.94 13.7333 12.9396 13.7333 12.9392C13.7333 12.9388 13.7333 12.9384 13.7333 12.938C13.7333 12.9376 13.7333 12.9373 13.7333 12.9369C13.7333 12.9365 13.7333 12.9361 13.7333 12.9357C13.7333 12.9353 13.7333 12.935 13.7333 12.9346C13.7333 12.9342 13.7333 12.9338 13.7333 12.9335C13.7333 12.9331 13.7333 12.9327 13.7333 12.9324C13.7333 12.932 13.7333 12.9317 13.7333 12.9313C13.7333 12.931 13.7333 12.9306 13.7333 12.9303C13.7333 12.9299 13.7333 12.9296 13.7333 12.9292C13.7333 12.9289 13.7333 12.9286 13.7333 12.9282C13.7333 12.9279 13.7333 12.9276 13.7333 12.9272C13.7333 12.9269 13.7333 12.9266 13.7333 12.9263C13.7333 12.9259 13.7333 12.9256 13.7333 12.9253C13.7333 12.925 13.7333 12.9247 13.7333 12.9244C13.7333 12.9241 13.7333 12.9238 13.7333 12.9235C13.7333 12.9232 13.7333 12.9229 13.7333 12.9226C13.7333 12.9223 13.7333 12.922 13.7333 12.9217C13.7333 12.9214 13.7333 12.9212 13.7333 12.9209C13.7333 12.9206 13.7333 12.9203 13.7333 12.9201C13.7333 12.9198 13.7333 12.9195 13.7333 12.9193C13.7333 12.919 13.7333 12.9187 13.7333 12.9185C13.7333 12.9182 13.7333 12.918 13.7333 12.9177C13.7333 12.9175 13.7333 12.9172 13.7333 12.917C13.7333 12.9167 13.7333 12.9165 13.7333 12.9162C13.7333 12.916 13.7333 12.9158 13.7333 12.9155C13.7333 12.9153 13.7333 12.9151 13.7333 12.9149C13.7333 12.9146 13.7333 12.9144 13.7333 12.9142C13.7333 12.914 13.7333 12.9138 13.7333 12.9136C13.7333 12.9134 13.7333 12.9132 13.7333 12.913C13.7333 12.9128 13.7333 12.9126 13.7333 12.9124C13.7333 12.9122 13.7333 12.912 13.7333 12.9118C13.7333 12.9116 13.7333 12.9114 13.7333 12.9113C13.7333 12.9111 13.7333 12.9109 13.7333 12.9107C13.7333 12.9106 13.7333 12.9104 13.7333 12.9102C13.7333 12.9101 13.7333 12.9099 13.7333 12.9097C13.7333 12.9096 13.7333 12.9094 13.7333 12.9093C13.7333 12.9091 13.7333 12.909 13.7333 12.9088C13.7333 12.9087 13.7333 12.9086 13.7333 12.9084C13.7333 12.9083 13.7333 12.9082 13.7333 12.908C13.7333 12.9079 13.7333 12.9078 13.7333 12.9076C13.7333 12.9075 13.7333 12.9074 13.7333 12.9073C13.7333 12.9072 13.7333 12.9071 13.7333 12.907C13.7333 12.9069 13.7333 12.9068 13.7333 12.9067C13.7333 12.9066 13.7333 12.9065 13.7333 12.9064C13.7333 12.9063 13.7333 12.9062 13.7333 12.9061C13.7333 12.906 13.7333 12.9059 13.7333 12.9059C13.7333 12.9058 13.7333 12.9057 13.7333 12.9057C13.7333 12.9056 13.7333 12.9055 13.7333 12.9055C13.7333 12.9054 13.7333 12.9053 13.7333 12.9053C13.7333 12.9052 13.7333 12.9052 13.7333 12.9051C13.7333 12.9051 13.7333 12.9051 13.7333 12.905C13.7333 12.905 13.7333 12.9049 13.7333 12.9049C13.7333 12.9049 13.7333 12.9049 13.7333 12.9048C13.7333 12.9048 13.7333 12.9048 13.7333 12.9048C13.7333 12.9048 13.7333 12.9047 13.7333 12.9047C13.7333 12.9047 13.7333 12.9047 12.9833 12.9047C12.2333 12.9047 12.2333 12.9047 12.2333 12.9047C12.2333 12.9047 12.2333 12.9048 12.2333 12.9048C12.2333 12.9048 12.2333 12.9048 12.2333 12.9048C12.2333 12.9049 12.2333 12.9049 12.2333 12.9049C12.2333 12.9049 12.2333 12.905 12.2333 12.905C12.2333 12.9051 12.2333 12.9051 12.2333 12.9051C12.2333 12.9052 12.2333 12.9052 12.2333 12.9053C12.2333 12.9053 12.2333 12.9054 12.2333 12.9055C12.2333 12.9055 12.2333 12.9056 12.2333 12.9057C12.2333 12.9057 12.2333 12.9058 12.2333 12.9059C12.2333 12.9059 12.2333 12.906 12.2333 12.9061C12.2333 12.9062 12.2333 12.9063 12.2333 12.9064C12.2333 12.9065 12.2333 12.9066 12.2333 12.9067C12.2333 12.9068 12.2333 12.9069 12.2333 12.907C12.2333 12.9071 12.2333 12.9072 12.2333 12.9073C12.2333 12.9074 12.2333 12.9075 12.2333 12.9076C12.2333 12.9078 12.2333 12.9079 12.2333 12.908C12.2333 12.9082 12.2333 12.9083 12.2333 12.9084C12.2333 12.9086 12.2333 12.9087 12.2333 12.9088C12.2333 12.909 12.2333 12.9091 12.2333 12.9093C12.2333 12.9094 12.2333 12.9096 12.2333 12.9097C12.2333 12.9099 12.2333 12.9101 12.2333 12.9102C12.2333 12.9104 12.2333 12.9106 12.2333 12.9107C12.2333 12.9109 12.2333 12.9111 12.2333 12.9113C12.2333 12.9114 12.2333 12.9116 12.2333 12.9118C12.2333 12.912 12.2333 12.9122 12.2333 12.9124C12.2333 12.9126 12.2333 12.9128 12.2333 12.913C12.2333 12.9132 12.2333 12.9134 12.2333 12.9136C12.2333 12.9138 12.2333 12.914 12.2333 12.9142C12.2333 12.9144 12.2333 12.9146 12.2333 12.9149C12.2333 12.9151 12.2333 12.9153 12.2333 12.9155C12.2333 12.9158 12.2333 12.916 12.2333 12.9162C12.2333 12.9165 12.2333 12.9167 12.2333 12.917C12.2333 12.9172 12.2333 12.9175 12.2333 12.9177C12.2333 12.918 12.2333 12.9182 12.2333 12.9185C12.2333 12.9187 12.2333 12.919 12.2333 12.9193C12.2333 12.9195 12.2333 12.9198 12.2333 12.9201C12.2333 12.9203 12.2333 12.9206 12.2333 12.9209C12.2333 12.9212 12.2333 12.9214 12.2333 12.9217C12.2333 12.922 12.2333 12.9223 12.2333 12.9226C12.2333 12.9229 12.2333 12.9232 12.2333 12.9235C12.2333 12.9238 12.2333 12.9241 12.2333 12.9244C12.2333 12.9247 12.2333 12.925 12.2333 12.9253C12.2333 12.9256 12.2333 12.9259 12.2333 12.9263C12.2333 12.9266 12.2333 12.9269 12.2333 12.9272C12.2333 12.9276 12.2333 12.9279 12.2333 12.9282C12.2333 12.9286 12.2333 12.9289 12.2333 12.9292C12.2333 12.9296 12.2333 12.9299 12.2333 12.9303C12.2333 12.9306 12.2333 12.931 12.2333 12.9313C12.2333 12.9317 12.2333 12.932 12.2333 12.9324C12.2333 12.9327 12.2333 12.9331 12.2333 12.9335C12.2333 12.9338 12.2333 12.9342 12.2333 12.9346C12.2333 12.935 12.2333 12.9353 12.2333 12.9357C12.2333 12.9361 12.2333 12.9365 12.2333 12.9369C12.2333 12.9373 12.2333 12.9376 12.2333 12.938C12.2333 12.9384 12.2333 12.9388 12.2333 12.9392C12.2333 12.9396 12.2333 12.94 12.2333 12.9404C12.2333 12.9408 12.2333 12.9412 12.2333 12.9417C12.2333 12.9421 12.2333 12.9425 12.2333 12.9429C12.2333 12.9433 12.2333 12.9437 12.2333 12.9442C12.2333 12.9446 12.2333 12.945 12.2333 12.9455C12.2333 12.9459 12.2333 12.9463 12.2333 12.9468C12.2333 12.9472 12.2333 12.9476 12.2333 12.9481C12.2333 12.9485 12.2333 12.949 12.2333 12.9494C12.2333 12.9499 12.2333 12.9503 12.2333 12.9508C12.2333 12.9513 12.2333 12.9517 12.2333 12.9522C12.2333 12.9527 12.2333 12.9531 12.2333 12.9536C12.2333 12.9541 12.2333 12.9545 12.2333 12.955C12.2333 12.9555 12.2333 12.956 12.2333 12.9564C12.2333 12.9569 12.2333 12.9574 12.2333 12.9579C12.2333 12.9584 12.2333 12.9589 12.2333 12.9594C12.2333 12.9599 12.2333 12.9604 12.2333 12.9609C12.2333 12.9614 12.2333 12.9619 12.2333 12.9624C12.2333 12.9629 12.2333 12.9634 12.2333 12.9639C12.2333 12.9644 12.2333 12.965 12.2333 12.9655C12.2333 12.966 12.2333 12.9665 12.2333 12.9671C12.2333 12.9676 12.2333 12.9681 12.2333 12.9686C12.2333 12.9692 12.2333 12.9697 12.2333 12.9702C12.2333 12.9708 12.2333 12.9713 12.2333 12.9719C12.2333 12.9724 12.2333 12.973 12.2333 12.9735C12.2333 12.9741 12.2333 12.9746 12.2333 12.9752C12.2333 12.9757 12.2333 12.9763 12.2333 12.9769C12.2333 12.9774 12.2333 12.978 12.2333 12.9786C12.2333 12.9791 12.2333 12.9797 12.2333 12.9803C12.2333 12.9808 12.2333 12.9814 12.2333 12.982C12.2333 12.9826 12.2333 12.9832 12.2333 12.9838C12.2333 12.9843 12.2333 12.9849 12.2333 12.9855C12.2333 12.9861 12.2333 12.9867 12.2333 12.9873C12.2333 12.9879 12.2333 12.9885 12.2333 12.9891C12.2333 12.9897 12.2333 12.9903 12.2333 12.9909C12.2333 12.9915 12.2333 12.9922 12.2333 12.9928C12.2333 12.9934 12.2333 12.994 12.2333 12.9946C12.2333 12.9953 12.2333 12.9959 12.2333 12.9965C12.2333 12.9971 12.2333 12.9978 12.2333 12.9984C12.2333 12.999 12.2333 12.9997 12.2333 13.0003C12.2333 13.001 12.2333 13.0016 12.2333 13.0022C12.2333 13.0029 12.2333 13.0035 12.2333 13.0042C12.2333 13.0048 12.2333 13.0055 12.2333 13.0061C12.2333 13.0068 12.2333 13.0075 12.2333 13.0081C12.2333 13.0088 12.2333 13.0094 12.2333 13.0101C12.2333 13.0108 12.2333 13.0115 12.2333 13.0121C12.2333 13.0128 12.2333 13.0135 12.2333 13.0142C12.2333 13.0148 12.2333 13.0155 12.2333 13.0162C12.2333 13.0169 12.2333 13.0176 12.2333 13.0183C12.2333 13.0189 12.2333 13.0196 12.2333 13.0203C12.2333 13.021 12.2333 13.0217 12.2333 13.0224C12.2333 13.0231 12.2333 13.0238 12.2333 13.0245C12.2333 13.0253 12.2333 13.026 12.2333 13.0267C12.2333 13.0274 12.2333 13.0281 12.2333 13.0288C12.2333 13.0295 12.2333 13.0303 12.2333 13.031C12.2333 13.0317 12.2333 13.0324 12.2333 13.0332C12.2333 13.0339 12.2333 13.0346 12.2333 13.0353C12.2333 13.0361 12.2333 13.0368 12.2333 13.0376C12.2333 13.0383 12.2333 13.039 12.2333 13.0398C12.2333 13.0405 12.2333 13.0413 12.2333 13.042C12.2333 13.0428 12.2333 13.0435 12.2333 13.0443C12.2333 13.045 12.2333 13.0458 12.2333 13.0466C12.2333 13.0473 12.2333 13.0481 12.2333 13.0488C12.2333 13.0496 12.2333 13.0504 12.2333 13.0511C12.2333 13.0519 12.2333 13.0527 12.2333 13.0535C12.2333 13.0542 12.2333 13.055 12.2333 13.0558C12.2333 13.0566 12.2333 13.0574 12.2333 13.0582C12.2333 13.0589 12.2333 13.0597 12.2333 13.0605C12.2333 13.0613 12.2333 13.0621 12.2333 13.0629C12.2333 13.0637 12.2333 13.0645 12.2333 13.0653C12.2333 13.0661 12.2333 13.0669 12.2333 13.0677C12.2333 13.0685 12.2333 13.0693 12.2333 13.0701C12.2333 13.071 12.2333 13.0718 12.2333 13.0726C12.2333 13.0734 12.2333 13.0742 12.2333 13.075C12.2333 13.0759 12.2333 13.0767 12.2333 13.0775C12.2333 13.0783 12.2333 13.0792 12.2333 13.08C12.2333 13.0808 12.2333 13.0817 12.2333 13.0825C12.2333 13.0833 12.2333 13.0842 12.2333 13.085C12.2333 13.0859 12.2333 13.0867 12.2333 13.0876C12.2333 13.0884 12.2333 13.0893 12.2333 13.0901C12.2333 13.091 12.2333 13.0918 12.2333 13.0927C12.2333 13.0935 12.2333 13.0944 12.2333 13.0952C12.2333 13.0961 12.2333 13.097 12.2333 13.0978C12.2333 13.0987 12.2333 13.0996 12.2333 13.1004C12.2333 13.1013 12.2333 13.1022 12.2333 13.1031C12.2333 13.1039 12.2333 13.1048 12.2333 13.1057C12.2333 13.1066 12.2333 13.1075 12.2333 13.1083C12.2333 13.1092 12.2333 13.1101 12.2333 13.111C12.2333 13.1119 12.2333 13.1128 12.2333 13.1137C12.2333 13.1146 12.2333 13.1155 12.2333 13.1164C12.2333 13.1173 12.2333 13.1182 12.2333 13.1191C12.2333 13.12 12.2333 13.1209 12.2333 13.1218C12.2333 13.1227 12.2333 13.1236 12.2333 13.1245C12.2333 13.1255 12.2333 13.1264 12.2333 13.1273C12.2333 13.1282 12.2333 13.1291 12.2333 13.13C12.2333 13.131 12.2333 13.1319 12.2333 13.1328C12.2333 13.1338 12.2333 13.1347 12.2333 13.1356C12.2333 13.1365 12.2333 13.1375 12.2333 13.1384C12.2333 13.1394 12.2333 13.1403 12.2333 13.1412C12.2333 13.1422 12.2333 13.1431 12.2333 13.1441C12.2333 13.145 12.2333 13.146 12.2333 13.1469C12.2333 13.1479 12.2333 13.1488 12.2333 13.1498C12.2333 13.1507 12.2333 13.1517 12.2333 13.1526C12.2333 13.1536 12.2333 13.1546 12.2333 13.1555C12.2333 13.1565 12.2333 13.1574 12.2333 13.1584C12.2333 13.1594 12.2333 13.1603 12.2333 13.1613C12.2333 13.1623 12.2333 13.1633 12.2333 13.1642C12.2333 13.1652 12.2333 13.1662 12.2333 13.1672C12.2333 13.1682 12.2333 13.1691 12.2333 13.1701C12.2333 13.1711 12.2333 13.1721 12.2333 13.1731C12.2333 13.1741 12.2333 13.1751 12.2333 13.1761C12.2333 13.1771 12.2333 13.178 12.2333 13.179C12.2333 13.18 12.2333 13.181 12.2333 13.182C12.2333 13.183 12.2333 13.184 12.2333 13.1851C12.2333 13.1861 12.2333 13.1871 12.2333 13.1881C12.2333 13.1891 12.2333 13.1901 12.2333 13.1911C12.2333 13.1921 12.2333 13.1931 12.2333 13.1942C12.2333 13.1952 12.2333 13.1962 12.2333 13.1972C12.2333 13.1982 12.2333 13.1993 12.2333 13.2003C12.2333 13.2013 12.2333 13.2024 12.2333 13.2034C12.2333 13.2044 12.2333 13.2055 12.2333 13.2065C12.2333 13.2075 12.2333 13.2086 12.2333 13.2096C12.2333 13.2106 12.2333 13.2117 12.2333 13.2127C12.2333 13.2138 12.2333 13.2148 12.2333 13.2159C12.2333 13.2169 12.2333 13.2179 12.2333 13.219C12.2333 13.22 12.2333 13.2211 12.2333 13.2222C12.2333 13.2232 12.2333 13.2243 12.2333 13.2253C12.2333 13.2264 12.2333 13.2274 12.2333 13.2285C12.2333 13.2296 12.2333 13.2306 12.2333 13.2317C12.2333 13.2328 12.2333 13.2338 12.2333 13.2349C12.2333 13.236 12.2333 13.237 12.2333 13.2381C12.2333 13.2392 12.2333 13.2403 12.2333 13.2413C12.2333 13.2424 12.2333 13.2435 12.2333 13.2446C12.2333 13.2457 12.2333 13.2468 12.2333 13.2478C12.2333 13.2489 12.2333 13.25 12.2333 13.2511C12.2333 13.2522 12.2333 13.2533 12.2333 13.2544C12.2333 13.2555 12.2333 13.2566 12.2333 13.2577C12.2333 13.2588 12.2333 13.2599 12.2333 13.261C12.2333 13.2621 12.2333 13.2632 12.2333 13.2643C12.2333 13.2654 12.2333 13.2665 12.2333 13.2676C12.2333 13.2687 12.2333 13.2698 12.2333 13.2709C12.2333 13.272 12.2333 13.2731 12.2333 13.2742C12.2333 13.2754 12.2333 13.2765 12.2333 13.2776C12.2333 13.2787 12.2333 13.2798 12.2333 13.281C12.2333 13.2821 12.2333 13.2832 12.2333 13.2843C12.2333 13.2855 12.2333 13.2866 12.2333 13.2877C12.2333 13.2888 12.2333 13.29 12.2333 13.2911C12.2333 13.2922 12.2333 13.2934 12.2333 13.2945C12.2333 13.2956 12.2333 13.2968 12.2333 13.2979C12.2333 13.2991 12.2333 13.3002 12.2333 13.3013C12.2333 13.3025 12.2333 13.3036 12.2333 13.3048C12.2333 13.3059 12.2333 13.3071 12.2333 13.3082C12.2333 13.3094 12.2333 13.3105 12.2333 13.3117C12.2333 13.3128 12.2333 13.314 12.2333 13.3151C12.2333 13.3163 12.2333 13.3174 12.2333 13.3186C12.2333 13.3198 12.2333 13.3209 12.2333 13.3221C12.2333 13.3233 12.2333 13.3244 12.2333 13.3256C12.2333 13.3268 12.2333 13.3279 12.2333 13.3291C12.2333 13.3303 12.2333 13.3314 12.2333 13.3326C12.2333 13.3338 12.2333 13.335 12.2333 13.3361C12.2333 13.3373 12.2333 13.3385 12.2333 13.3397C12.2333 13.3408 12.2333 13.342 12.2333 13.3432C12.2333 13.3444 12.2333 13.3456 12.2333 13.3468C12.2333 13.3479 12.2333 13.3491 12.2333 13.3503C12.2333 13.3515 12.2333 13.3527 12.2333 13.3539C12.2333 13.3551 12.2333 13.3563 12.2333 13.3575C12.2333 13.3587 12.2333 13.3599 12.2333 13.3611C12.2333 13.3623 12.2333 13.3635 12.2333 13.3647C12.2333 13.3659 12.2333 13.3671 12.2333 13.3683C12.2333 13.3695 12.2333 13.3707 12.2333 13.3719C12.2333 13.3731 12.2333 13.3743 12.2333 13.3755C12.2333 13.3767 12.2333 13.3779 12.2333 13.3791C12.2333 13.3804 12.2333 13.3816 12.2333 13.3828C12.2333 13.384 12.2333 13.3852 12.2333 13.3864C12.2333 13.3877 12.2333 13.3889 12.2333 13.3901C12.2333 13.3913 12.2333 13.3925 12.2333 13.3938C12.2333 13.395 12.2333 13.3962 12.2333 13.3974C12.2333 13.3987 12.2333 13.3999 12.2333 13.4011C12.2333 13.4024 12.2333 13.4036 12.2333 13.4048C12.2333 13.4061 12.2333 13.4073 12.2333 13.4085C12.2333 13.4098 12.2333 13.411 12.2333 13.4122C12.2333 13.4135 12.2333 13.4147 12.2333 13.416C12.2333 13.4172 12.2333 13.4185 12.2333 13.4197C12.2333 13.4209 12.2333 13.4222 12.2333 13.4234C12.2333 13.4247 12.2333 13.4259 12.2333 13.4272C12.2333 13.4284 12.2333 13.4297 12.2333 13.4309C12.2333 13.4322 12.2333 13.4334 12.2333 13.4347C12.2333 13.436 12.2333 13.4372 12.2333 13.4385C12.2333 13.4397 12.2333 13.441 12.2333 13.4422C12.2333 13.4435 12.2333 13.4448 12.2333 13.446C12.2333 13.4473 12.2333 13.4486 12.2333 13.4498C12.2333 13.4511 12.2333 13.4524 12.2333 13.4536C12.2333 13.4549 12.2333 13.4562 12.2333 13.4574C12.2333 13.4587 12.2333 13.46 12.2333 13.4612C12.2333 13.4625 12.2333 13.4638 12.2333 13.4651C12.2333 13.4663 12.2333 13.4676 12.2333 13.4689C12.2333 13.4702 12.2333 13.4715 12.2333 13.4727C12.2333 13.474 12.2333 13.4753 12.2333 13.4766C12.2333 13.4779 12.2333 13.4792 12.2333 13.4804C12.2333 13.4817 12.2333 13.483 12.2333 13.4843C12.2333 13.4856 12.2333 13.4869 12.2333 13.4882C12.2333 13.4895 12.2333 13.4908 12.2333 13.492C12.2333 13.4933 12.2333 13.4946 12.2333 13.4959C12.2333 13.4972 12.2333 13.4985 12.2333 13.4998C12.2333 13.5011 12.2333 13.5024 12.2333 13.5037C12.2333 13.505 12.2333 13.5063 12.2333 13.5076C12.2333 13.5089 12.2333 13.5102 12.2333 13.5115C12.2333 13.5128 12.2333 13.5141 12.2333 13.5154C12.2333 13.5167 12.2333 13.518 12.2333 13.5194C12.2333 13.5207 12.2333 13.522 12.2333 13.5233C12.2333 13.5246 12.2333 13.5259 12.2333 13.5272C12.2333 13.5285 12.2333 13.5298 12.2333 13.5312C12.2333 13.5325 12.2333 13.5338 12.2333 13.5351C12.2333 13.5364 12.2333 13.5377 12.2333 13.5391C12.2333 13.5404 12.2333 13.5417 12.2333 13.543C12.2333 13.5443 12.2333 13.5457 12.2333 13.547C12.2333 13.5483 12.2333 13.5496 12.2333 13.551C12.2333 13.5523 12.2333 13.5536 12.2333 13.5549C12.2333 13.5563 12.2333 13.5576 12.2333 13.5589C12.2333 13.5603 12.2333 13.5616 12.2333 13.5629C12.2333 13.5642 12.2333 13.5656 12.2333 13.5669C12.2333 13.5682 12.2333 13.5696 12.2333 13.5709C12.2333 13.5722 12.2333 13.5736 12.2333 13.5749C12.2333 13.5763 12.2333 13.5776 12.2333 13.5789C12.2333 13.5803 12.2333 13.5816 12.2333 13.583C12.2333 13.5843 12.2333 13.5856 12.2333 13.587C12.2333 13.5883 12.2333 13.5897 12.2333 13.591C12.2333 13.5924 12.2333 13.5937 12.2333 13.595C12.2333 13.5964 12.2333 13.5977 12.2333 13.5991C12.2333 13.6004 12.2333 13.6018 12.2333 13.6031C12.2333 13.6045 12.2333 13.6058 12.2333 13.6072C12.2333 13.6085 12.2333 13.6099 12.2333 13.6112C12.2333 13.6126 12.2333 13.614 12.2333 13.6153C12.2333 13.6167 12.2333 13.618 12.2333 13.6194C12.2333 13.6207 12.2333 13.6221 12.2333 13.6234C12.2333 13.6248 12.2333 13.6262 12.2333 13.6275C12.2333 13.6289 12.2333 13.6302 12.2333 13.6316C12.2333 13.633 12.2333 13.6343 12.2333 13.6357C12.2333 13.6371 12.2333 13.6384 12.2333 13.6398C12.2333 13.6411 12.2333 13.6425 12.2333 13.6439C12.2333 13.6452 12.2333 13.6466 12.2333 13.648C12.2333 13.6493 12.2333 13.6507 12.2333 13.6521C12.2333 13.6535 12.2333 13.6548 12.2333 13.6562C12.2333 13.6576 12.2333 13.6589 12.2333 13.6603C12.2333 13.6617 12.2333 13.6631 12.2333 13.6644C12.2333 13.6658 12.2333 13.6672 12.2333 13.6685C12.2333 13.6699 12.2333 13.6713 12.2333 13.6727C12.2333 13.6741 12.2333 13.6754 12.2333 13.6768C12.2333 13.6782 12.2333 13.6796 12.2333 13.6809C12.2333 13.6823 12.2333 13.6837 12.2333 13.6851C12.2333 13.6865 12.2333 13.6878 12.2333 13.6892C12.2333 13.6906 12.2333 13.692 12.2333 13.6934C12.2333 13.6948 12.2333 13.6961 12.2333 13.6975C12.2333 13.6989 12.2333 13.7003 12.2333 13.7017C12.2333 13.7031 12.2333 13.7045 12.2333 13.7058C12.2333 13.7072 12.2333 13.7086 12.2333 13.71C12.2333 13.7114 12.2333 13.7128 12.2333 13.7142C12.2333 13.7156 12.2333 13.7169 12.2333 13.7183C12.2333 13.7197 12.2333 13.7211 12.2333 13.7225C12.2333 13.7239 12.2333 13.7253 12.2333 13.7267C12.2333 13.7281 12.2333 13.7295 12.2333 13.7309C12.2333 13.7323 12.2333 13.7337 12.2333 13.735C12.2333 13.7364 12.2333 13.7378 12.2333 13.7392C12.2333 13.7406 12.2333 13.742 12.2333 13.7434C12.2333 13.7448 12.2333 13.7462 12.2333 13.7476C12.2333 13.749 12.2333 13.7504 12.2333 13.7518C12.2333 13.7532 12.2333 13.7546 12.2333 13.756C12.2333 13.7574 12.2333 13.7588 12.2333 13.7602C12.2333 13.7616 12.2333 13.763 12.2333 13.7644C12.2333 13.7658 12.2333 13.7672 12.2333 13.7686C12.2333 13.77 12.2333 13.7714 12.2333 13.7728C12.2333 13.7742 12.2333 13.7756 12.2333 13.777C12.2333 13.7785 12.2333 13.7799 12.2333 13.7813C12.2333 13.7827 12.2333 13.7841 12.2333 13.7855C12.2333 13.7869 12.2333 13.7883 12.2333 13.7897C12.2333 13.7911 12.2333 13.7925 12.2333 13.7939C12.2333 13.7953 12.2333 13.7967 12.2333 13.7981C12.2333 13.7996 12.2333 13.801 12.2333 13.8024C12.2333 13.8038 12.2333 13.8052 12.2333 13.8066C12.2333 13.808 12.2333 13.8094 12.2333 13.8108C12.2333 13.8122 12.2333 13.8137 12.2333 13.8151C12.2333 13.8165 12.2333 13.8179 12.2333 13.8193C12.2333 13.8207 12.2333 13.8221 12.2333 13.8235C12.2333 13.825 12.2333 13.8264 12.2333 13.8278C12.2333 13.8292 12.2333 13.8306 12.2333 13.832C12.2333 13.8334 12.2333 13.8348 12.2333 13.8363C12.2333 13.8377 12.2333 13.8391 12.2333 13.8405C12.2333 13.8419 12.2333 13.8433 12.2333 13.8448C12.2333 13.8462 12.2333 13.8476 12.2333 13.849C12.2333 13.8504 12.2333 13.8518 12.2333 13.8533C12.2333 13.8547 12.2333 13.8561 12.2333 13.8575C12.2333 13.8589 12.2333 13.8603 12.2333 13.8618C12.2333 13.8632 12.2333 13.8646 12.2333 13.866C12.2333 13.8674 12.2333 13.8688 12.2333 13.8703C12.2333 13.8717 12.2333 13.8731 12.2333 13.8745C12.2333 13.8759 12.2333 13.8774 12.2333 13.8788C12.2333 13.8802 12.2333 13.8816 12.2333 13.883C12.2333 13.8845 12.2333 13.8859 12.2333 13.8873C12.2333 13.8887 12.2333 13.8901 12.2333 13.8916C12.2333 13.893 12.2333 13.8944 12.2333 13.8958C12.2333 13.8972 12.2333 13.8987 12.2333 13.9001C12.2333 13.9015 12.2333 13.9029 12.2333 13.9043C12.2333 13.9058 12.2333 13.9072 12.2333 13.9086C12.2333 13.91 12.2333 13.9114 12.2333 13.9129C12.2333 13.9143 12.2333 13.9157 12.2333 13.9171C12.2333 13.9186 12.2333 13.92 12.2333 13.9214C12.2333 13.9228 12.2333 13.9242 12.2333 13.9257C12.2333 13.9271 12.2333 13.9285 12.2333 13.9299C12.2333 13.9314 12.2333 13.9328 12.2333 13.9342C12.2333 13.9356 12.2333 13.937 12.2333 13.9385C12.2333 13.9399 12.2333 13.9413 12.2333 13.9427C12.2333 13.9442 12.2333 13.9456 12.2333 13.947C12.2333 13.9484 12.2333 13.9498 12.2333 13.9513C12.2333 13.9527 12.2333 13.9541 12.2333 13.9555C12.2333 13.957 12.2333 13.9584 12.2333 13.9598C12.2333 13.9612 12.2333 13.9626 12.2333 13.9641C12.2333 13.9655 12.2333 13.9669 12.2333 13.9683C12.2333 13.9698 12.2333 13.9712 12.2333 13.9726C12.2333 13.974 12.2333 13.9754 12.2333 13.9769C12.2333 13.9783 12.2333 13.9797 12.2333 13.9811C12.2333 13.9826 12.2333 13.984 12.2333 13.9854C12.2333 13.9868 12.2333 13.9882 12.2333 13.9897C12.2333 13.9911 12.2333 13.9925 12.2333 13.9939C12.2333 13.9954 12.2333 13.9968 12.2333 13.9982C12.2333 13.9996 12.2333 14.001 12.2333 14.0025C12.2333 14.0039 12.2333 14.0053 12.2333 14.0067C12.2333 14.0081 12.2333 14.0096 12.2333 14.011C12.2333 14.0124 12.2333 14.0138 12.2333 14.0152C12.2333 14.0167 12.2333 14.0181 12.2333 14.0195C12.2333 14.0209 12.2333 14.0223 12.2333 14.0238C12.2333 14.0252 12.2333 14.0266 12.2333 14.028C12.2333 14.0294 12.2333 14.0309 12.2333 14.0323C12.2333 14.0337 12.2333 14.0351 12.2333 14.0365C12.2333 14.038 12.2333 14.0394 12.2333 14.0408C12.2333 14.0422 12.2333 14.0436 12.2333 14.045C12.2333 14.0465 12.2333 14.0479 12.2333 14.0493C12.2333 14.0507 12.2333 14.0521 12.2333 14.0535C12.2333 14.055 12.2333 14.0564 12.2333 14.0578C12.2333 14.0592 12.2333 14.0606 12.2333 14.062C12.2333 14.0635 12.2333 14.0649 12.2333 14.0663C12.2333 14.0677 12.2333 14.0691 12.2333 14.0705C12.2333 14.0719 12.2333 14.0734 12.2333 14.0748C12.2333 14.0762 12.2333 14.0776 12.2333 14.079C12.2333 14.0804 12.2333 14.0818 12.2333 14.0833C12.2333 14.0847 12.2333 14.0861 12.2333 14.0875C12.2333 14.0889 12.2333 14.0903 12.2333 14.0917C12.2333 14.0931 12.2333 14.0945 12.2333 14.096C12.2333 14.0974 12.2333 14.0988 12.2333 14.1002C12.2333 14.1016 12.2333 14.103 12.2333 14.1044C12.2333 14.1058 12.2333 14.1072 12.2333 14.1086C12.2333 14.11 12.2333 14.1115 12.2333 14.1129C12.2333 14.1143 12.2333 14.1157 12.2333 14.1171C12.2333 14.1185 12.2333 14.1199 12.2333 14.1213C12.2333 14.1227 12.2333 14.1241 12.2333 14.1255C12.2333 14.1269 12.2333 14.1283 12.2333 14.1297C12.2333 14.1311 12.2333 14.1325 12.2333 14.1339C12.2333 14.1353 12.2333 14.1367 12.2333 14.1382C12.2333 14.1396 12.2333 14.141 12.2333 14.1424C12.2333 14.1438 12.2333 14.1452 12.2333 14.1466C12.2333 14.148 12.2333 14.1494 12.2333 14.1508C12.2333 14.1522 12.2333 14.1536 12.2333 14.155C12.2333 14.1564 12.2333 14.1578 12.2333 14.1592C12.2333 14.1605 12.2333 14.1619 12.2333 14.1633C12.2333 14.1647 12.2333 14.1661 12.2333 14.1675C12.2333 14.1689 12.2333 14.1703 12.2333 14.1717C12.2333 14.1731 12.2333 14.1745 12.2333 14.1759C12.2333 14.1773 12.2333 14.1787 12.2333 14.1801C12.2333 14.1815 12.2333 14.1829 12.2333 14.1842C12.2333 14.1856 12.2333 14.187 12.2333 14.1884C12.2333 14.1898 12.2333 14.1912 12.2333 14.1926C12.2333 14.194 12.2333 14.1954 12.2333 14.1968C12.2333 14.1981 12.2333 14.1995 12.2333 14.2009C12.2333 14.2023 12.2333 14.2037 12.2333 14.2051C12.2333 14.2065 12.2333 14.2078 12.2333 14.2092C12.2333 14.2106 12.2333 14.212 12.2333 14.2134C12.2333 14.2148 12.2333 14.2161 12.2333 14.2175C12.2333 14.2189 12.2333 14.2203 12.2333 14.2217C12.2333 14.223 12.2333 14.2244 12.2333 14.2258C12.2333 14.2272 12.2333 14.2286 12.2333 14.2299C12.2333 14.2313 12.2333 14.2327 12.2333 14.2341C12.2333 14.2354 12.2333 14.2368 12.2333 14.2382C12.2333 14.2396 12.2333 14.2409 12.2333 14.2423C12.2333 14.2437 12.2333 14.2451 12.2333 14.2464C12.2333 14.2478 12.2333 14.2492 12.2333 14.2505C12.2333 14.2519 12.2333 14.2533 12.2333 14.2546C12.2333 14.256 12.2333 14.2574 12.2333 14.2587C12.2333 14.2601 12.2333 14.2615 12.2333 14.2628C12.2333 14.2642 12.2333 14.2656 12.2333 14.2669C12.2333 14.2683 12.2333 14.2697 12.2333 14.271C12.2333 14.2724 12.2333 14.2737 12.2333 14.2751C12.2333 14.2765 12.2333 14.2778 12.2333 14.2792C12.2333 14.2805 12.2333 14.2819 12.2333 14.2833C12.2333 14.2846 12.2333 14.286 12.2333 14.2873C12.2333 14.2887 12.2333 14.29 12.2333 14.2914C12.2333 14.2928 12.2333 14.2941 12.2333 14.2955C12.2333 14.2968 12.2333 14.2982 12.2333 14.2995C12.2333 14.3009 12.2333 14.3022 12.2333 14.3036C12.2333 14.3049 12.2333 14.3063 12.2333 14.3076C12.2333 14.309 12.2333 14.3103 12.2333 14.3116C12.2333 14.313 12.2333 14.3143 12.2333 14.3157C12.2333 14.317 12.2333 14.3184 12.2333 14.3197C12.2333 14.321 12.2333 14.3224 12.2333 14.3237C12.2333 14.3251 12.2333 14.3264 12.2333 14.3277C12.2333 14.3291 12.2333 14.3304 12.2333 14.3318C12.2333 14.3331 12.2333 14.3344 12.2333 14.3358C12.2333 14.3371 12.2333 14.3384 12.2333 14.3398C12.2333 14.3411 12.2333 14.3424 12.2333 14.3438C12.2333 14.3451 12.2333 14.3464 12.2333 14.3477C12.2333 14.3491 12.2333 14.3504 12.2333 14.3517C12.2333 14.3531 12.2333 14.3544 12.2333 14.3557C12.2333 14.357 12.2333 14.3583 12.2333 14.3597C12.2333 14.361 12.2333 14.3623 12.2333 14.3636C12.2333 14.365 12.2333 14.3663 12.2333 14.3676C12.2333 14.3689 12.2333 14.3702 12.2333 14.3715C12.2333 14.3729 12.2333 14.3742 12.2333 14.3755C12.2333 14.3768 12.2333 14.3781 12.2333 14.3794C12.2333 14.3807 12.2333 14.382 12.2333 14.3834C12.2333 14.3847 12.2333 14.386 12.2333 14.3873C12.2333 14.3886 12.2333 14.3899 12.2333 14.3912C12.2333 14.3925 12.2333 14.3938 12.2333 14.3951C12.2333 14.3964 12.2333 14.3977 12.2333 14.399C12.2333 14.4003 12.2333 14.4016 12.2333 14.4029C12.2333 14.4042 12.2333 14.4055 12.2333 14.4068C12.2333 14.4081 12.2333 14.4094 12.2333 14.4107C12.2333 14.412 12.2333 14.4133 12.2333 14.4146C12.2333 14.4159 12.2333 14.4172 12.2333 14.4184C12.2333 14.4197 12.2333 14.421 12.2333 14.4223C12.2333 14.4236 12.2333 14.4249 12.2333 14.4262C12.2333 14.4274 12.2333 14.4287 12.2333 14.43C12.2333 14.4313 12.2333 14.4326 12.2333 14.4339C12.2333 14.4351 12.2333 14.4364 12.2333 14.4377C12.2333 14.439 12.2333 14.4402 12.2333 14.4415C12.2333 14.4428 12.2333 14.4441 12.2333 14.4453C12.2333 14.4466 12.2333 14.4479 12.2333 14.4492C12.2333 14.4504 12.2333 14.4517 12.2333 14.453C12.2333 14.4542 12.2333 14.4555 12.2333 14.4568C12.2333 14.458 12.2333 14.4593 12.2333 14.4605C12.2333 14.4618 12.2333 14.4631 12.2333 14.4643C12.2333 14.4656 12.2333 14.4668 12.2333 14.4681C12.2333 14.4694 12.2333 14.4706 12.2333 14.4719C12.2333 14.4731 12.2333 14.4744 12.2333 14.4756C12.2333 14.4769 12.2333 14.4781 12.2333 14.4794C12.2333 14.4806 12.2333 14.4819 12.2333 14.4831C12.2333 14.4844 12.2333 14.4856 12.2333 14.4868C12.2333 14.4881 12.2333 14.4893 12.2333 14.4906C12.2333 14.4918 12.2333 14.4931 12.2333 14.4943C12.2333 14.4955 12.2333 14.4968 12.2333 14.498C12.2333 14.4992 12.2333 14.5005 12.2333 14.5017C12.2333 14.5029 12.2333 14.5042 12.2333 14.5054C12.2333 14.5066 12.2333 14.5078 12.2333 14.5091C12.2333 14.5103 12.2333 14.5115 12.2333 14.5127C12.2333 14.514 12.2333 14.5152 12.2333 14.5164C12.2333 14.5176 12.2333 14.5189 12.2333 14.5201C12.2333 14.5213 12.2333 14.5225 12.2333 14.5237C12.2333 14.5249 12.2333 14.5261 12.2333 14.5274C12.2333 14.5286 12.2333 14.5298 12.2333 14.531C12.2333 14.5322 12.2333 14.5334 12.2333 14.5346H13.7333ZM13.7333 12.9047C13.7333 12.0876 13.376 11.3568 12.8174 10.844L11.8029 11.9488C12.0744 12.1981 12.2333 12.537 12.2333 12.9047H13.7333ZM12.8088 10.8362C12.9417 10.9544 12.9974 11.1552 12.9219 11.3384L11.535 10.7671C11.3609 11.1896 11.4815 11.6629 11.8115 11.9566L12.8088 10.8362ZM12.9218 11.3387C12.8491 11.5149 12.6864 11.604 12.5348 11.6042L12.5329 10.1042C12.1114 10.1047 11.7064 10.3515 11.5351 10.7667L12.9218 11.3387ZM12.5755 11.603C12.9522 11.5821 13.33 11.5712 13.6151 11.5656C13.7572 11.5627 13.8754 11.5613 13.9578 11.5605C13.9989 11.5601 14.0311 11.5599 14.0528 11.5598C14.0636 11.5597 14.0718 11.5597 14.0772 11.5596C14.0799 11.5596 14.0819 11.5596 14.0831 11.5596C14.0838 11.5596 14.0842 11.5596 14.0845 11.5596C14.0846 11.5596 14.0847 11.5596 14.0848 11.5596C14.0848 11.5596 14.0848 11.5596 14.0848 11.5596C14.0848 11.5596 14.0848 11.5596 14.0848 11.5596C14.0848 11.5596 14.0847 11.5596 14.0834 10.8096C14.0821 10.0596 14.0821 10.0596 14.082 10.0596C14.082 10.0596 14.082 10.0596 14.082 10.0596C14.0819 10.0596 14.0819 10.0596 14.0818 10.0596C14.0816 10.0596 14.0814 10.0596 14.0812 10.0596C14.0807 10.0596 14.0801 10.0596 14.0792 10.0596C14.0775 10.0596 14.0751 10.0596 14.0719 10.0597C14.0656 10.0597 14.0565 10.0597 14.0447 10.0598C14.0211 10.0599 13.9869 10.0601 13.9435 10.0605C13.8569 10.0614 13.7335 10.0629 13.5854 10.0658C13.2902 10.0717 12.8932 10.0831 12.4923 10.1053L12.5755 11.603ZM8.40017 4.75C9.84361 4.75 10.9503 5.8554 10.9503 7.14283H12.4503C12.4503 4.95879 10.6022 3.25 8.40017 3.25V4.75ZM10.9503 7.14283C10.9503 8.43025 9.84361 9.53565 8.40017 9.53565V11.0357C10.6022 11.0357 12.4503 9.32687 12.4503 7.14283H10.9503ZM8.40017 9.53565C6.95694 9.53565 5.85018 8.43028 5.85018 7.14283H4.35018C4.35018 9.32684 6.19833 11.0357 8.40017 11.0357V9.53565ZM5.85018 7.14283C5.85018 5.85537 6.95694 4.75 8.40017 4.75V3.25C6.19833 3.25 4.35018 4.95881 4.35018 7.14283H5.85018ZM11.8833 4.75C13.3266 4.75 14.4333 5.85537 14.4333 7.14283H15.9333C15.9333 4.95881 14.0852 3.25 11.8833 3.25V4.75ZM14.4333 7.14283C14.4333 8.43028 13.3266 9.53565 11.8833 9.53565V11.0357C14.0852 11.0357 15.9333 9.32684 15.9333 7.14283H14.4333ZM11.8833 9.53565C11.7319 9.53565 11.5843 9.5234 11.4414 9.50006L11.1995 10.9804C11.4223 11.0168 11.6508 11.0357 11.8833 11.0357V9.53565ZM11.4375 9.49943C11.4744 9.50526 11.5298 9.5352 11.5549 9.60883L10.1349 10.0921C10.2991 10.5745 10.7212 10.9049 11.2034 10.9811L11.4375 9.49943ZM11.5549 9.60883C11.5814 9.68679 11.5557 9.76556 11.5099 9.80966L10.4699 8.72869C10.1068 9.07804 9.96925 9.60547 10.1349 10.0921L11.5549 9.60883ZM11.5156 9.80414C12.2134 9.11849 12.6333 8.17648 12.6333 7.14283H11.1333C11.1333 7.76075 10.8847 8.32109 10.4643 8.73421L11.5156 9.80414ZM12.6333 7.14283C12.6333 6.10899 12.2135 5.17308 11.5393 4.4815L10.4653 5.52859C10.8845 5.95865 11.1333 6.52544 11.1333 7.14283H12.6333ZM11.5214 4.46373C11.5716 4.51187 11.5994 4.59737 11.5707 4.68177L10.1506 4.19881C9.98674 4.68065 10.1239 5.20184 10.4832 5.54635L11.5214 4.46373ZM11.5707 4.68177C11.5436 4.76159 11.4826 4.7962 11.4384 4.80307L11.208 3.32087C10.731 3.39501 10.3129 3.72155 10.1506 4.19881L11.5707 4.68177ZM11.5097 4.7884C11.6091 4.76287 11.7299 4.75 11.8833 4.75V3.25C11.6528 3.25 11.3975 3.26854 11.1366 3.33554L11.5097 4.7884Z" fill="#9F9F9F"/>
</svg>
