<svg width="20" height="20" viewBox="0 0 20 20" fill="none" xmlns="http://www.w3.org/2000/svg">
<path fill-rule="evenodd" clip-rule="evenodd" d="M12.4891 12.9327L11.7826 14.1564C10.7386 15.9648 8.42619 16.5844 6.61781 15.5403C4.80942 14.4963 4.18982 12.1839 5.23389 10.3755L5.94891 9.13705L4.81569 8.47987L4.09941 9.7205C2.69359 12.1554 3.52787 15.269 5.96281 16.6748C8.39776 18.0806 11.5113 17.2464 12.9171 14.8114L13.6236 13.5877L12.4891 12.9327ZM7.0085 4.68181L5.8931 6.61374L7.03028 7.26407L8.14298 5.3368C9.18706 3.52841 11.4994 2.90881 13.3078 3.95289C15.1162 4.99696 15.7358 7.30933 14.6917 9.11772L13.5973 11.0134L14.7318 11.6684L15.8262 9.77272C17.232 7.33777 16.3978 4.22422 13.9628 2.8184C11.5279 1.41259 8.41432 2.24686 7.0085 4.68181ZM8.74798 13.1607L12.3121 6.98749L11.1776 6.3325L7.6135 12.5057L8.74798 13.1607Z" fill="#333333"/>
</svg>
