<svg width="16" height="16" viewBox="0 0 16 16" fill="none" xmlns="http://www.w3.org/2000/svg">
<path fill-rule="evenodd" clip-rule="evenodd" d="M6.46667 2.25C5.03403 2.25 3.75 3.55565 3.75 5.32518V10.1666C3.75 10.1667 3.75 10.1667 3.75 10.1667C3.75001 12.08 5.47946 13.75 7.76667 13.75C10.0539 13.75 11.7833 12.08 11.7833 10.1666V4.09998H13.2833V10.1666C13.2833 13.0398 10.7446 15.25 7.76667 15.25C4.78877 15.25 2.25001 13.0398 2.25 10.1667C2.25 10.1667 2.25 10.1667 2.25 10.1666V5.32518C2.25 2.86953 4.07012 0.75 6.46667 0.75C8.82173 0.75 10.6202 2.7968 10.6817 5.198H10.6834V8.9974C10.6834 10.6313 9.40931 12.0147 7.76676 12.0147C6.12422 12.0147 4.8501 10.6313 4.8501 8.9974V5.36977H6.3501V8.9974C6.3501 9.8678 7.01608 10.5147 7.76676 10.5147C8.51745 10.5147 9.18343 9.8678 9.18343 8.9974V5.32518H9.18333C9.18333 3.55565 7.8993 2.25 6.46667 2.25Z" fill="#999999"/>
</svg>
