<svg width="16" height="16" viewBox="0 0 16 16" fill="none" xmlns="http://www.w3.org/2000/svg">
<rect opacity="0.01" width="16" height="16" fill="#D8D8D8"/>
<path fill-rule="evenodd" clip-rule="evenodd" d="M5.33623 3.09107V2.43652H4.02714V3.09107V10.7274V10.7274H2.5L4.68182 13.4547L6.86364 10.7274H5.33623V10.7274V3.09107ZM11.6343 7.73591V2.54554H10.5871L9.41895 3.56059V4.68842L10.5871 3.67337V7.73591H11.6343ZM11.4305 13.694L12.1015 11.7583C12.3593 11.2346 12.5768 10.7513 12.5768 10.2276C12.5768 9.09175 11.8035 8.45533 10.7884 8.45533C9.77337 8.45533 9 9.11591 9 10.2437C9 11.3071 9.74115 11.9436 10.5145 11.9436C10.6515 11.9436 10.8045 11.9274 10.9415 11.871L10.2947 13.694H11.4305ZM10.7884 11.0735C10.3453 11.0735 10.0473 10.7432 10.0473 10.2357C10.0473 9.704 10.3615 9.39787 10.7884 9.39787C11.2154 9.39787 11.5296 9.704 11.5296 10.2357C11.5296 10.7674 11.2154 11.0735 10.7884 11.0735Z" fill="#979797"/>
<path d="M5.33623 2.43652H5.43623V2.33652H5.33623V2.43652ZM4.02714 2.43652V2.33652H3.92714V2.43652H4.02714ZM4.02714 10.7274V10.8274H4.12714V10.7274H4.02714ZM2.5 10.7274V10.6274H2.29194L2.42191 10.7899L2.5 10.7274ZM4.68182 13.4547L4.60373 13.5172L4.68182 13.6148L4.75991 13.5172L4.68182 13.4547ZM6.86364 10.7274L6.94172 10.7899L7.0717 10.6274H6.86364V10.7274ZM5.33623 10.7274H5.23623V10.8274H5.33623V10.7274ZM11.6343 2.54554H11.7343V2.44554H11.6343V2.54554ZM11.6343 7.73591V7.83591H11.7343V7.73591H11.6343ZM10.5871 2.54554V2.44554H10.5497L10.5215 2.47005L10.5871 2.54554ZM9.41895 3.56059L9.35335 3.4851L9.31895 3.515V3.56059H9.41895ZM9.41895 4.68842H9.31895V4.90779L9.48454 4.7639L9.41895 4.68842ZM10.5871 3.67337H10.6871V3.45399L10.5215 3.59789L10.5871 3.67337ZM10.5871 7.73591H10.4871V7.83591H10.5871V7.73591ZM12.1015 11.7583L12.0111 11.7138L12.0071 11.7255L12.1015 11.7583ZM11.4305 13.694V13.794H11.5017L11.525 13.7268L11.4305 13.694ZM10.9415 11.871L11.0357 11.9045L11.1107 11.6932L10.9034 11.7786L10.9415 11.871ZM10.2947 13.694L10.2004 13.6606L10.1531 13.794H10.2947V13.694ZM5.23623 2.43652V3.09107H5.43623V2.43652H5.23623ZM4.02714 2.53652H5.33623V2.33652H4.02714V2.53652ZM4.12714 3.09107V2.43652H3.92714V3.09107H4.12714ZM4.12714 10.7274V3.09107H3.92714V10.7274H4.12714ZM4.12714 10.7274V10.7274H3.92714V10.7274H4.12714ZM2.5 10.8274H4.02714V10.6274H2.5V10.8274ZM4.75991 13.3922L2.57809 10.665L2.42191 10.7899L4.60373 13.5172L4.75991 13.3922ZM6.78555 10.665L4.60373 13.3922L4.75991 13.5172L6.94172 10.7899L6.78555 10.665ZM5.33623 10.8274H6.86364V10.6274H5.33623V10.8274ZM5.23623 10.7274V10.7274H5.43623V10.7274H5.23623ZM5.23623 3.09107V10.7274H5.43623V3.09107H5.23623ZM11.5343 2.54554V7.73591H11.7343V2.54554H11.5343ZM10.5871 2.64554H11.6343V2.44554H10.5871V2.64554ZM9.48454 3.63607L10.6526 2.62102L10.5215 2.47005L9.35335 3.4851L9.48454 3.63607ZM9.51895 4.68842V3.56059H9.31895V4.68842H9.51895ZM10.5215 3.59789L9.35335 4.61293L9.48454 4.7639L10.6526 3.74885L10.5215 3.59789ZM10.6871 7.73591V3.67337H10.4871V7.73591H10.6871ZM11.6343 7.63591H10.5871V7.83591H11.6343V7.63591ZM12.0071 11.7255L11.3361 13.6613L11.525 13.7268L12.196 11.791L12.0071 11.7255ZM12.4768 10.2276C12.4768 10.725 12.2704 11.1888 12.0118 11.7141L12.1913 11.8024C12.4483 11.2804 12.6768 10.7775 12.6768 10.2276H12.4768ZM10.7884 8.55533C11.2753 8.55533 11.6963 8.70775 11.9948 8.98838C12.2923 9.26813 12.4768 9.68351 12.4768 10.2276H12.6768C12.6768 9.63587 12.4747 9.16509 12.1318 8.84267C11.7898 8.52112 11.3166 8.35533 10.7884 8.35533V8.55533ZM9.1 10.2437C9.1 9.70373 9.28451 9.28391 9.58267 8.99888C9.88153 8.71318 10.3026 8.55533 10.7884 8.55533V8.35533C10.2592 8.35533 9.78605 8.52777 9.44446 8.85432C9.10217 9.18154 8.9 9.65593 8.9 10.2437H9.1ZM10.5145 11.8435C9.79965 11.8435 9.1 11.2552 9.1 10.2437H8.9C8.9 11.359 9.68264 12.0436 10.5145 12.0436V11.8435ZM10.9034 11.7786C10.7834 11.828 10.645 11.8435 10.5145 11.8435V12.0436C10.6579 12.0436 10.8256 12.0269 10.9796 11.9635L10.9034 11.7786ZM10.3889 13.7275L11.0357 11.9045L10.8472 11.8376L10.2004 13.6606L10.3889 13.7275ZM11.4305 13.594H10.2947V13.794H11.4305V13.594ZM9.94727 10.2357C9.94727 10.5087 10.0276 10.7435 10.177 10.9114C10.3273 11.0803 10.5406 11.1735 10.7884 11.1735V10.9735C10.5932 10.9735 10.4359 10.9015 10.3264 10.7785C10.216 10.6543 10.1473 10.4702 10.1473 10.2357H9.94727ZM10.7884 9.29787C10.5501 9.29787 10.3371 9.38391 10.1842 9.54959C10.0319 9.71473 9.94727 9.95021 9.94727 10.2357H10.1473C10.1473 9.98948 10.2197 9.80605 10.3312 9.6852C10.4422 9.5649 10.5998 9.49787 10.7884 9.49787V9.29787ZM11.6296 10.2357C11.6296 9.95021 11.5449 9.71473 11.3926 9.54959C11.2398 9.38391 11.0267 9.29787 10.7884 9.29787V9.49787C10.9771 9.49787 11.1346 9.5649 11.2456 9.6852C11.3571 9.80605 11.4296 9.98948 11.4296 10.2357H11.6296ZM10.7884 11.1735C11.0267 11.1735 11.2398 11.0875 11.3926 10.9218C11.5449 10.7567 11.6296 10.5212 11.6296 10.2357H11.4296C11.4296 10.4819 11.3571 10.6653 11.2456 10.7862C11.1346 10.9065 10.9771 10.9735 10.7884 10.9735V11.1735Z" fill="#979797"/>
</svg>
