<svg width="16" height="16" viewBox="0 0 16 16" fill="none" xmlns="http://www.w3.org/2000/svg">
<path fill-rule="evenodd" clip-rule="evenodd" d="M3 3V13H13V3H3ZM1.8 1.5C1.63431 1.5 1.5 1.63431 1.5 1.8V14.2C1.5 14.3657 1.63431 14.5 1.8 14.5H14.2C14.3657 14.5 14.5 14.3657 14.5 14.2V1.8C14.5 1.63431 14.3657 1.5 14.2 1.5H1.8ZM5 6.93934L5.53033 7.46967L7 8.93934L10.4697 5.46967L11 4.93934L12.0607 6L11.5303 6.53033L8.06066 10L7.53033 10.5303L7 11.0607L6.46967 10.5303L5.93934 10L4.46967 8.53033L3.93934 8L5 6.93934Z" fill="#999999"/>
</svg>
