<svg width="16" height="16" viewBox="0 0 16 16" fill="none" xmlns="http://www.w3.org/2000/svg">
<path fill-rule="evenodd" clip-rule="evenodd" d="M5.75 5C5.75 3.75736 6.75736 2.75 8 2.75C9.24264 2.75 10.25 3.75736 10.25 5C10.25 6.24264 9.24264 7.25 8 7.25C6.75736 7.25 5.75 6.24264 5.75 5ZM8 1.25C5.92893 1.25 4.25 2.92893 4.25 5C4.25 7.07107 5.92893 8.75 8 8.75C10.0711 8.75 11.75 7.07107 11.75 5C11.75 2.92893 10.0711 1.25 8 1.25ZM3.5 13C3.5 11.6193 4.61929 10.5 6 10.5H10C11.3807 10.5 12.5 11.6193 12.5 13V13.5H3.5V13ZM2 13C2 10.7909 3.79086 9 6 9H10C12.2091 9 14 10.7909 14 13V14C14 14.5523 13.5523 15 13 15H3C2.44772 15 2 14.5523 2 14V13Z" fill="#999999"/>
</svg>
