<svg width="16" height="16" viewBox="0 0 16 16" fill="none" xmlns="http://www.w3.org/2000/svg">
<path fill-rule="evenodd" clip-rule="evenodd" d="M8 9.19056C9.10457 9.19056 10.0001 10.0432 10.0001 11.0952V13H2V11.0952C2 10.0432 2.89549 9.19056 4.00005 9.19056H8ZM12.0001 9.19056C13.1047 9.19056 14 10.0432 14 11.0952V13H11.4442C11.199 13.0002 11 12.8107 11 12.5769C11 12.0157 11 11.0952 11 11.0952C11 10.5566 10.7653 10.0704 10.3881 9.72399C10.2984 9.64421 10.2689 9.52036 10.3138 9.41157C10.3586 9.30292 10.4687 9.23122 10.5914 9.23107C11.2984 9.1918 12.0001 9.19056 12.0001 9.19056ZM5.99995 3C7.65696 3 9.00011 4.27918 9.00011 5.85712C9.00011 7.43506 7.65696 8.71424 5.99995 8.71424C4.34309 8.71424 2.99995 7.43506 2.99995 5.85712C2.99995 4.27918 4.34309 3 5.99995 3ZM10.0001 3C11.6569 3 13.0001 4.27918 13.0001 5.85712C13.0001 7.43506 11.6569 8.71424 10.0001 8.71424C9.82552 8.71424 9.65457 8.70012 9.48835 8.67296C9.28595 8.64099 9.11924 8.50441 9.05601 8.31863C8.99278 8.13285 9.04362 7.92892 9.18784 7.79017C9.69613 7.29073 10.0001 6.60783 10.0001 5.85712C10.0001 5.10656 9.69613 4.42352 9.19909 3.91368C9.05861 3.77896 9.00891 3.58092 9.07035 3.40027C9.13178 3.21961 9.2941 3.08691 9.49079 3.05634C9.65457 3.01428 9.82552 3 10.0001 3Z" fill="#333333"/>
</svg>
