<svg width="16" height="16" viewBox="0 0 16 16" fill="none" xmlns="http://www.w3.org/2000/svg">
<path d="M7.5 10.5V8.5H5.5V7.5H7.5V5.5H8.5V7.5H10.5V8.5H8.5V10.5H7.5Z" fill="#333333"/>
<path fill-rule="evenodd" clip-rule="evenodd" d="M2.5 3.5C2.5 2.94771 2.94772 2.5 3.5 2.5H12.5C13.0523 2.5 13.5 2.94772 13.5 3.5V12.5C13.5 13.0523 13.0523 13.5 12.5 13.5H3.5C2.94771 13.5 2.5 13.0523 2.5 12.5V3.5ZM3.9 12.1V3.9H12.1V12.1H3.9Z" fill="#333333"/>
<path d="M7.5 10.5V8.5H5.5V7.5H7.5V5.5H8.5V7.5H10.5V8.5H8.5V10.5H7.5Z" stroke="#333333" stroke-width="0.3"/>
<path fill-rule="evenodd" clip-rule="evenodd" d="M2.5 3.5C2.5 2.94771 2.94772 2.5 3.5 2.5H12.5C13.0523 2.5 13.5 2.94772 13.5 3.5V12.5C13.5 13.0523 13.0523 13.5 12.5 13.5H3.5C2.94771 13.5 2.5 13.0523 2.5 12.5V3.5ZM3.9 12.1V3.9H12.1V12.1H3.9Z" stroke="#333333" stroke-width="0.3"/>
</svg>
