<svg width="16" height="16" viewBox="0 0 16 16" fill="none" xmlns="http://www.w3.org/2000/svg">
<mask id="path-1-inside-1" fill="white">
<rect x="2.5" y="2.5" width="11" height="11" rx="1"/>
</mask>
<rect x="2.5" y="2.5" width="11" height="11" rx="1" stroke="#333333" stroke-width="2.8" mask="url(#path-1-inside-1)"/>
<path fill-rule="evenodd" clip-rule="evenodd" d="M7.5 8.5L7.5 10.5H8.5V8.5H10.5V7.5H8.5V5.5H7.5L7.5 7.5H5.5V8.5H7.5Z" fill="#333333"/>
<path d="M7.5 10.5H7.35V10.65H7.5V10.5ZM7.5 8.5H7.65V8.35H7.5V8.5ZM8.5 10.5V10.65H8.65V10.5H8.5ZM8.5 8.5V8.35H8.35V8.5H8.5ZM10.5 8.5V8.65H10.65V8.5H10.5ZM10.5 7.5H10.65V7.35H10.5V7.5ZM8.5 7.5H8.35V7.65H8.5V7.5ZM8.5 5.5H8.65V5.35H8.5V5.5ZM7.5 5.5V5.35H7.35V5.5L7.5 5.5ZM7.5 7.5V7.65H7.65V7.5H7.5ZM5.5 7.5V7.35H5.35V7.5H5.5ZM5.5 8.5H5.35V8.65H5.5V8.5ZM7.65 10.5V8.5H7.35L7.35 10.5H7.65ZM8.5 10.35H7.5V10.65H8.5V10.35ZM8.35 8.5V10.5H8.65V8.5H8.35ZM10.5 8.35H8.5V8.65H10.5V8.35ZM10.35 7.5V8.5H10.65V7.5H10.35ZM8.5 7.65H10.5V7.35H8.5V7.65ZM8.35 5.5V7.5H8.65V5.5H8.35ZM7.5 5.65H8.5V5.35H7.5V5.65ZM7.65 7.5L7.65 5.5L7.35 5.5L7.35 7.5H7.65ZM5.5 7.65H7.5V7.35H5.5V7.65ZM5.65 8.5V7.5H5.35V8.5H5.65ZM7.5 8.35H5.5V8.65H7.5V8.35Z" fill="#333333"/>
</svg>
