<svg width="16" height="16" viewBox="0 0 16 16" fill="none" xmlns="http://www.w3.org/2000/svg">
<path fill-rule="evenodd" clip-rule="evenodd" d="M6.08324 1.93311V1.18311H4.58324V1.93311V2.36647H2.5H1V3.86647V12.9998V14.4998H2.5H8.87716C8.52863 14.065 8.26903 13.5558 8.12597 12.9998H2.5V7.44983H13.3667V8.23956C13.9389 8.44758 14.4503 8.78252 14.8667 9.21033V3.86647V2.36647H13.3667H11.2834V1.93311V1.18311H9.78343V1.93311V2.36647H6.08324V1.93311ZM9.78343 4.53311V3.86647H6.08324V4.53311V5.28311H4.58324V4.53311V3.86647H2.5V5.94983H13.3667V3.86647H11.2834V4.53311V5.28311H9.78343V4.53311Z" fill="#999999"/>
<path fill-rule="evenodd" clip-rule="evenodd" d="M12 14.8C13.5464 14.8 14.8 13.5464 14.8 12C14.8 10.4536 13.5464 9.2 12 9.2C10.4536 9.2 9.2 10.4536 9.2 12C9.2 13.5464 10.4536 14.8 12 14.8ZM12 16C14.2091 16 16 14.2091 16 12C16 9.79086 14.2091 8 12 8C9.79086 8 8 9.79086 8 12C8 14.2091 9.79086 16 12 16Z" fill="#979797"/>
<path fill-rule="evenodd" clip-rule="evenodd" d="M12.5 10.5V10H11.5V10.5V11.5V12V12.5H12H12.5H13.5H14V11.5H13.5H12.5V10.5Z" fill="#979797"/>
</svg>
