<svg width="16" height="16" viewBox="0 0 16 16" fill="none" xmlns="http://www.w3.org/2000/svg">
<path fill-rule="evenodd" clip-rule="evenodd" d="M7.31966 11.921L7.29608 11.9328C7.25277 11.9227 7.2097 11.912 7.16687 11.9008L5.84103 12.6584L5.84123 12.6585L7.16689 11.901C7.20971 11.9122 7.25278 11.9229 7.29609 11.933L7.31967 11.9212L7.32937 11.9406C7.66135 12.0152 8.00737 12.0547 8.36374 12.0547C10.9545 12.0547 13.0547 9.9545 13.0547 7.36374C13.0547 7.25997 13.0514 7.157 13.0447 7.05491C13.0514 7.15693 13.0547 7.25984 13.0547 7.36354C13.0547 9.9543 10.9545 12.0545 8.36373 12.0545C8.00736 12.0545 7.66133 12.015 7.32936 11.9404L7.31966 11.921ZM5.84278 12.6594L5.81446 12.6736L4.8455 13.2273V13.2275L5.81447 12.6738L5.84299 12.6595L5.84278 12.6594ZM4.84548 10.4666V10.4665C4.18319 9.71631 3.75814 8.75499 3.68426 7.69541C3.7581 8.75506 4.18315 9.71645 4.84548 10.4666ZM7.21773 11.7073L7.13864 11.6866L5.04548 12.8826V10.3908L4.99541 10.3341C4.29566 9.54152 3.87274 8.50328 3.87274 7.36354C3.87274 4.88324 5.88342 2.87255 8.36373 2.87255C10.844 2.87255 12.8547 4.88324 12.8547 7.36354C12.8547 9.84385 10.844 11.8545 8.36373 11.8545C8.05504 11.8545 7.75469 11.8236 7.46523 11.7649L7.4091 11.6526L7.27194 11.7212C7.25382 11.7167 7.23575 11.7121 7.21773 11.7073ZM7.39916 7.55446H5.81433L5.85344 7.78755C6.05544 8.9916 7.10226 9.90904 8.36375 9.90904C9.62524 9.90904 10.6721 8.9916 10.8741 7.78755L10.9132 7.55446H9.32833L9.28119 7.68781C9.14756 8.06589 8.78697 8.33629 8.36375 8.33629C7.94052 8.33629 7.57993 8.06589 7.4463 7.68781L7.39916 7.55446ZM2.29999 7.36354C2.29999 8.81917 2.81314 10.1554 3.66819 11.2006V13.7561C3.66819 14.4569 4.40571 14.9127 5.03254 14.5993L7.49904 13.3661C7.78156 13.4064 8.07026 13.4273 8.36373 13.4273C11.7126 13.4273 14.4275 10.7125 14.4275 7.36354C14.4275 4.01463 11.7126 1.2998 8.36373 1.2998C5.01482 1.2998 2.29999 4.01463 2.29999 7.36354ZM2.50932 7.69718C2.50313 7.58682 2.5 7.47564 2.5 7.36374C2.5 4.12528 5.12528 1.5 8.36374 1.5C11.4741 1.5 14.0188 3.92168 14.2153 6.98239C14.0189 3.92158 11.4741 1.4998 8.36373 1.4998C5.12527 1.4998 2.49999 4.12509 2.49999 7.36354C2.49999 7.47551 2.50313 7.58675 2.50932 7.69718ZM3.86968 13.8042C3.8687 13.7884 3.86821 13.7724 3.86821 13.7563V11.1287C3.8682 11.1287 3.8682 11.1287 3.86819 11.1287V13.7561C3.86819 13.7723 3.86869 13.7884 3.86968 13.8042ZM6.05071 7.75465C6.0507 7.75459 6.05069 7.75452 6.05068 7.75446H7.25773C7.41872 8.20995 7.85312 8.53629 8.36375 8.53629C8.87437 8.53629 9.30877 8.20995 9.46976 7.75446H10.6768C10.6768 7.75452 10.6768 7.75459 10.6768 7.75465H9.46977C9.30878 8.21015 8.87438 8.53649 8.36376 8.53649C7.85314 8.53649 7.41874 8.21015 7.25774 7.75465H6.05071Z" fill="#333333"/>
</svg>
