<svg width="16" height="16" viewBox="0 0 16 16" fill="none" xmlns="http://www.w3.org/2000/svg">
<path d="M2.75 2.5C2.75 2.36193 2.86193 2.25 3 2.25H13C13.1381 2.25 13.25 2.36193 13.25 2.5V13.882C13.25 14.0678 13.0544 14.1887 12.8882 14.1056L10.5466 12.9348C10.3036 12.8133 10.0356 12.75 9.76393 12.75H3C2.86193 12.75 2.75 12.6381 2.75 12.5V2.5Z" stroke="#333333" stroke-width="1.5"/>
<path fill-rule="evenodd" clip-rule="evenodd" d="M4.5 9.06066C5.40482 9.96548 6.65482 10.5251 8.03553 10.5251C9.41625 10.5251 10.6662 9.96548 11.5711 9.06066L10.5104 8C9.87703 8.63338 9.00203 9.02513 8.03553 9.02513C7.06904 9.02513 6.19404 8.63338 5.56066 8L4.5 9.06066Z" fill="#333333"/>
</svg>
