<svg width="16" height="16" viewBox="0 0 16 16" fill="none" xmlns="http://www.w3.org/2000/svg">
<path fill-rule="evenodd" clip-rule="evenodd" d="M5.70455 1.79541H6.45455H9.72727H10.4773V3.29541H9.72727H6.45455H5.70455V1.79541ZM0.795471 3.97705H1.54547H14.6364H15.3864V5.47705H14.6364H13V5.6816V12.9998C13 13.5521 12.5523 13.9998 12 13.9998H4.18184C3.62956 13.9998 3.18184 13.5521 3.18184 12.9998V5.6816V5.47705H1.54547H0.795471V3.97705ZM4.68184 5.6816H11.5V12.4998H4.68184V5.6816ZM7.20459 6.70459V7.45459V10.7273V11.4773H5.70459V10.7273V7.45459V6.70459H7.20459ZM10.4773 7.45459V6.70459H8.97729V7.45459V10.7273V11.4773H10.4773V10.7273V7.45459Z" fill="#C0C0C0"/>
</svg>
