<svg width="16" height="16" viewBox="0 0 16 16" fill="none" xmlns="http://www.w3.org/2000/svg">
<path fill-rule="evenodd" clip-rule="evenodd" d="M5.75455 1.84521H6.45455H9.72728H10.4273V3.24521H9.72728H6.45455H5.75455V1.84521ZM0.845459 4.0271H1.54546H14.6364H15.3364V5.4271H14.6364H13V5.5814V12.9996C13 13.5519 12.5523 13.9996 12 13.9996H4.18185C3.62956 13.9996 3.18185 13.5519 3.18185 12.9996V5.5814V5.4271H1.54546H0.845459V4.0271ZM4.58185 5.5814H11.6V12.5996H4.58185V5.5814ZM7.1546 6.75439V7.45439V10.7271V11.4271H5.7546V10.7271V7.45439V6.75439H7.1546ZM10.4273 7.45439V6.75439H9.0273V7.45439V10.7271V11.4271H10.4273V10.7271V7.45439Z" fill="#333333"/>
</svg>
