<svg width="16" height="16" viewBox="0 0 16 16" fill="none" xmlns="http://www.w3.org/2000/svg">
<path fill-rule="evenodd" clip-rule="evenodd" d="M3.5 3.5C3.5 3.22386 3.72386 3 4 3H12.1344C12.4105 3 12.6344 3.22386 12.6344 3.5V13.0782C12.6344 13.4668 12.2104 13.7069 11.8771 13.5069L8.58168 11.5296C8.265 11.3396 7.86937 11.3396 7.55269 11.5296L4.25725 13.5069C3.92398 13.7069 3.5 13.4668 3.5 13.0782V3.5ZM4.87031 5.44721C4.87031 5.033 5.20609 4.69721 5.62031 4.69721H10.5144C10.9286 4.69721 11.2644 5.033 11.2644 5.44721C11.2644 5.86143 10.9286 6.19721 10.5144 6.19721H5.62031C5.20609 6.19721 4.87031 5.86143 4.87031 5.44721ZM5.62031 7.43731C5.20609 7.43731 4.87031 7.7731 4.87031 8.18731C4.87031 8.60153 5.20609 8.93731 5.62031 8.93731H10.5144C10.9286 8.93731 11.2644 8.60153 11.2644 8.18731C11.2644 7.7731 10.9286 7.43731 10.5144 7.43731H5.62031Z" fill="white"/>
</svg>
