<svg width="20" height="20" viewBox="0 0 20 20" fill="none" xmlns="http://www.w3.org/2000/svg">
<path fill-rule="evenodd" clip-rule="evenodd" d="M16.2407 10.0215C16.2556 10.0385 16.2699 10.0552 16.2837 10.0714C16.2699 10.0877 16.2556 10.1043 16.2407 10.1214C15.916 10.4938 15.416 10.9656 14.7775 11.4277C13.4844 12.3634 11.7879 13.1429 10 13.1429C8.21208 13.1429 6.5156 12.3634 5.22251 11.4277C4.584 10.9656 4.08398 10.4938 3.75927 10.1214C3.74441 10.1043 3.73008 10.0877 3.71627 10.0714C3.73008 10.0552 3.74441 10.0385 3.75927 10.0215C4.08398 9.64909 4.584 9.17725 5.22251 8.7152C6.5156 7.77948 8.21208 7 10 7C11.7879 7 13.4844 7.77948 14.7775 8.7152C15.416 9.17725 15.916 9.64909 16.2407 10.0215ZM18 10.0714C18 10.8333 14.4183 14.6429 10 14.6429C5.58172 14.6429 2 10.8333 2 10.0714C2 9.30952 5.58172 5.5 10 5.5C14.4183 5.5 18 9.30952 18 10.0714ZM9.96484 12.2852C11.2075 12.2852 12.2148 11.2778 12.2148 10.0352C12.2148 8.79252 11.2075 7.78516 9.96484 7.78516C8.7222 7.78516 7.71484 8.79252 7.71484 10.0352C7.71484 11.2778 8.7222 12.2852 9.96484 12.2852Z" fill="#333333"/>
</svg>
