<svg width="16" height="16" viewBox="0 0 16 16" fill="none" xmlns="http://www.w3.org/2000/svg">
<path fill-rule="evenodd" clip-rule="evenodd" d="M9.2091 12.5H4V3.5H6V2H2.5V14H9.83348L13.5 10.3078V2H8.5V2.15185H7.6309V8.23122L6.08455 6.68487L5.37744 7.39198L7.68513 9.69967L8.03869 10.0532L8.39224 9.69967L10.6999 7.39198L9.99283 6.68487L8.6309 8.0468V3.5H12V9.68958L9.2091 12.5Z" fill="#333333"/>
<path d="M4 12.5V12.65H3.85V12.5H4ZM9.2091 12.5L9.31553 12.6057L9.27154 12.65H9.2091V12.5ZM4 3.5H3.85V3.35H4V3.5ZM6 3.5H6.15V3.65H6V3.5ZM6 2V1.85H6.15V2H6ZM2.5 2H2.35V1.85H2.5V2ZM2.5 14V14.15H2.35V14H2.5ZM9.83348 14L9.93992 14.1057L9.89592 14.15H9.83348V14ZM13.5 10.3078H13.65V10.3697L13.6064 10.4135L13.5 10.3078ZM13.5 2V1.85H13.65V2H13.5ZM8.5 2H8.35V1.85H8.5V2ZM8.5 2.15185H8.65V2.30185H8.5V2.15185ZM7.6309 2.15185H7.4809V2.00185H7.6309V2.15185ZM7.6309 8.23122H7.7809V8.59335L7.52483 8.33729L7.6309 8.23122ZM6.08455 6.68487L5.97848 6.5788L6.08455 6.47274L6.19061 6.5788L6.08455 6.68487ZM5.37744 7.39198L5.27138 7.49804L5.16531 7.39198L5.27138 7.28591L5.37744 7.39198ZM8.03869 10.0532L8.14475 10.1593L8.03869 10.2654L7.93262 10.1593L8.03869 10.0532ZM10.6999 7.39198L10.806 7.28591L10.9121 7.39198L10.806 7.49804L10.6999 7.39198ZM9.99283 6.68487L9.88676 6.5788L9.99283 6.47274L10.0989 6.5788L9.99283 6.68487ZM8.6309 8.0468L8.73696 8.15287L8.4809 8.40893V8.0468H8.6309ZM8.6309 3.5H8.4809V3.35H8.6309V3.5ZM12 3.5V3.35H12.15V3.5H12ZM12 9.68958H12.15V9.75141L12.1064 9.79528L12 9.68958ZM4 12.35H9.2091V12.65H4V12.35ZM4.15 3.5V12.5H3.85V3.5H4.15ZM6 3.65H4V3.35H6V3.65ZM6.15 2V3.5H5.85V2H6.15ZM2.5 1.85H6V2.15H2.5V1.85ZM2.35 14V2H2.65V14H2.35ZM9.83348 14.15H2.5V13.85H9.83348V14.15ZM13.6064 10.4135L9.93992 14.1057L9.72705 13.8943L13.3936 10.2021L13.6064 10.4135ZM13.65 2V10.3078H13.35V2H13.65ZM8.5 1.85H13.5V2.15H8.5V1.85ZM8.35 2.15185V2H8.65V2.15185H8.35ZM7.6309 2.00185H8.5V2.30185H7.6309V2.00185ZM7.4809 8.23122V2.15185H7.7809V8.23122H7.4809ZM6.19061 6.5788L7.73696 8.12515L7.52483 8.33729L5.97848 6.79094L6.19061 6.5788ZM5.27138 7.28591L5.97848 6.5788L6.19061 6.79094L5.48351 7.49804L5.27138 7.28591ZM7.57907 9.80574L5.27138 7.49804L5.48351 7.28591L7.7912 9.5936L7.57907 9.80574ZM7.93262 10.1593L7.57907 9.80574L7.7912 9.5936L8.14475 9.94716L7.93262 10.1593ZM8.49831 9.80574L8.14475 10.1593L7.93262 9.94716L8.28617 9.5936L8.49831 9.80574ZM10.806 7.49804L8.49831 9.80574L8.28617 9.5936L10.5939 7.28591L10.806 7.49804ZM10.0989 6.5788L10.806 7.28591L10.5939 7.49804L9.88676 6.79094L10.0989 6.5788ZM8.52483 7.94073L9.88676 6.5788L10.0989 6.79094L8.73696 8.15287L8.52483 7.94073ZM8.7809 3.5V8.0468H8.4809V3.5H8.7809ZM12 3.65H8.6309V3.35H12V3.65ZM11.85 9.68958V3.5H12.15V9.68958H11.85ZM9.10266 12.3943L11.8936 9.58389L12.1064 9.79528L9.31553 12.6057L9.10266 12.3943Z" fill="#333333"/>
</svg>
