<svg width="16" height="16" viewBox="0 0 16 16" fill="none" xmlns="http://www.w3.org/2000/svg">
<path fill-rule="evenodd" clip-rule="evenodd" d="M4 3.5H9.2091L12 6.31042V12.5H8.5V14H13.5V5.69216L9.83348 2H2.5V14H6V12.5H4V3.5Z" fill="#333333"/>
<path fill-rule="evenodd" clip-rule="evenodd" d="M8.39224 6.30033L8.03869 5.94678L7.68513 6.30033L5.37744 8.60802L6.08455 9.31513L7.6309 7.76878V13.8482H8.6309V7.9532L9.99283 9.31513L10.6999 8.60802L8.39224 6.30033Z" fill="#333333"/>
<path d="M8.03869 5.94678L8.14475 5.84071L8.03869 5.73465L7.93262 5.84071L8.03869 5.94678ZM8.39224 6.30033L8.49831 6.19426V6.19426L8.39224 6.30033ZM7.68513 6.30033L7.57907 6.19426V6.19426L7.68513 6.30033ZM5.37744 8.60802L5.27138 8.50196L5.16531 8.60802L5.27138 8.71409L5.37744 8.60802ZM6.08455 9.31513L5.97848 9.4212L6.08455 9.52726L6.19061 9.4212L6.08455 9.31513ZM7.6309 7.76878H7.7809V7.40665L7.52483 7.66271L7.6309 7.76878ZM7.6309 13.8482H7.4809V13.9981H7.6309V13.8482ZM8.6309 13.8482V13.9981H8.7809V13.8482H8.6309ZM8.6309 7.9532L8.73696 7.84713L8.4809 7.59107V7.9532H8.6309ZM9.99283 9.31513L9.88676 9.4212L9.99283 9.52726L10.0989 9.4212L9.99283 9.31513ZM10.6999 8.60802L10.806 8.71409L10.9121 8.60802L10.806 8.50196L10.6999 8.60802ZM7.93262 6.05284L8.28617 6.4064L8.49831 6.19426L8.14475 5.84071L7.93262 6.05284ZM7.7912 6.4064L8.14475 6.05284L7.93262 5.84071L7.57907 6.19426L7.7912 6.4064ZM5.48351 8.71409L7.7912 6.4064L7.57907 6.19426L5.27138 8.50196L5.48351 8.71409ZM6.19061 9.20906L5.48351 8.50196L5.27138 8.71409L5.97848 9.4212L6.19061 9.20906ZM7.52483 7.66271L5.97848 9.20906L6.19061 9.4212L7.73696 7.87485L7.52483 7.66271ZM7.7809 13.8482V7.76878H7.4809V13.8482H7.7809ZM8.6309 13.6982H7.6309V13.9981H8.6309V13.6982ZM8.4809 7.9532V13.8482H8.7809V7.9532H8.4809ZM10.0989 9.20906L8.73696 7.84713L8.52483 8.05927L9.88676 9.4212L10.0989 9.20906ZM10.5939 8.50196L9.88676 9.20906L10.0989 9.4212L10.806 8.71409L10.5939 8.50196ZM8.28617 6.4064L10.5939 8.71409L10.806 8.50196L8.49831 6.19426L8.28617 6.4064Z" fill="#333333"/>
</svg>
