<svg width="16" height="16" viewBox="0 0 16 16" fill="none" xmlns="http://www.w3.org/2000/svg">
<rect opacity="0.01" width="16" height="16" fill="#D8D8D8"/>
<path fill-rule="evenodd" clip-rule="evenodd" d="M6.75 4.5C6.75 3.5335 7.5335 2.75 8.5 2.75H11V1.25H8.5C6.70507 1.25 5.25 2.70507 5.25 4.5V5V7.25H2.5H1.75V8.75H2.5H5.25V11V11.5C5.25 12.4665 4.4665 13.25 3.5 13.25H1V14.75H3.5C5.29493 14.75 6.75 13.2949 6.75 11.5V11V8.75H9.5H10.25V7.25H9.5H6.75V5V4.5ZM10.8334 9.98486L11.2577 10.4091L12.5001 11.6515L13.7425 10.4091L14.1667 9.98486L15.0153 10.8334L14.591 11.2577L13.3486 12.5001L14.591 13.7425L15.0153 14.1667L14.1667 15.0153L13.7425 14.591L12.5001 13.3486L11.2577 14.591L10.8334 15.0153L9.98486 14.1667L10.4091 13.7425L11.6515 12.5001L10.4091 11.2577L9.98486 10.8334L10.8334 9.98486Z" fill="#979797"/>
</svg>
