<svg width="16" height="16" viewBox="0 0 16 16" fill="none" xmlns="http://www.w3.org/2000/svg">
<path fill-rule="evenodd" clip-rule="evenodd" d="M3.70002 4.9001V6.3001H5.10002V4.9001H3.70002ZM2.90002 3.6001C2.62388 3.6001 2.40002 3.82396 2.40002 4.1001V7.1001C2.40002 7.37624 2.62388 7.6001 2.90002 7.6001H5.90002C6.17617 7.6001 6.40002 7.37624 6.40002 7.1001V4.1001C6.40002 3.82396 6.17617 3.6001 5.90002 3.6001H2.90002ZM3.70002 9.7001V11.1001H5.10002V9.7001H3.70002ZM2.90002 8.4001C2.62388 8.4001 2.40002 8.62395 2.40002 8.9001V11.9001C2.40002 12.1762 2.62388 12.4001 2.90002 12.4001H5.90002C6.17617 12.4001 6.40002 12.1762 6.40002 11.9001V8.9001C6.40002 8.62395 6.17617 8.4001 5.90002 8.4001H2.90002ZM8.40002 4.1001H7.70002V5.5001H8.40002H13.6H14.3V4.1001H13.6H8.40002ZM7.70002 7.3001H8.40002H13.6H14.3V8.7001H13.6H8.40002H7.70002V7.3001ZM8.40002 10.5001H7.70002V11.9001H8.40002H13.6H14.3V10.5001H13.6H8.40002Z" fill="#333333"/>
</svg>
