<svg width="16" height="16" viewBox="0 0 16 16" fill="none" xmlns="http://www.w3.org/2000/svg">
<path fill-rule="evenodd" clip-rule="evenodd" d="M5.9 3.9V5.6H13.1V3.9H5.9ZM5 2.5C4.72386 2.5 4.5 2.72386 4.5 3V4H2C1.72386 4 1.5 4.22386 1.5 4.5V11.5C1.5 11.7761 1.72386 12 2 12H4.5V13C4.5 13.2761 4.72386 13.5 5 13.5H14C14.2761 13.5 14.5 13.2761 14.5 13V9.5C14.5 9.22386 14.2761 9 14 9H5C4.72386 9 4.5 9.22386 4.5 9.5V10.5H3V5.5H4.5V6.5C4.5 6.77614 4.72386 7 5 7H14C14.2761 7 14.5 6.77614 14.5 6.5V3C14.5 2.72386 14.2761 2.5 14 2.5H5ZM5.9 10.4V12.1H13.1V10.4H5.9Z" fill="#333333"/>
</svg>
