<svg width="16" height="16" viewBox="0 0 16 16" fill="none" xmlns="http://www.w3.org/2000/svg">
<path fill-rule="evenodd" clip-rule="evenodd" d="M3.63636 3V13H12.3636V3H3.63636ZM3.09091 1.5C2.48842 1.5 2 1.94772 2 2.5V13.5C2 14.0523 2.48842 14.5 3.09091 14.5H12.9091C13.5116 14.5 14 14.0523 14 13.5V2.5C14 1.94772 13.5116 1.5 12.9091 1.5H3.09091Z" fill="#333333"/>
<path d="M5.5 2.5V1.8H4.8V2.5H5.5ZM9 2.5H9.7V1.8H9V2.5ZM9 8L8.54445 8.53148C8.752 8.70939 9.04414 8.75019 9.2925 8.63596C9.54086 8.52173 9.7 8.27337 9.7 8H9ZM5.5 8H4.8C4.8 8.27337 4.95914 8.52173 5.2075 8.63596C5.45586 8.75019 5.748 8.70939 5.95555 8.53148L5.5 8ZM7.25 6.5L7.70555 5.96852L7.25 5.57805L6.79445 5.96852L7.25 6.5ZM5.5 3.2H9V1.8H5.5V3.2ZM8.3 2.5V8H9.7V2.5H8.3ZM6.2 8V2.5H4.8V8H6.2ZM9.45555 7.46852L7.70555 5.96852L6.79445 7.03148L8.54445 8.53148L9.45555 7.46852ZM6.79445 5.96852L5.04445 7.46852L5.95555 8.53148L7.70555 7.03148L6.79445 5.96852Z" fill="#333333"/>
</svg>
