<svg width="16" height="16" viewBox="0 0 16 16" fill="none" xmlns="http://www.w3.org/2000/svg">
<path fill-rule="evenodd" clip-rule="evenodd" d="M8.00001 1.4502C4.38255 1.4502 1.45001 4.38273 1.45001 8.0002C1.45001 11.6177 4.38255 14.5502 8.00001 14.5502C11.6175 14.5502 14.55 11.6177 14.55 8.0002C14.55 4.38273 11.6175 1.4502 8.00001 1.4502ZM2.95001 8.0002C2.95001 5.21116 5.21097 2.9502 8.00001 2.9502C10.789 2.9502 13.05 5.21116 13.05 8.0002C13.05 10.7892 10.789 13.0502 8.00001 13.0502C5.21097 13.0502 2.95001 10.7892 2.95001 8.0002ZM8.06668 7.48353H7.91668L7.41668 7.48358V9.89469H8.71668V8.69106C9.67968 8.41006 10.3833 7.52081 10.3833 6.46686C10.3833 5.1874 9.34614 4.1502 8.06668 4.1502C6.78722 4.1502 5.75001 5.1874 5.75001 6.46686V6.61686H7.05001V6.46686C7.05001 5.90537 7.50519 5.4502 8.06668 5.4502C8.62817 5.4502 9.08335 5.90537 9.08335 6.46686C9.08335 7.02835 8.62817 7.48353 8.06668 7.48353ZM8.06668 9.98358C7.61565 9.98358 7.25001 10.3492 7.25001 10.8002C7.25001 11.2513 7.61565 11.6169 8.06668 11.6169C8.51771 11.6169 8.88335 11.2513 8.88335 10.8002C8.88335 10.3492 8.51771 9.98358 8.06668 9.98358Z" fill="#333333"/>
</svg>
