<svg width="16" height="16" viewBox="0 0 16 16" fill="none" xmlns="http://www.w3.org/2000/svg">
<path fill-rule="evenodd" clip-rule="evenodd" d="M8.74998 9.1625C9.15033 9.12273 9.54141 9.05146 9.92071 8.95123L10.2129 9.75408L10.4694 10.4588L11.879 9.94582L11.6225 9.24105L11.325 8.42387C11.5417 8.31654 11.7524 8.19906 11.9565 8.07205L12.3009 8.51288L12.7627 9.10388L13.9447 8.18039L13.4829 7.58938L13.1448 7.15663C13.4563 6.86294 13.7425 6.54294 13.9999 6.20023L12.8006 5.29932C12.5368 5.65048 12.2356 5.97166 11.9028 6.25694L11.4706 6.59465C10.4906 7.29084 9.29304 7.69955 7.99995 7.69955C6.7071 7.69955 5.50978 7.291 4.52987 6.59504L4.09658 6.25652C3.76969 5.9762 3.47322 5.66124 3.21279 5.31724L2.01685 6.22261C2.26991 6.55689 2.55044 6.86936 2.8551 7.15666L2.51701 7.58938L2.05527 8.18039L3.23728 9.10388L3.69903 8.51288L4.04342 8.07207C4.24757 8.19908 4.45827 8.31656 4.67491 8.42389L4.37749 9.24105L4.12097 9.94582L5.53051 10.4588L5.78702 9.75408L6.07923 8.95124C6.45854 9.05147 6.84963 9.12273 7.24998 9.1625V9.97963V10.7296H8.74998V9.97963V9.1625Z" fill="#333333"/>
</svg>
