<svg width="16" height="16" viewBox="0 0 16 16" fill="none" xmlns="http://www.w3.org/2000/svg">
<path fill-rule="evenodd" clip-rule="evenodd" d="M4 12.5H9.2091L12 9.68958V3.5H8.5V2H13.5V10.3078L9.83348 14H2.5V2H6V3.5H4V12.5Z" fill="#333333"/>
<path fill-rule="evenodd" clip-rule="evenodd" d="M8.39224 9.69967L8.03869 10.0532L7.68513 9.69967L5.37744 7.39198L6.08455 6.68487L7.6309 8.23122V2.15185H8.6309V8.0468L9.99283 6.68487L10.6999 7.39198L8.39224 9.69967Z" fill="#333333"/>
<path d="M8.03869 10.0532L8.14475 10.1593L8.03869 10.2654L7.93262 10.1593L8.03869 10.0532ZM8.39224 9.69967L8.49831 9.80574V9.80574L8.39224 9.69967ZM7.68513 9.69967L7.57907 9.80574V9.80574L7.68513 9.69967ZM5.37744 7.39198L5.27138 7.49804L5.16531 7.39198L5.27138 7.28591L5.37744 7.39198ZM6.08455 6.68487L5.97848 6.5788L6.08455 6.47274L6.19061 6.5788L6.08455 6.68487ZM7.6309 8.23122H7.7809V8.59335L7.52483 8.33729L7.6309 8.23122ZM7.6309 2.15185H7.4809V2.00185H7.6309V2.15185ZM8.6309 2.15185V2.00185H8.7809V2.15185H8.6309ZM8.6309 8.0468L8.73696 8.15287L8.4809 8.40893V8.0468H8.6309ZM9.99283 6.68487L9.88676 6.5788L9.99283 6.47274L10.0989 6.5788L9.99283 6.68487ZM10.6999 7.39198L10.806 7.28591L10.9121 7.39198L10.806 7.49804L10.6999 7.39198ZM7.93262 9.94716L8.28617 9.5936L8.49831 9.80574L8.14475 10.1593L7.93262 9.94716ZM7.7912 9.5936L8.14475 9.94716L7.93262 10.1593L7.57907 9.80574L7.7912 9.5936ZM5.48351 7.28591L7.7912 9.5936L7.57907 9.80574L5.27138 7.49804L5.48351 7.28591ZM6.19061 6.79094L5.48351 7.49804L5.27138 7.28591L5.97848 6.5788L6.19061 6.79094ZM7.52483 8.33729L5.97848 6.79094L6.19061 6.5788L7.73696 8.12515L7.52483 8.33729ZM7.7809 2.15185V8.23122H7.4809V2.15185H7.7809ZM8.6309 2.30185H7.6309V2.00185H8.6309V2.30185ZM8.4809 8.0468V2.15185H8.7809V8.0468H8.4809ZM10.0989 6.79094L8.73696 8.15287L8.52483 7.94073L9.88676 6.5788L10.0989 6.79094ZM10.5939 7.49804L9.88676 6.79094L10.0989 6.5788L10.806 7.28591L10.5939 7.49804ZM8.28617 9.5936L10.5939 7.28591L10.806 7.49804L8.49831 9.80574L8.28617 9.5936Z" fill="#333333"/>
</svg>
