<svg width="16" height="16" viewBox="0 0 16 16" fill="none" xmlns="http://www.w3.org/2000/svg">
<path fill-rule="evenodd" clip-rule="evenodd" d="M9.2091 3.5H4V12.5H6V14H2.5V2H9.83348L13.5 5.69216V14H8.5V13.8482H7.6309V7.76878L6.08455 9.31513L5.37744 8.60802L7.68513 6.30033L8.03869 5.94678L8.39224 6.30033L10.6999 8.60802L9.99283 9.31513L8.6309 7.9532V12.5H12V6.31042L9.2091 3.5Z" fill="#333333"/>
<path d="M4 3.5V3.35H3.85V3.5H4ZM9.2091 3.5L9.31553 3.3943L9.27154 3.35H9.2091V3.5ZM4 12.5H3.85V12.65H4V12.5ZM6 12.5H6.15V12.35H6V12.5ZM6 14V14.15H6.15V14H6ZM2.5 14H2.35V14.15H2.5V14ZM2.5 2V1.85H2.35V2H2.5ZM9.83348 2L9.93992 1.8943L9.89592 1.85H9.83348V2ZM13.5 5.69216H13.65V5.63033L13.6064 5.58646L13.5 5.69216ZM13.5 14V14.15H13.65V14H13.5ZM8.5 14H8.35V14.15H8.5V14ZM8.5 13.8482H8.65V13.6982H8.5V13.8482ZM7.6309 13.8482H7.4809V13.9981H7.6309V13.8482ZM7.6309 7.76878H7.7809V7.40665L7.52483 7.66271L7.6309 7.76878ZM6.08455 9.31513L5.97848 9.4212L6.08455 9.52726L6.19061 9.4212L6.08455 9.31513ZM5.37744 8.60802L5.27138 8.50196L5.16531 8.60802L5.27138 8.71409L5.37744 8.60802ZM8.03869 5.94678L8.14475 5.84071L8.03869 5.73465L7.93262 5.84071L8.03869 5.94678ZM10.6999 8.60802L10.806 8.71409L10.9121 8.60802L10.806 8.50196L10.6999 8.60802ZM9.99283 9.31513L9.88676 9.4212L9.99283 9.52726L10.0989 9.4212L9.99283 9.31513ZM8.6309 7.9532L8.73696 7.84713L8.4809 7.59107V7.9532H8.6309ZM8.6309 12.5H8.4809V12.65H8.6309V12.5ZM12 12.5V12.65H12.15V12.5H12ZM12 6.31042H12.15V6.24859L12.1064 6.20472L12 6.31042ZM4 3.65H9.2091V3.35H4V3.65ZM4.15 12.5V3.5H3.85V12.5H4.15ZM6 12.35H4V12.65H6V12.35ZM6.15 14V12.5H5.85V14H6.15ZM2.5 14.15H6V13.85H2.5V14.15ZM2.35 2V14H2.65V2H2.35ZM9.83348 1.85H2.5V2.15H9.83348V1.85ZM13.6064 5.58646L9.93992 1.8943L9.72705 2.1057L13.3936 5.79785L13.6064 5.58646ZM13.65 14V5.69216H13.35V14H13.65ZM8.5 14.15H13.5V13.85H8.5V14.15ZM8.35 13.8482V14H8.65V13.8482H8.35ZM7.6309 13.9981H8.5V13.6982H7.6309V13.9981ZM7.4809 7.76878V13.8482H7.7809V7.76878H7.4809ZM6.19061 9.4212L7.73696 7.87485L7.52483 7.66271L5.97848 9.20906L6.19061 9.4212ZM5.27138 8.71409L5.97848 9.4212L6.19061 9.20906L5.48351 8.50196L5.27138 8.71409ZM7.57907 6.19426L5.27138 8.50196L5.48351 8.71409L7.7912 6.4064L7.57907 6.19426ZM7.93262 5.84071L7.57907 6.19426L7.7912 6.4064L8.14475 6.05284L7.93262 5.84071ZM8.49831 6.19426L8.14475 5.84071L7.93262 6.05284L8.28617 6.4064L8.49831 6.19426ZM10.806 8.50196L8.49831 6.19426L8.28617 6.4064L10.5939 8.71409L10.806 8.50196ZM10.0989 9.4212L10.806 8.71409L10.5939 8.50196L9.88676 9.20906L10.0989 9.4212ZM8.52483 8.05927L9.88676 9.4212L10.0989 9.20906L8.73696 7.84713L8.52483 8.05927ZM8.7809 12.5V7.9532H8.4809V12.5H8.7809ZM12 12.35H8.6309V12.65H12V12.35ZM11.85 6.31042V12.5H12.15V6.31042H11.85ZM9.10266 3.6057L11.8936 6.41611L12.1064 6.20472L9.31553 3.3943L9.10266 3.6057Z" fill="#333333"/>
</svg>
