<svg width="16" height="16" viewBox="0 0 16 16" fill="none" xmlns="http://www.w3.org/2000/svg">
<path fill-rule="evenodd" clip-rule="evenodd" d="M6.35355 5L3.35355 8L3 8.35355L3.35355 8.70711L6.35355 11.7071L7.06066 11L4.88388 8.82322H12.6464V7.82322H4.94454L7.06066 5.70711L6.35355 5Z" fill="#333333"/>
<path d="M3.35355 8L3.45962 8.10607L3.35355 8ZM6.35355 5L6.45962 4.89393L6.35355 4.78787L6.24749 4.89393L6.35355 5ZM3 8.35355L2.89393 8.24749L2.78787 8.35355L2.89393 8.45962L3 8.35355ZM3.35355 8.70711L3.45962 8.60104L3.35355 8.70711ZM6.35355 11.7071L6.24749 11.8132L6.35355 11.9192L6.45962 11.8132L6.35355 11.7071ZM7.06066 11L7.16673 11.1061L7.27279 11L7.16673 10.8939L7.06066 11ZM4.88388 8.82322V8.67322H4.52175L4.77782 8.92929L4.88388 8.82322ZM12.6464 8.82322V8.97322H12.7964V8.82322H12.6464ZM12.6464 7.82322H12.7964V7.67322H12.6464V7.82322ZM4.94454 7.82322L4.83848 7.71716L4.58241 7.97322H4.94454V7.82322ZM7.06066 5.70711L7.16673 5.81317L7.27279 5.70711L7.16673 5.60104L7.06066 5.70711ZM3.45962 8.10607L6.45962 5.10607L6.24749 4.89393L3.24749 7.89393L3.45962 8.10607ZM3.10607 8.45962L3.45962 8.10607L3.24749 7.89393L2.89393 8.24749L3.10607 8.45962ZM3.45962 8.60104L3.10607 8.24749L2.89393 8.45962L3.24749 8.81317L3.45962 8.60104ZM6.45962 11.601L3.45962 8.60104L3.24749 8.81317L6.24749 11.8132L6.45962 11.601ZM6.95459 10.8939L6.24749 11.601L6.45962 11.8132L7.16673 11.1061L6.95459 10.8939ZM4.77782 8.92929L6.95459 11.1061L7.16673 10.8939L4.98995 8.71716L4.77782 8.92929ZM12.6464 8.67322H4.88388V8.97322H12.6464V8.67322ZM12.4964 7.82322V8.82322H12.7964V7.82322H12.4964ZM4.94454 7.97322H12.6464V7.67322H4.94454V7.97322ZM6.95459 5.60104L4.83848 7.71716L5.05061 7.92929L7.16673 5.81317L6.95459 5.60104ZM6.24749 5.10607L6.95459 5.81317L7.16673 5.60104L6.45962 4.89393L6.24749 5.10607Z" fill="#333333"/>
</svg>
