<svg width="16" height="16" viewBox="0 0 16 16" fill="none" xmlns="http://www.w3.org/2000/svg">
<path fill-rule="evenodd" clip-rule="evenodd" d="M5.8 6H10.2V5C10.2 3.78497 9.21503 2.8 8 2.8C6.78497 2.8 5.8 3.78497 5.8 5V6ZM11.5 6H12.5C13.0523 6 13.5 6.44772 13.5 7V13C13.5 13.5523 13.0523 14 12.5 14H3.5C2.94771 14 2.5 13.5523 2.5 13V7C2.5 6.44772 2.94772 6 3.5 6H4.5V5C4.5 3.067 6.067 1.5 8 1.5C9.933 1.5 11.5 3.067 11.5 5V6ZM4.5 7.3V7.30078H5.8H10.2H11.5V7.3H12.2V12.7H3.8V7.3H4.5Z" fill="#333333"/>
</svg>
