<svg width="16" height="16" viewBox="0 0 16 16" fill="none" xmlns="http://www.w3.org/2000/svg">
<path fill-rule="evenodd" clip-rule="evenodd" d="M3.69876 2L3.69877 2.00001L0.797522 9.73667L0.53418 10.4389L1.93867 10.9656L2.20202 10.2634L3.09764 7.87501H5.87477H5.90189L6.79752 10.2634L7.06086 10.9656L8.46536 10.4389L8.20202 9.73667L5.30077 2.00001L5.30077 2H3.69876ZM5.33939 6.37501L4.49977 4.13601L3.66014 6.37501H5.33939ZM0.749769 11.75H1.49977H14.4998H15.2498V13.25H14.4998H1.49977H0.749769V11.75ZM10.4998 8.25001H9.74977V9.75001H10.4998H14.4998H15.2498V8.25001H14.4998H10.4998ZM8.74977 4.25001H9.49977H14.4998H15.2498V5.75001H14.4998H9.49977H8.74977V4.25001Z" fill="#999999"/>
</svg>
