<svg width="16" height="16" viewBox="0 0 16 16" fill="none" xmlns="http://www.w3.org/2000/svg">
<path fill-rule="evenodd" clip-rule="evenodd" d="M9.26406 3.41803L9.75904 2.92305L8.76909 1.93311L8.27411 2.42808L4.53829 6.16391L3.34091 4.96653L2.84594 4.47156L1.85599 5.46151L2.35096 5.95648L4.04327 7.64879L4.53824 8.14376L4.53828 8.14373L4.53832 8.14377L5.03329 7.6488L9.26406 3.41803ZM10.0386 6.03079H9.33858V7.43079H10.0386H13.4232H14.1232V6.03079H13.4232H10.0386ZM1.72308 8.99234H2.42308H13.4231H14.1231V10.3923H13.4231H2.42308H1.72308V8.99234ZM1.72308 11.9538H2.42308H13.4231H14.1231V13.3538H13.4231H2.42308H1.72308V11.9538Z" fill="#999999"/>
</svg>
