<svg width="16" height="16" viewBox="0 0 16 16" fill="none" xmlns="http://www.w3.org/2000/svg">
<path fill-rule="evenodd" clip-rule="evenodd" d="M7.97846 1.6001C7.56213 1.6001 7.22462 1.93761 7.22462 2.35394V2.65548C7.22462 2.72348 7.23362 2.78937 7.25049 2.85203C5.52639 3.12838 4.20917 4.62272 4.20917 6.42471L4.20917 8.23394L2.94543 10.7614C2.69481 11.2627 3.05929 11.8524 3.61969 11.8524L6.01837 11.8524C6.01837 12.8516 6.82839 13.6616 7.8276 13.6616C8.82681 13.6616 9.63683 12.8516 9.63683 11.8524L12.0356 11.8524C12.596 11.8524 12.9605 11.2627 12.7098 10.7614L11.4461 8.23394V6.42471C11.4461 4.72294 10.2713 3.29556 8.68852 2.90928C8.71687 2.82998 8.73231 2.74453 8.73231 2.65548V2.35394C8.73231 1.93761 8.3948 1.6001 7.97846 1.6001ZM5.40917 8.51722L5.28248 8.7706L4.34158 10.6524H11.3137L10.3728 8.7706L10.2461 8.51722V8.23394V6.42471C10.2461 5.08903 9.16331 4.00625 7.82763 4.00625C6.49195 4.00625 5.40917 5.08903 5.40917 6.42471L5.40917 8.23394V8.51722ZM7.8276 12.6816C7.36963 12.6816 6.99837 12.3104 6.99837 11.8524H8.65683C8.65683 12.3104 8.28557 12.6816 7.8276 12.6816Z" fill="#333333"/>
</svg>
