<svg width="16" height="16" viewBox="0 0 16 16" fill="none" xmlns="http://www.w3.org/2000/svg">
<path fill-rule="evenodd" clip-rule="evenodd" d="M9.70606 12.8901V11.5852H6.98223L9.17491 7.3544C9.48815 6.75 9.70606 5.92582 9.70606 5.21154C9.70606 4.42857 9.4473 3.87912 9.06596 3.52198C8.671 3.1511 8.15348 3 7.56785 3C6.98223 3 6.38299 3.20604 6.00165 3.57692C5.62032 3.9478 5.40241 4.41484 5.40241 5.1978V5.77473H6.84604V5.14286C6.84604 4.57967 7.1729 4.30495 7.56785 4.30495C7.96281 4.30495 8.26243 4.59341 8.26243 5.15659C8.26243 5.87088 8.08538 6.48901 7.86748 6.9011L5.44327 11.6538V12.8901H9.70606ZM4.40088 12.8901V3.10989H2.95725L1.5 4.29121V5.93956L2.95725 4.81319V12.8901H4.40088ZM13.8599 12.4368C13.4786 12.8077 12.9066 13 12.3073 13C11.7081 13 11.1225 12.794 10.7411 12.4231C10.3598 12.0522 10.1419 11.5852 10.1419 10.8022V10.2253H11.5855V10.8571C11.5855 11.4203 11.9124 11.6951 12.3073 11.6951C12.5388 11.6951 12.7159 11.5852 12.8248 11.4478C13.0291 11.1868 13.0564 10.6099 13.0564 10.0055C13.0564 9.34615 13.0428 8.85165 12.8385 8.57692C12.7159 8.41209 12.5388 8.32967 12.2937 8.32967H11.817V7.10714H12.2937C12.498 7.10714 12.6478 7.03846 12.7567 6.91484C12.9747 6.66758 12.9747 6.18681 12.9747 5.67857C12.9747 5.18407 12.961 4.75824 12.784 4.52473C12.675 4.38736 12.5252 4.30495 12.3073 4.30495C11.9396 4.30495 11.6536 4.56593 11.6536 5.08791V5.77473H10.21V5.18407C10.21 4.42857 10.4279 3.93407 10.8092 3.56319C11.1905 3.19231 11.7081 3 12.3073 3C12.9474 3 13.4513 3.20604 13.7918 3.54945C14.2276 3.98901 14.4183 4.62088 14.4183 5.58242C14.4183 6.24176 14.391 6.70879 14.1731 7.13462C14.0506 7.36813 13.8735 7.56044 13.642 7.71154C13.8735 7.87637 14.0778 8.06868 14.2004 8.3022C14.4591 8.76923 14.5 9.26374 14.5 10.1016C14.5 11.1456 14.4728 11.8324 13.8599 12.4368Z" fill="#999999"/>
</svg>
