<svg width="16" height="16" viewBox="0 0 16 16" fill="none" xmlns="http://www.w3.org/2000/svg">
<path fill-rule="evenodd" clip-rule="evenodd" d="M5.5 4.5V3.5H10.5V4.5H5.5ZM4 4.5V2.5C4 2.22386 4.22386 2 4.5 2H11.5C11.7761 2 12 2.22386 12 2.5V4.5H14C14.2761 4.5 14.5 4.72386 14.5 5V11C14.5 11.2761 14.2761 11.5 14 11.5H12V13.5C12 13.7761 11.7761 14 11.5 14H4.5C4.22386 14 4 13.7761 4 13.5V11.5H2C1.72386 11.5 1.5 11.2761 1.5 11V5C1.5 4.72386 1.72386 4.5 2 4.5H4ZM12 6H10.5H5.5H4H3V10H4V9C4 8.72386 4.22386 8.5 4.5 8.5H11.5C11.7761 8.5 12 8.72386 12 9V10H13V6H12ZM10.5 10V11.5V12.5H5.5V11.5V10H10.5Z" fill="#333333"/>
</svg>
