<svg width="16" height="16" viewBox="0 0 16 16" fill="none" xmlns="http://www.w3.org/2000/svg">
<path fill-rule="evenodd" clip-rule="evenodd" d="M1.25 2.75H2H6H6.75V4.25H6H2H1.25V2.75ZM1.25 7.25H2H5H5.75V8.75H5H2H1.25V7.25ZM2 11.75H1.25V13.25H2H7H7.75V11.75H7H2ZM11 10.2C12.4912 10.2 13.7 8.99117 13.7 7.5C13.7 6.00883 12.4912 4.8 11 4.8C9.50883 4.8 8.3 6.00883 8.3 7.5C8.3 8.99117 9.50883 10.2 11 10.2ZM13.8586 10.2979C14.5647 9.57661 15 8.58914 15 7.5C15 5.29086 13.2091 3.5 11 3.5C8.79086 3.5 7 5.29086 7 7.5C7 9.70914 8.79086 11.5 11 11.5C11.5706 11.5 12.1134 11.3805 12.6045 11.1652L14.096 12.6567L14.6263 13.187L15.687 12.1263L15.1567 11.596L13.8586 10.2979Z" fill="#979797"/>
</svg>
