<svg width="16" height="16" viewBox="0 0 16 16" fill="none" xmlns="http://www.w3.org/2000/svg">
<path fill-rule="evenodd" clip-rule="evenodd" d="M9.29293 5L12.2929 8L12.6465 8.35355L12.2929 8.70711L9.29293 11.7071L8.58582 11L10.7626 8.82322H3.00004V7.82322H10.7019L8.58582 5.70711L9.29293 5Z" fill="#333333"/>
<path d="M12.2929 8L12.1869 8.10607L12.2929 8ZM9.29293 5L9.18686 4.89393L9.29293 4.78787L9.399 4.89393L9.29293 5ZM12.6465 8.35355L12.7526 8.24749L12.8586 8.35355L12.7526 8.45962L12.6465 8.35355ZM12.2929 8.70711L12.1869 8.60104L12.2929 8.70711ZM9.29293 11.7071L9.399 11.8132L9.29293 11.9192L9.18686 11.8132L9.29293 11.7071ZM8.58582 11L8.47976 11.1061L8.37369 11L8.47976 10.8939L8.58582 11ZM10.7626 8.82322V8.67322H11.1247L10.8687 8.92929L10.7626 8.82322ZM3.00004 8.82322V8.97322H2.85004V8.82322H3.00004ZM3.00004 7.82322H2.85004V7.67322H3.00004V7.82322ZM10.7019 7.82322L10.808 7.71716L11.0641 7.97322H10.7019V7.82322ZM8.58582 5.70711L8.47976 5.81317L8.37369 5.70711L8.47976 5.60104L8.58582 5.70711ZM12.1869 8.10607L9.18686 5.10607L9.399 4.89393L12.399 7.89393L12.1869 8.10607ZM12.5404 8.45962L12.1869 8.10607L12.399 7.89393L12.7526 8.24749L12.5404 8.45962ZM12.1869 8.60104L12.5404 8.24749L12.7526 8.45962L12.399 8.81317L12.1869 8.60104ZM9.18686 11.601L12.1869 8.60104L12.399 8.81317L9.399 11.8132L9.18686 11.601ZM8.69189 10.8939L9.399 11.601L9.18686 11.8132L8.47976 11.1061L8.69189 10.8939ZM10.8687 8.92929L8.69189 11.1061L8.47976 10.8939L10.6565 8.71716L10.8687 8.92929ZM3.00004 8.67322H10.7626V8.97322H3.00004V8.67322ZM3.15004 7.82322V8.82322H2.85004V7.82322H3.15004ZM10.7019 7.97322H3.00004V7.67322H10.7019V7.97322ZM8.69189 5.60104L10.808 7.71716L10.5959 7.92929L8.47976 5.81317L8.69189 5.60104ZM9.399 5.10607L8.69189 5.81317L8.47976 5.60104L9.18686 4.89393L9.399 5.10607Z" fill="#333333"/>
</svg>
