<svg width="16" height="16" viewBox="0 0 16 16" fill="none" xmlns="http://www.w3.org/2000/svg">
<path fill-rule="evenodd" clip-rule="evenodd" d="M3.5 12.5V3.5H11.5V7H13V3C13 2.44772 12.5523 2 12 2H3C2.44772 2 2 2.44772 2 3V13C2 13.5523 2.44771 14 3 14H7V12.5H3.5ZM12.4293 14.4293C12.4683 14.4683 12.5317 14.4683 12.5707 14.4293L14.3293 12.6707C14.3923 12.6077 14.3477 12.5 14.2586 12.5H13V8.5V8H12V8.5V12.5H10.7414C10.6523 12.5 10.6077 12.6077 10.6707 12.6707L12.4293 14.4293ZM9.07071 8.07071C9.03166 8.03166 8.96834 8.03166 8.92929 8.07071L7.17071 9.82929C7.10771 9.89229 7.15233 10 7.24142 10H8.5V14V14.5H9.5V14V10H10.7586C10.8477 10 10.8923 9.89229 10.8293 9.82929L9.07071 8.07071Z" fill="#333333"/>
</svg>
