<svg width="20" height="20" viewBox="0 0 20 20" fill="none" xmlns="http://www.w3.org/2000/svg">
<rect opacity="0.01" width="20" height="20" fill="#D8D8D8"/>
<path fill-rule="evenodd" clip-rule="evenodd" d="M12.5002 13.5002C11.6645 14.128 10.6257 14.5 9.5 14.5C6.73858 14.5 4.5 12.2614 4.5 9.5C4.5 6.73858 6.73858 4.5 9.5 4.5C12.2614 4.5 14.5 6.73858 14.5 9.5C14.5 10.6257 14.128 11.6645 13.5002 12.5002L13.5 12.5V12.5005C13.2157 12.8789 12.8789 13.2157 12.5005 13.5H12.5L12.5002 13.5002ZM13.5602 14.5762C12.4477 15.4672 11.0361 16 9.5 16C5.91015 16 3 13.0899 3 9.5C3 5.91015 5.91015 3 9.5 3C13.0899 3 16 5.91015 16 9.5C16 11.0361 15.4672 12.4477 14.5763 13.5601L17.5608 16.5L16.5001 17.5607L13.5602 14.5762Z" fill="#333333"/>
</svg>
