<svg width="16" height="16" viewBox="0 0 16 16" fill="none" xmlns="http://www.w3.org/2000/svg">
<path fill-rule="evenodd" clip-rule="evenodd" d="M10.884 3.00488L13.768 8.00007L10.884 12.9953H5.11607L2.23209 8.00007L5.11607 3.00488H10.884ZM15.3557 7.75007C15.445 7.90477 15.445 8.09537 15.3557 8.25007L11.8944 14.2453C11.8051 14.4 11.64 14.4953 11.4614 14.4953H4.53872C4.36008 14.4953 4.19502 14.4 4.1057 14.2453L0.64438 8.25007C0.555063 8.09537 0.555063 7.90477 0.64438 7.75007L4.1057 1.75488C4.19502 1.60018 4.36008 1.50488 4.53872 1.50488H11.4614C11.64 1.50488 11.8051 1.60018 11.8944 1.75488L15.3557 7.75007ZM6.75004 8.00012C6.75004 7.30977 7.30969 6.75012 8.00004 6.75012C8.6904 6.75012 9.25004 7.30977 9.25004 8.00012C9.25004 8.69048 8.6904 9.25012 8.00004 9.25012C7.30969 9.25012 6.75004 8.69048 6.75004 8.00012ZM8.00004 5.25012C6.48126 5.25012 5.25004 6.48134 5.25004 8.00012C5.25004 9.51891 6.48126 10.7501 8.00004 10.7501C9.51883 10.7501 10.75 9.51891 10.75 8.00012C10.75 6.48134 9.51883 5.25012 8.00004 5.25012Z" fill="#333333"/>
</svg>
