<svg width="16" height="16" viewBox="0 0 16 16" fill="none" xmlns="http://www.w3.org/2000/svg">
<path fill-rule="evenodd" clip-rule="evenodd" d="M10.884 3.00488L13.7679 8.00007L10.884 12.9953H5.11601L2.23203 8.00007L5.11601 3.00488H10.884ZM15.3556 7.75007C15.445 7.90477 15.445 8.09537 15.3556 8.25007L11.8943 14.2453C11.805 14.4 11.6399 14.4953 11.4613 14.4953H4.53866C4.36002 14.4953 4.19496 14.4 4.10564 14.2453L0.644319 8.25007C0.555002 8.09537 0.555002 7.90477 0.644319 7.75007L4.10564 1.75488C4.19496 1.60018 4.36002 1.50488 4.53866 1.50488H11.4613C11.6399 1.50488 11.805 1.60018 11.8943 1.75488L15.3556 7.75007ZM6.74998 8.00012C6.74998 7.30977 7.30963 6.75012 7.99998 6.75012C8.69034 6.75012 9.24998 7.30977 9.24998 8.00012C9.24998 8.69048 8.69034 9.25012 7.99998 9.25012C7.30963 9.25012 6.74998 8.69048 6.74998 8.00012ZM7.99998 5.25012C6.4812 5.25012 5.24998 6.48134 5.24998 8.00012C5.24998 9.51891 6.4812 10.7501 7.99998 10.7501C9.51876 10.7501 10.75 9.51891 10.75 8.00012C10.75 6.48134 9.51876 5.25012 7.99998 5.25012Z" fill="#333333"/>
</svg>
