<svg width="16" height="16" viewBox="0 0 16 16" fill="none" xmlns="http://www.w3.org/2000/svg">
<path fill-rule="evenodd" clip-rule="evenodd" d="M10.9286 6.92864C12.2304 6.92864 13.2857 5.87331 13.2857 4.5715C13.2857 3.26968 12.2304 2.21436 10.9286 2.21436C9.62674 2.21436 8.57141 3.26968 8.57141 4.5715C8.57141 4.72499 8.58608 4.87506 8.6141 5.02038L6.15192 6.25147C5.73382 5.87335 5.17949 5.64307 4.57138 5.64307C3.26956 5.64307 2.21423 6.6984 2.21423 8.00021C2.21423 9.30202 3.26956 10.3574 4.57138 10.3574C5.1795 10.3574 5.73384 10.1271 6.15194 9.74893L8.61402 10.98C8.58606 11.1252 8.57141 11.2751 8.57141 11.4284C8.57141 12.7302 9.62674 13.7856 10.9286 13.7856C12.2304 13.7856 13.2857 12.7302 13.2857 11.4284C13.2857 10.1266 12.2304 9.07129 10.9286 9.07129C10.4084 9.07129 9.92756 9.23978 9.5377 9.52517L6.9188 8.21572C6.92523 8.14475 6.92852 8.07286 6.92852 8.00021C6.92852 7.92754 6.92523 7.85565 6.9188 7.78466L9.53806 6.47503C9.92786 6.76025 10.4085 6.92864 10.9286 6.92864ZM5.42847 7.99063V8.00979C5.42333 8.47876 5.04156 8.85735 4.57138 8.85735C4.09799 8.85735 3.71423 8.4736 3.71423 8.00021C3.71423 7.52682 4.09799 7.14307 4.57138 7.14307C5.04156 7.14307 5.42333 7.52165 5.42847 7.99063ZM11.7857 4.5715C11.7857 5.04489 11.4019 5.42864 10.9286 5.42864C10.4552 5.42864 10.0714 5.04489 10.0714 4.5715C10.0714 4.09811 10.4552 3.71436 10.9286 3.71436C11.4019 3.71436 11.7857 4.09811 11.7857 4.5715ZM10.9286 12.2856C11.4019 12.2856 11.7857 11.9018 11.7857 11.4284C11.7857 10.955 11.4019 10.5713 10.9286 10.5713C10.4552 10.5713 10.0714 10.955 10.0714 11.4284C10.0714 11.9018 10.4552 12.2856 10.9286 12.2856Z" fill="#333333"/>
</svg>
