<svg width="16" height="16" viewBox="0 0 16 16" fill="none" xmlns="http://www.w3.org/2000/svg">
<path fill-rule="evenodd" clip-rule="evenodd" d="M3.5 12.5V3.5H11.5V7H13V3C13 2.44772 12.5523 2 12 2H3C2.44772 2 2 2.44772 2 3V13C2 13.5523 2.44771 14 3 14H7V12.5H3.5ZM12.5 8.5C12.2239 8.5 12 8.72386 12 9C12 9.27614 12.2239 9.5 12.5 9.5C12.7761 9.5 13 9.27614 13 9C13 8.72386 12.7761 8.5 12.5 8.5ZM14 9C14 9.82843 13.3284 10.5 12.5 10.5C12.0955 10.5 11.7284 10.3399 11.4586 10.0796L9.98865 10.8146C9.99614 10.8753 10 10.9372 10 11C10 11.0628 9.99615 11.1246 9.98866 11.1853L11.4587 11.9203C11.7285 11.6601 12.0955 11.5 12.5 11.5C13.3284 11.5 14 12.1716 14 13C14 13.8284 13.3284 14.5 12.5 14.5C11.6716 14.5 11 13.8284 11 13C11 12.9373 11.0039 12.8754 11.0113 12.8147L9.5413 12.0797C9.27152 12.3399 8.90445 12.5 8.5 12.5C7.67157 12.5 7 11.8284 7 11C7 10.1716 7.67157 9.5 8.5 9.5C8.90442 9.5 9.27145 9.66005 9.54123 9.92025L11.0113 9.18521C11.0038 9.12452 11 9.06271 11 9C11 8.17157 11.6716 7.5 12.5 7.5C13.3284 7.5 14 8.17157 14 9ZM9 11C9 10.7239 8.77614 10.5 8.5 10.5C8.22386 10.5 8 10.7239 8 11C8 11.2761 8.22386 11.5 8.5 11.5C8.77614 11.5 9 11.2761 9 11ZM12.5 12.5C12.2239 12.5 12 12.7239 12 13C12 13.2761 12.2239 13.5 12.5 13.5C12.7761 13.5 13 13.2761 13 13C13 12.7239 12.7761 12.5 12.5 12.5Z" fill="#333333"/>
</svg>
