<svg width="16" height="16" viewBox="0 0 16 16" fill="none" xmlns="http://www.w3.org/2000/svg">
<path fill-rule="evenodd" clip-rule="evenodd" d="M4 12.1705V3H12V12.1705L8.82761 10.7285C8.30176 10.4895 7.69824 10.4895 7.17239 10.7285L4 12.1705ZM2.5 2.5C2.5 1.94772 2.94772 1.5 3.5 1.5H12.5C13.0523 1.5 13.5 1.94772 13.5 2.5V12.947C13.5 13.6743 12.7483 14.1583 12.0862 13.8574L8.2069 12.094C8.07544 12.0343 7.92456 12.0343 7.7931 12.094L3.9138 13.8574C3.2517 14.1583 2.5 13.6743 2.5 12.947V2.5ZM5.5 5.5H10.5V4.5H5.5V5.5Z" fill="#333333"/>
</svg>
