<svg width="16" height="16" viewBox="0 0 16 16" fill="none" xmlns="http://www.w3.org/2000/svg">
<mask id="path-1-inside-1" fill="white">
<path d="M8 0C12.4183 0 16 3.58172 16 8C16 12.4183 12.4183 16 8 16C3.58172 16 0 12.4183 0 8C0 3.58172 3.58172 0 8 0Z"/>
</mask>
<path d="M8 1C11.866 1 15 4.13401 15 8H17C17 3.02944 12.9706 -1 8 -1V1ZM15 8C15 11.866 11.866 15 8 15V17C12.9706 17 17 12.9706 17 8H15ZM8 15C4.13401 15 1 11.866 1 8H-1C-1 12.9706 3.02944 17 8 17V15ZM1 8C1 4.13401 4.13401 1 8 1V-1C3.02944 -1 -1 3.02944 -1 8H1Z" fill="#00BF9C" mask="url(#path-1-inside-1)"/>
<path d="M12.0627 5.05957L12.9407 6.06301L7.1266 11.1496L6.6666 11.6098L6.63594 11.579L6.60389 11.6077L6.1806 11.1243L3.05713 8.00029L3.99994 7.05748L6.69727 9.75429L12.0627 5.05957Z" fill="#00BF9C"/>
</svg>
