<svg width="16" height="16" viewBox="0 0 16 16" fill="none" xmlns="http://www.w3.org/2000/svg">
<path fill-rule="evenodd" clip-rule="evenodd" d="M5.41169 2.0338C7.98574 0.77843 10.9993 1.45155 12.8155 3.48871L13.8026 2.6624C13.9327 2.55356 14.1306 2.64575 14.131 2.81532L14.138 5.98376C14.1383 6.10735 14.0275 6.20161 13.9056 6.18156L10.736 5.6605C10.5671 5.63275 10.5088 5.41961 10.64 5.30979L11.6644 4.45232C10.2808 2.93151 8.01014 2.43541 6.06921 3.38201C4.28927 4.25009 3.29449 6.08366 3.40917 7.94541L3.42028 8.12578L1.98 8.70191L1.94206 8.37755C1.64232 5.81507 2.96066 3.22917 5.41169 2.0338ZM14.3076 7.16633L14.2696 6.84196L12.8294 7.4181L12.8405 7.59847C12.9552 9.46022 11.9604 11.2938 10.1804 12.1619C8.23947 13.1085 5.96876 12.6124 4.5852 11.0915L5.60956 10.234C5.74075 10.1242 5.68244 9.91105 5.51362 9.8833L2.34401 9.36225C2.22206 9.3422 2.11129 9.43645 2.11157 9.56004L2.11859 12.7285C2.11896 12.8981 2.31694 12.9902 2.44696 12.8814L3.43406 12.0551C5.25032 14.0923 8.26387 14.7655 10.8379 13.5101C13.289 12.3147 14.6073 9.72881 14.3076 7.16633Z" fill="#333333"/>
</svg>
