<svg width="16" height="16" viewBox="0 0 16 16" fill="none" xmlns="http://www.w3.org/2000/svg">
<path fill-rule="evenodd" clip-rule="evenodd" d="M5.4555 2.12375C3.04383 3.29993 1.74641 5.84439 2.04136 8.366L2.06413 8.56062L3.31601 8.05985L3.30934 7.95163C3.19226 6.0509 4.2078 4.17863 6.02536 3.2922C8.04001 2.30965 10.4023 2.84944 11.8076 4.4629L10.7042 5.38654C10.6386 5.44145 10.6678 5.54802 10.7522 5.5619L13.9218 6.08295C13.9828 6.09298 14.0381 6.04585 14.038 5.98406L14.031 2.81561C14.0308 2.73083 13.9318 2.68473 13.8668 2.73915L12.8048 3.62817C11.025 1.56693 8.01869 0.873682 5.4555 2.12375ZM10.7941 13.4203C13.2058 12.2441 14.5032 9.69963 14.2082 7.17802L14.1855 6.9834L12.9336 7.48417L12.9403 7.59239C13.0573 9.49312 12.0418 11.3654 10.2242 12.2518C8.20956 13.2344 5.84719 12.6946 4.44195 11.081L5.54535 10.1574C5.61094 10.1025 5.58179 9.99592 5.49738 9.98205L2.32777 9.46099C2.26679 9.45097 2.21141 9.4981 2.21155 9.55989L2.21857 12.7283C2.21876 12.8131 2.31774 12.8592 2.38276 12.8048L3.44477 11.9158C5.22458 13.9771 8.23088 14.6704 10.7941 13.4203Z" fill="#333333"/>
</svg>
