<svg width="16" height="16" viewBox="0 0 16 16" fill="none" xmlns="http://www.w3.org/2000/svg">
<path fill-rule="evenodd" clip-rule="evenodd" d="M3.5 12.5V3.5H11.5V7H13V3C13 2.44772 12.5523 2 12 2H3C2.44772 2 2 2.44772 2 3V13C2 13.5523 2.44771 14 3 14H8V12.5H3.5Z" fill="#333333"/>
<path fill-rule="evenodd" clip-rule="evenodd" d="M10.7208 8.00049L9.12992 9.75049C8.99679 9.89693 8.96257 10.1081 9.04263 10.2891C9.1227 10.4701 9.30198 10.5868 9.49989 10.5868H14.4999V9.58682H10.6302L11.4608 8.67316L10.7208 8.00049ZM13.0289 13.923L14.6199 12.173C14.753 12.0266 14.7872 11.8154 14.7071 11.6344C14.6271 11.4534 14.4478 11.3367 14.2499 11.3367H9.24989V12.3367H13.1196L12.289 13.2504L13.0289 13.923Z" fill="#333333"/>
</svg>
