<svg width="16" height="16" viewBox="0 0 16 16" fill="none" xmlns="http://www.w3.org/2000/svg">
<path d="M4.5 11H6V9.8H4.5V11Z" fill="#666666"/>
<path d="M6 8.5H4.5V7.3H6V8.5Z" fill="#666666"/>
<path d="M6 6H4.5V4.8H6V6Z" fill="#666666"/>
<path d="M11.5 6H7V4.8H11.5V6Z" fill="#666666"/>
<path d="M7 8.5H11.5V7.3H7V8.5Z" fill="#666666"/>
<path d="M11.5 11H7V9.8H11.5V11Z" fill="#666666"/>
<path fill-rule="evenodd" clip-rule="evenodd" d="M2 3.5C2 2.94772 2.44772 2.5 3 2.5H13C13.5523 2.5 14 2.94772 14 3.5V12.5C14 13.0523 13.5523 13.5 13 13.5H3C2.44772 13.5 2 13.0523 2 12.5V3.5ZM3.2 12.3V3.7H12.8V12.3H3.2Z" fill="#666666"/>
</svg>
