<svg width="16" height="16" viewBox="0 0 16 16" fill="none" xmlns="http://www.w3.org/2000/svg">
<path fill-rule="evenodd" clip-rule="evenodd" d="M3.9 3.9V5.6H12.1V3.9H3.9ZM2.7 2.5C2.58954 2.5 2.5 2.58954 2.5 2.7V6.8C2.5 6.91046 2.58954 7 2.7 7H13.3C13.4105 7 13.5 6.91046 13.5 6.8V2.7C13.5 2.58954 13.4105 2.5 13.3 2.5H2.7ZM3.9 9.4V11.6H5.1V9.4H3.9ZM2.7 8C2.58954 8 2.5 8.08954 2.5 8.2V12.8C2.5 12.9105 2.58954 13 2.7 13H6.3C6.41046 13 6.5 12.9105 6.5 12.8V8.2C6.5 8.08954 6.41046 8 6.3 8H2.7ZM8.9 11.6V9.4H12.1V11.6H8.9ZM7.5 8.2C7.5 8.08954 7.58954 8 7.7 8H13.3C13.4105 8 13.5 8.08954 13.5 8.2V12.8C13.5 12.9105 13.4105 13 13.3 13H7.7C7.58954 13 7.5 12.9105 7.5 12.8V8.2Z" fill="#333333"/>
</svg>
