<svg width="16" height="16" viewBox="0 0 16 16" fill="none" xmlns="http://www.w3.org/2000/svg">
<path fill-rule="evenodd" clip-rule="evenodd" d="M8.00002 12.2999C10.3748 12.2999 12.3 10.3747 12.3 7.9999C12.3 5.62508 10.3748 3.6999 8.00002 3.6999C5.6252 3.6999 3.70002 5.62508 3.70002 7.9999C3.70002 10.3747 5.6252 12.2999 8.00002 12.2999ZM8.00002 13.5999C11.0928 13.5999 13.6 11.0927 13.6 7.9999C13.6 4.90711 11.0928 2.3999 8.00002 2.3999C4.90723 2.3999 2.40002 4.90711 2.40002 7.9999C2.40002 11.0927 4.90723 13.5999 8.00002 13.5999ZM7.20001 8.7998V4.7998H8.50001L8.50001 7.4998H11.2V8.7998H8.50001H8H7.20001Z" fill="#333333"/>
</svg>
