<svg width="16" height="16" viewBox="0 0 16 16" fill="none" xmlns="http://www.w3.org/2000/svg">
<path fill-rule="evenodd" clip-rule="evenodd" d="M10.2542 11.0268L9.58004 12.1945C8.65282 13.8005 6.59923 14.3507 4.99323 13.4235C3.38723 12.4963 2.83697 10.4427 3.76419 8.8367L4.44623 7.65538L3.14863 6.90288L2.46516 8.0867C1.12372 10.4101 1.91979 13.3811 4.24323 14.7225C6.56667 16.064 9.53764 15.2679 10.8791 12.9445L11.5532 11.7768L10.2542 11.0268ZM5.24103 3.27874L4.17671 5.1222L5.47883 5.86686L6.54007 4.02874C7.4673 2.42274 9.52088 1.87248 11.1269 2.79971C12.7329 3.72693 13.2831 5.78052 12.3559 7.38652L11.3116 9.19537L12.6106 9.94537L13.655 8.13652C14.9964 5.81308 14.2003 2.84211 11.8769 1.50067C9.55344 0.159229 6.58247 0.955298 5.24103 3.27874ZM10.0973 6.08263L10.4723 5.43311L9.17329 4.68311L8.79829 5.33263L6.02241 10.1406L5.64741 10.7901L6.94645 11.5401L7.32145 10.8906L10.0973 6.08263Z" fill="#999999"/>
</svg>
